<svg width="423" height="381" viewBox="0 0 423 381" fill="none" xmlns="http://www.w3.org/2000/svg">
<path d="M242.835 380.207C240.365 380.207 238.365 378.197 238.365 375.737C238.365 373.267 240.375 371.267 242.835 371.267H418.124C420.594 371.267 422.594 373.277 422.594 375.737C422.594 378.207 420.585 380.207 418.124 380.207H242.835Z" fill="#16364D"/>
<path d="M298.865 366.617H308.425L312.965 329.757H298.865V366.617Z" fill="#FFB8B8"/>
<path d="M296.425 363.497H315.245C321.865 363.497 327.235 368.867 327.235 375.487V375.877H296.425V363.497Z" fill="#2F2E41"/>
<path d="M330.994 366.617H340.554L345.094 329.757H330.994V366.617Z" fill="#FFB8B8"/>
<path d="M328.554 363.497H347.374C353.994 363.497 359.364 368.867 359.364 375.487V375.877H328.554V363.497Z" fill="#2F2E41"/>
<path d="M313.885 237.177L316.175 354.117L297.635 352.967L284.775 278.487L280.705 227.697L313.885 237.177Z" fill="#2F2E41"/>
<path d="M345.715 217.547L348.315 355.967L326.685 355.347L322.015 273.067L313.885 243.277L280.705 227.697L286.125 190.457L334.875 189.777L345.715 217.547Z" fill="#2F2E41"/>
<path d="M308.424 93.6267C317.581 93.6267 325.004 86.2036 325.004 77.0467C325.004 67.8898 317.581 60.4667 308.424 60.4667C299.268 60.4667 291.844 67.8898 291.844 77.0467C291.844 86.2036 299.268 93.6267 308.424 93.6267Z" fill="#FFB9B9"/>
<path d="M322.185 100.617L324.725 104.467L331.495 123.427L326.075 197.227L294.255 197.907L290.185 113.267L298.695 102.627L322.185 100.617Z" fill="#3F3D56"/>
<path d="M277.324 115.297L271.904 114.617C271.904 114.617 270.554 115.297 269.874 120.037C269.194 124.777 261.074 166.757 261.074 166.757L271.904 218.217L284.094 201.967L276.644 173.527L284.094 145.087L277.324 115.297Z" fill="#2F2E41"/>
<path d="M346.384 114.627H350.454L360.604 169.467L351.124 212.127L341.644 196.557L344.354 179.627L343.004 164.727L338.264 155.927L346.384 114.627Z" fill="#2F2E41"/>
<path d="M318.224 77.0467L315.204 76.2967C315.204 76.2967 312.944 63.4867 307.664 64.9867C302.384 66.4967 288.824 68.0067 288.824 61.9667C288.824 55.9267 301.634 50.6567 309.174 51.4167C316.714 52.1667 326.334 54.6667 328.774 65.7367C332.674 83.4767 320.724 87.9567 320.724 87.9567L320.924 87.3067C322.054 83.6567 321.004 79.6767 318.224 77.0467Z" fill="#0F0F14"/>
<path d="M272.584 114.627L294.254 105.827L299.334 102.107L314.564 169.477L321.674 100.077L349.774 114.637L340.294 160.677L338.944 178.277L343.004 192.497C343.004 192.497 357.224 202.657 352.484 213.487C347.744 224.317 342.324 224.997 342.324 224.997C342.324 224.997 319.304 203.327 317.944 197.917C316.594 192.497 314.554 183.017 314.554 183.017C314.554 183.017 303.044 226.347 289.504 225.677C275.964 225.007 275.964 210.777 275.964 210.777L279.354 195.877L284.774 180.307L282.064 154.577L272.584 114.627Z" fill="#2F2E41"/>
<path d="M181.895 34.1167C168.615 27.7867 104.405 1.54667 104.405 1.54667C104.405 1.54667 96.5145 -1.93333 89.8745 1.54667C89.8745 1.54667 19.0445 30.6367 11.4545 33.7967C3.86451 36.9567 0.0645065 44.5467 0.0645065 52.1367C0.0645065 59.7267 -5.62549 158.757 89.8745 206.637C89.8745 206.637 98.5445 209.037 105.115 206.637C111.695 204.237 195.174 163.767 195.174 51.8267C195.174 51.8167 195.174 40.4367 181.895 34.1167Z" fill="url(#paint0_linear_85_3003)"/>
<path d="M87.0746 132.477L58.1946 104.047L69.6846 92.3767L87.5546 109.967L126.005 75.2167L136.985 87.3767L87.0746 132.477Z" fill="white"/>
<path d="M98.1344 195.027C94.0444 195.027 90.6244 194.087 90.4044 194.027L89.9444 193.847C56.7444 177.007 33.7644 151.037 21.6444 116.657C17.3444 104.447 12.3044 84.8267 12.7644 60.7067C12.7744 60.2667 12.7844 59.9267 12.7844 59.6967C12.7844 51.5067 17.0544 44.6267 23.9244 41.7367C30.1344 39.1167 87.2144 15.3967 90.0244 14.2367C96.6044 10.8267 104.054 14.0767 104.364 14.2167C106.514 15.1067 158.694 36.6867 169.834 42.0567C182.314 48.0667 182.454 58.9667 182.454 59.4267C182.454 110.027 162.584 143.267 145.914 162.247C128.054 182.577 108.954 192.437 104.814 193.967C102.644 194.757 100.294 195.027 98.1344 195.027ZM91.9644 189.267C93.1444 189.557 98.8544 190.827 103.074 189.277C103.254 189.207 122.684 181.107 142.144 158.947C165.564 132.277 177.444 98.7967 177.444 59.4267C177.444 59.1067 177.204 51.1667 167.654 46.5567C156.634 41.2467 102.924 19.0267 102.384 18.8067C102.274 18.7567 96.6744 16.3567 92.2544 18.7067L92.0444 18.8067C91.4444 19.0567 32.1944 43.6767 25.8644 46.3467C19.9044 48.8567 17.7844 54.8967 17.7844 59.7067C17.7844 59.9567 17.7744 60.3367 17.7644 60.8067C17.2444 87.8167 23.4444 154.357 91.9644 189.267Z" fill="white"/>
<defs>
<linearGradient id="paint0_linear_85_3003" x1="0.00450656" y1="103.849" x2="195.175" y2="103.849" gradientUnits="userSpaceOnUse">
<stop stop-color="#4790FF"/>
<stop offset="1" stop-color="#3ECAD3"/>
</linearGradient>
</defs>
</svg>
