<svg width="429" height="396" viewBox="0 0 429 396" fill="none" xmlns="http://www.w3.org/2000/svg">
<path d="M231.223 395.25C229.233 395.25 227.613 393.63 227.613 391.64C227.613 389.65 229.233 388.03 231.223 388.03H425.193C427.183 388.03 428.803 389.65 428.803 391.64C428.803 393.63 427.183 395.25 425.193 395.25H231.223Z" fill="#CBCBCB"/>
<path d="M91.5929 123.26C90.9629 124.86 90.6129 126.62 90.6129 128.45C90.6129 129.15 90.6629 129.84 90.7629 130.52C87.6429 130.16 84.5329 129.85 81.4129 129.61C76.6429 129.21 71.8229 129 67.0529 128.99C60.7329 128.99 54.3529 129.34 48.0729 130.03C36.8329 131.36 27.7729 133.88 20.3929 137.73C14.5829 140.76 7.58292 145.98 7.24292 153.62C6.87292 162.02 13.8229 169.04 17.9929 172.48C25.8329 178.94 35.9029 182.69 43.8029 185.23C53.8429 188.47 64.3829 190.75 74.5829 192.97C76.4029 193.37 77.5829 195 77.3829 196.85C77.1729 198.75 75.6129 200.19 73.7229 200.19C73.4629 200.19 73.2029 200.16 72.9329 200.1C67.4029 198.91 62.4029 197.8 57.3829 196.59C48.1729 194.35 37.3729 191.42 27.1329 186.6C16.7029 181.69 9.31292 175.79 4.56292 168.55C-0.72708 160.5 -1.46708 151.33 2.60292 144.07C6.29292 137.47 13.1829 132.31 23.6629 128.3C32.4829 124.93 42.7629 122.89 55.1029 122.07C59.0229 121.85 62.9829 121.73 66.8829 121.73C74.6129 121.74 82.4229 122.21 90.0929 123.11C90.5929 123.14 91.0929 123.19 91.5929 123.26Z" fill="#6C63FF"/>
<path d="M252.363 132.14C250.453 136.09 247.093 139.48 242.623 142.04C233.883 147.02 223.453 148.12 215.353 148.52C212.813 148.65 210.193 148.71 207.563 148.71C187.483 148.69 167.333 144.92 148.393 141.07C144.833 140.34 141.263 139.6 137.703 138.86C131.103 137.48 124.413 136.09 117.693 134.8C118.653 132.9 119.183 130.74 119.183 128.47C119.183 128.19 119.173 127.91 119.153 127.63C125.823 128.91 132.433 130.29 138.953 131.65C145.153 132.94 151.583 134.28 157.903 135.49C169.273 137.79 180.863 139.49 192.393 140.58C198.783 141.13 203.993 141.39 208.753 141.39C214.283 141.4 219.223 141.05 223.863 140.35C231.053 139.26 241.113 136.98 245.343 129.78C248.533 124.35 247.363 117.02 241.793 107.38C234.353 94.5 222.783 82.67 208.123 72.86C209.873 71.16 211.193 69.03 211.903 66.63C215.673 69.13 219.323 71.83 222.843 74.66C230.133 80.56 236.673 87.35 242.293 94.84C247.073 101.28 252.713 109.85 254.093 119.17C254.833 123.56 254.243 128.06 252.363 132.14Z" fill="#6C63FF"/>
<path d="M303.243 10.25C303.183 12.25 301.643 13.75 299.683 13.75L299.463 13.74C293.873 13.4 288.213 13.16 282.623 13.02C278.893 12.93 275.123 12.88 271.403 12.88C252.093 12.86 232.593 14.05 213.443 16.4L212.473 16.52C202.133 17.8 191.453 19.11 182.343 23.62C177.713 25.92 174.613 28.43 172.873 31.33C170.583 35.1 172.103 38.81 173.203 40.7C175.733 45.01 180.033 48.11 183.493 50.33C184.873 51.23 186.313 52.07 187.753 52.8899C186.063 54.6899 184.843 56.93 184.273 59.41C180.713 57.3899 177.233 55.16 174.023 52.5099C169.303 48.5999 166.243 44.4 164.943 40.02C163.593 35.35 164.503 30.2599 167.383 26.3799C173.733 17.4699 185.643 13.96 194.043 12.1C204.983 9.67995 216.103 8.56995 228.463 7.45995C242.713 6.19995 257.183 5.56995 271.483 5.57995C280.893 5.58995 290.403 5.87995 299.793 6.44995C301.783 6.55995 303.303 8.23995 303.243 10.25Z" fill="#6C63FF"/>
<path d="M93.4129 210.7C99.7531 210.7 104.893 205.56 104.893 199.22C104.893 192.88 99.7531 187.74 93.4129 187.74C87.0726 187.74 81.9329 192.88 81.9329 199.22C81.9329 205.56 87.0726 210.7 93.4129 210.7Z" fill="url(#paint0_linear_85_2009)"/>
<path d="M114.943 134C117.283 129.76 116.653 124.37 113.423 120.77C110.273 117.27 105.163 116.04 100.763 117.73C96.2129 119.48 93.1929 124.09 93.4129 128.96C93.6229 133.56 96.6729 137.71 101.013 139.26C106.263 141.15 112.253 138.85 114.943 134Z" fill="url(#paint1_linear_85_2009)"/>
<path d="M207.653 69.11C210.413 65.08 210.283 59.59 207.343 55.7C204.523 51.98 199.603 50.31 195.103 51.57C190.363 52.89 186.993 57.2 186.723 62.08C186.473 66.59 189.063 70.93 193.093 72.93C198.143 75.42 204.453 73.75 207.653 69.11Z" fill="url(#paint2_linear_85_2009)"/>
<path d="M319.453 22.96C325.793 22.96 330.933 17.8202 330.933 11.48C330.933 5.13977 325.793 0 319.453 0C313.113 0 307.973 5.13977 307.973 11.48C307.973 17.8202 313.113 22.96 319.453 22.96Z" fill="url(#paint3_linear_85_2009)"/>
<path d="M366.633 379.16L360.413 381.47L348.533 358.58L357.713 355.17L366.633 379.16Z" fill="#FFB7B7"/>
<path d="M370.463 384.6L350.403 392.05L350.313 391.8C348.713 387.49 350.903 382.69 355.223 381.09L367.473 376.54L370.463 384.6Z" fill="#2F2E41"/>
<path d="M305.413 385.62H298.773L295.613 360.02H305.413V385.62Z" fill="#FFB7B7"/>
<path d="M306.563 392.05H285.163V391.78C285.163 387.18 288.893 383.45 293.493 383.45H306.563V392.05Z" fill="#2F2E41"/>
<path d="M335.793 208.09L333.623 203.76L315.223 212.96L315.763 216.75L312.243 221.35C312.243 221.35 306.293 224.6 307.373 235.42L308.453 245.71L309.803 258.97L300.333 291.72L295.463 335.03L291.943 369.95L308.993 369.14L324.693 312.3L352.303 373.47L371.253 368.6L345.273 307.97L342.023 282.53C342.023 282.53 344.193 269 333.903 259.79L335.523 254.92V248.92L340.933 220.28L335.793 208.09Z" fill="#2F2E41"/>
<path opacity="0.2" d="M336.294 270.015L324.383 312.236L324.999 312.41L336.91 270.189L336.294 270.015Z" fill="black"/>
<path d="M335.243 258.97H308.723V261.68H335.243V258.97Z" fill="#3F3D56"/>
<path d="M308.723 263.31C309.32 263.31 309.803 262.097 309.803 260.6C309.803 259.103 309.32 257.89 308.723 257.89C308.127 257.89 307.643 259.103 307.643 260.6C307.643 262.097 308.127 263.31 308.723 263.31Z" fill="#3F3D56"/>
<path d="M320.693 202.86C328.662 202.86 335.123 196.399 335.123 188.43C335.123 180.461 328.662 174 320.693 174C312.723 174 306.263 180.461 306.263 188.43C306.263 196.399 312.723 202.86 320.693 202.86Z" fill="#FFB7B7"/>
<path d="M342.773 183.27C349.82 183.27 355.533 177.557 355.533 170.51C355.533 163.463 349.82 157.75 342.773 157.75C335.726 157.75 330.013 163.463 330.013 170.51C330.013 177.557 335.726 183.27 342.773 183.27Z" fill="black"/>
<path d="M358.973 169.14C360.983 175.9 357.133 183.01 350.383 185.02C343.623 187.03 336.513 183.18 334.503 176.43C334.303 175.76 334.163 175.07 334.073 174.38C336.083 181.14 343.193 184.98 349.953 182.97C355.933 181.19 359.743 175.34 358.973 169.14Z" fill="black"/>
<path d="M308.543 184.42C307.603 192.7 313.553 200.18 321.833 201.12C330.113 202.06 337.593 196.11 338.533 187.83C339.473 179.55 333.523 172.07 325.243 171.13C322.623 170.83 319.973 171.23 317.553 172.27C315.033 170.24 311.903 170.87 309.363 173.01C306.493 175.44 305.633 177.1 303.413 181.09C305.593 181.4 306.343 184.11 308.543 184.42Z" fill="black"/>
<path d="M361.573 227.82C361.413 232.1 361.093 240.51 361.093 240.94C361.093 241.39 354.713 254.6 351.953 260.29C351.753 260.69 351.583 261.05 351.423 261.37C350.983 262.27 350.063 262.84 349.063 262.82L337.013 262.6C335.633 262.58 334.523 261.47 334.493 260.1L333.153 207.1C333.133 206.38 333.703 205.78 334.433 205.76C334.443 205.76 334.453 205.76 334.463 205.76H350.003C351.343 205.76 352.563 206.53 353.143 207.73L360.603 223.16C361.303 224.61 361.643 226.21 361.573 227.82Z" fill="#6C63FF"/>
<path d="M334.293 256.47C331.203 254.6 328.423 252.25 326.063 249.51C320.573 243.34 317.233 235.55 316.553 227.32C315.943 220.28 317.343 215.04 320.703 211.76C324.983 207.59 330.813 208.19 331.063 208.22L331.323 208.25L335.273 211.59L334.153 212.91L330.623 209.92C329.543 209.87 325.123 209.85 321.903 213.01C318.933 215.91 317.713 220.68 318.283 227.17C318.933 235.01 322.103 242.43 327.323 248.31C329.573 250.91 332.213 253.15 335.143 254.95L334.293 256.47Z" fill="#6C63FF"/>
<path d="M356.736 236.339L335.685 240.663L335.801 241.231L356.853 236.907L356.736 236.339Z" fill="#3F3D56"/>
<path d="M342.853 205.754L342.274 205.777L343.642 239.27L344.221 239.247L342.853 205.754Z" fill="#3F3D56"/>
<path d="M361.573 227.82C361.413 232.1 361.093 240.51 361.093 240.94C361.093 241.39 354.713 254.6 351.953 260.29L357.093 230.45C357.493 228.11 359.133 226.17 361.363 225.38C361.543 226.18 361.613 227 361.573 227.82Z" fill="#3F3D56"/>
<path d="M330.013 290.34C331.733 288.13 331.333 284.94 329.113 283.22C328.873 283.04 328.623 282.87 328.363 282.74L329.403 271.19L322.533 268.84L321.283 285.17C320.143 287.75 321.303 290.76 323.883 291.9C326.043 292.86 328.573 292.21 330.013 290.34Z" fill="#FFB7B7"/>
<path d="M330.903 279.16L318.733 278.72L319.243 220.05C319.223 216.65 321.383 213.61 324.603 212.51C326.073 212.02 327.663 212.02 329.123 212.51C332.553 213.67 334.753 217.01 334.483 220.62L330.903 279.16Z" fill="#CBCBCB"/>
<defs>
<linearGradient id="paint0_linear_85_2009" x1="81.9242" y1="199.222" x2="104.892" y2="199.222" gradientUnits="userSpaceOnUse">
<stop stop-color="#4790FF"/>
<stop offset="1" stop-color="#3ECAD3"/>
</linearGradient>
<linearGradient id="paint1_linear_85_2009" x1="93.4096" y1="128.456" x2="116.352" y2="128.456" gradientUnits="userSpaceOnUse">
<stop stop-color="#4790FF"/>
<stop offset="1" stop-color="#3ECAD3"/>
</linearGradient>
<linearGradient id="paint2_linear_85_2009" x1="186.693" y1="62.6113" x2="209.636" y2="62.6113" gradientUnits="userSpaceOnUse">
<stop stop-color="#4790FF"/>
<stop offset="1" stop-color="#3ECAD3"/>
</linearGradient>
<linearGradient id="paint3_linear_85_2009" x1="307.968" y1="11.4838" x2="330.936" y2="11.4838" gradientUnits="userSpaceOnUse">
<stop stop-color="#4790FF"/>
<stop offset="1" stop-color="#3ECAD3"/>
</linearGradient>
</defs>
</svg>
