<svg width="401" height="392" viewBox="0 0 401 392" fill="none" xmlns="http://www.w3.org/2000/svg">
<path d="M252.716 275.893C258.126 279.213 265.415 278.913 273.595 276.053C318.375 260.423 360.295 210.613 358.105 157.243C356.825 126.183 357.875 95.0131 357.875 63.0231C336.575 58.4731 315.326 55.0231 294.736 49.2431C271.946 42.8431 250.046 44.3831 227.586 50.2331C208.536 55.1931 189.066 58.5131 168.386 62.8531C168.386 70.9731 168.205 79.1831 168.545 87.3731C168.615 89.0031 170.355 91.3431 171.905 91.9931C183.665 96.9731 190.246 106.723 194.306 117.833C199.566 132.243 209.156 140.673 223.136 146.673C250.356 158.353 257.076 174.733 245.966 202.393C240.406 216.223 240.096 228.523 245.696 242.363C249.606 252.033 250.176 263.043 252.716 275.893Z" fill="#CDDBE0"/>
<path d="M125.766 98.9331C135.946 95.4631 144.596 92.5231 153.616 89.4531C153.616 79.5731 153.806 70.0231 153.546 60.4931C153.366 53.9131 155.726 50.4131 162.586 49.0131C194.266 42.5831 225.756 35.1131 257.576 29.4431C266.176 27.9131 275.766 30.8531 284.716 32.6431C310.986 37.8931 337.136 43.7631 363.406 49.0131C370.106 50.3531 372.736 53.4431 372.696 60.2331C372.486 96.3131 373.096 132.403 372.416 168.473C371.376 222.693 320.846 282.513 267.326 292.933C261.196 294.123 254.236 290.883 247.636 289.883C244.806 289.453 241.346 288.403 239.136 289.523C230.666 293.813 222.586 298.863 214.426 303.603C225.936 314.883 258.296 323.873 273.736 320.203C343.156 303.703 402.676 232.633 400.646 158.663C399.546 118.603 400.276 78.4831 400.606 38.4031C400.666 31.1131 399.246 27.8631 391.226 26.2731C349.846 18.0731 308.636 9.01311 267.336 0.403111C264.446 -0.196889 261.206 -0.0968893 258.306 0.503111C216.706 9.17311 175.166 18.1531 133.526 26.6031C127.336 27.8631 125.556 30.2631 125.646 36.2731C125.956 56.5831 125.766 76.9031 125.766 98.9331Z" fill="#047BA0"/>
<path d="M232.336 247.693C239.716 268.463 237.146 276.833 217.096 284.923C199.296 292.113 187.826 303.693 180.626 321.443C172.606 341.213 163.796 344.943 144.346 336.643C126.386 328.983 109.796 329.123 91.8856 336.753C72.9256 344.843 63.8256 341.093 56.1356 322.013C48.8656 303.963 37.2856 292.083 19.1456 284.773C-0.604424 276.813 -4.08442 268.193 4.21558 248.423C11.6156 230.813 11.7656 214.513 4.29558 196.853C-4.20442 176.743 -0.614422 168.293 19.7856 159.973C37.2156 152.863 48.5856 141.553 55.6856 124.113C63.9756 103.753 72.5056 100.193 92.5556 108.573C109.836 115.803 125.846 116.173 143.246 108.813C163.966 100.053 172.556 103.563 180.936 124.243C188.026 141.753 199.506 152.933 216.866 160.053C237.036 168.323 239.716 176.553 232.436 197.173C229.476 205.553 227.026 214.103 224.336 222.583C227.106 231.333 229.456 239.603 232.336 247.693ZM117.376 142.013C73.5056 142.343 37.5756 178.723 37.6556 222.723C37.7356 267.123 74.0356 303.093 118.666 303.003C163.106 302.913 198.856 266.663 198.646 221.893C198.436 177.453 162.046 141.673 117.376 142.013Z" fill="url(#paint0_linear_88_1054)"/>
<path d="M201.416 313.183C192.176 330.173 187.806 349.723 165.776 354.993C172.846 367.293 179.376 378.633 186.766 391.473C190.406 384.583 193.896 379.003 196.386 373.003C199.366 365.803 204.206 363.513 211.646 364.593C217.686 365.463 223.826 365.543 231.966 366.123C221.426 347.843 211.706 331.013 201.416 313.183Z" fill="url(#paint1_linear_88_1054)"/>
<path d="M70.7357 355.073C49.0057 349.993 44.3657 330.553 35.1257 313.133C24.8057 330.993 15.2557 347.543 4.55566 366.063C12.9357 365.493 19.4957 365.343 25.9757 364.523C32.7857 363.663 37.0257 366.073 39.7557 372.433C42.4057 378.603 45.8457 384.443 49.5657 391.663C56.8757 379.043 63.5757 367.453 70.7357 355.073Z" fill="url(#paint2_linear_88_1054)"/>
<path d="M52.3957 223.003C52.1857 187.103 81.3857 157.213 117.096 156.763C153.696 156.303 183.596 185.323 183.896 221.613C184.206 258.353 155.326 287.993 118.946 288.253C82.4557 288.513 52.6057 259.263 52.3957 223.003ZM105.666 236.913C99.4557 230.323 94.1757 224.713 88.8757 219.123C85.2557 215.313 80.4557 213.253 77.1257 217.913C75.4757 220.223 76.2957 226.423 78.3657 228.883C84.8757 236.653 92.5057 243.473 99.6857 250.683C103.546 254.553 107.796 255.423 111.856 251.413C127.856 235.593 143.856 219.763 159.396 203.493C159.896 202.973 160.146 202.223 160.256 201.343C160.816 197.003 157.186 193.273 152.806 193.263C151.626 193.263 150.456 193.343 149.326 193.593C147.286 194.043 145.726 196.783 143.986 198.523C131.606 210.913 119.226 223.323 105.666 236.913Z" fill="url(#paint3_linear_88_1054)"/>
<defs>
<linearGradient id="paint0_linear_88_1054" x1="236.122" y1="222.555" x2="0.00557316" y2="222.555" gradientUnits="userSpaceOnUse">
<stop stop-color="#4790FF"/>
<stop offset="1" stop-color="#3ECAD3"/>
</linearGradient>
<linearGradient id="paint1_linear_88_1054" x1="231.971" y1="352.328" x2="165.782" y2="352.328" gradientUnits="userSpaceOnUse">
<stop stop-color="#4790FF"/>
<stop offset="1" stop-color="#3ECAD3"/>
</linearGradient>
<linearGradient id="paint2_linear_88_1054" x1="70.7388" y1="352.39" x2="4.55827" y2="352.39" gradientUnits="userSpaceOnUse">
<stop stop-color="#4790FF"/>
<stop offset="1" stop-color="#3ECAD3"/>
</linearGradient>
<linearGradient id="paint3_linear_88_1054" x1="183.903" y1="222.508" x2="52.3977" y2="222.508" gradientUnits="userSpaceOnUse">
<stop stop-color="#4790FF"/>
<stop offset="1" stop-color="#3ECAD3"/>
</linearGradient>
</defs>
</svg>
