<svg width="493" height="448" viewBox="0 0 493 448" fill="none" xmlns="http://www.w3.org/2000/svg">
<path d="M492.64 64.05H292V177.08H492.64V64.05Z" fill="url(#paint0_linear_73_140)"/>
<path d="M276.93 51.8101H479.45V166.73H276.93V51.8101ZM475.68 55.5801H279.76V163.9H475.69V55.5801H475.68Z" fill="#00F9FF"/>
<path d="M217.6 12.25H16.96V125.28H217.6V12.25Z" fill="white"/>
<path d="M0 0H205.35V117.74H0V0ZM202.52 2.83H3.77V113.98H202.52V2.83Z" fill="#00F9FF"/>
<path d="M404.19 447.43C406.85 447.43 408.92 444.71 408.01 441.78C407.48 440.06 405.81 438.95 404.01 438.95H148.08C146.28 438.95 144.61 440.06 144.08 441.78C143.17 444.71 145.24 447.43 147.9 447.43H404.19Z" fill="white"/>
<path d="M243.74 284.94C243.52 280.35 239.62 276.8 235.03 277.02C234.54 277.04 234.05 277.11 233.58 277.22L222.57 261.7L211.51 266.09L227.37 287.79C228.69 292.22 233.36 294.74 237.79 293.42C241.48 292.3 243.95 288.8 243.74 284.94Z" fill="#FFB9B9"/>
<path d="M231.66 271.59L212.08 238.66L220.06 217.39L209.19 188.41L208.79 188.58C208.53 188.69 202.35 191.45 201.44 201.31L188.95 240.55L222.28 283.78L231.66 271.59Z" fill="#3F3D56"/>
<path d="M338.01 150.51C333.45 151.08 330.21 155.25 330.78 159.81C330.84 160.3 330.94 160.78 331.09 161.25L316.47 173.43L321.7 184.12L342.11 166.63C346.43 164.97 348.58 160.12 346.92 155.81C345.53 152.2 341.85 150.01 338.01 150.51Z" fill="#FFB9B9"/>
<path d="M325.64 163.59L294.32 185.66L272.49 179.35L244.44 192.42L244.64 192.81C244.77 193.06 248 199.01 257.9 199.16L297.99 208.58L338.52 172L325.64 163.59Z" fill="#3F3D56"/>
<path d="M268.46 432.36H279.45L284.68 389.97H268.46V432.36Z" fill="#FFB9B9"/>
<path d="M300.48 438.6C300.48 433.07 296 428.59 290.47 428.59H266.57V441.78H300.48V438.6Z" fill="#2F2E41"/>
<path d="M225.13 432.36H236.12L241.34 389.97H225.13V432.36Z" fill="#FFB9B9"/>
<path d="M256.21 438.6C256.21 433.07 251.73 428.59 246.2 428.59H222.3V441.78H256.21V438.6Z" fill="#2F2E41"/>
<path d="M221.36 278.66L222.3 340.84V422.55L242.25 420.77L252.02 307.97L264.45 421.05H284.63L286.66 307.09L279.55 282.22L221.36 278.66Z" fill="#2F2E41"/>
<path d="M281.5 282.6L284.48 282.47L270.65 206.3L276.31 183.28C276.92 180.8 275.58 178.26 273.19 177.36L263 173.54L259.4 163.64L231.01 166.7L230.31 174.43C227.23 175.42 201.9 183.85 203.65 193.47C205.38 202.96 215.56 232.82 216.08 234.33L217.86 277.15L218.08 277.26C218.34 277.39 237.91 287.01 259.17 287.01C266.66 287.01 274.36 285.82 281.5 282.6Z" fill="#3F3D56"/>
<path d="M256.141 156.233C266.047 150.817 269.687 138.397 264.272 128.491C258.857 118.586 246.437 114.945 236.531 120.36C226.625 125.776 222.985 138.196 228.4 148.102C233.815 158.007 246.235 161.648 256.141 156.233Z" fill="#FFB9B9"/>
<path d="M229.76 158.09C233.66 162.24 240.89 160.01 241.4 154.34C241.44 153.9 241.44 153.46 241.39 153.02C241.13 150.51 239.68 148.23 240.02 145.58C240.1 144.92 240.34 144.29 240.73 143.75C243.83 139.59 251.12 145.61 254.05 141.85C255.85 139.54 253.73 135.91 255.11 133.33C256.93 129.93 262.32 131.61 265.7 129.74C269.46 127.67 269.24 121.9 266.76 118.39C263.74 114.11 258.45 111.83 253.22 111.5C247.99 111.17 242.8 112.58 237.92 114.49C232.38 116.65 226.88 119.64 223.46 124.51C219.31 130.44 218.91 138.41 220.99 145.34C222.27 149.55 226.58 154.7 229.76 158.09Z" fill="#0F0F14"/>
<defs>
<linearGradient id="paint0_linear_73_140" x1="492.64" y1="120.57" x2="292.004" y2="120.57" gradientUnits="userSpaceOnUse">
<stop stop-color="#4790FF"/>
<stop offset="1" stop-color="#3ECAD3"/>
</linearGradient>
</defs>
</svg>
