<svg width="425" height="480" viewBox="0 0 425 480" fill="none" xmlns="http://www.w3.org/2000/svg">
<path d="M0 470.97C0 468.29 2.17 466.12 4.85 466.12H182.86C185.54 466.12 187.71 468.29 187.71 470.97C187.71 473.65 185.54 475.82 182.86 475.82H4.85C2.17 475.82 0 473.65 0 470.97Z" fill="#16364D"/>
<path d="M117.37 260.42C117.89 262.08 118.35 263.67 118.73 265.04L118.49 265.13C118.2 263.86 117.81 262.22 117.37 260.42ZM102.98 219.89L102.91 219.93L102.98 219.87V219.89Z" fill="url(#paint0_linear_89_1073)"/>
<path d="M85.3399 454.09C82.6299 454.96 80.5999 471.6 80.5999 471.6L97.4299 475.76C97.4299 475.76 109.23 477.5 114.84 475.76C120.45 474.02 120.26 469.18 112.23 468.41C104.2 467.64 98.4899 457.29 98.4899 457.29C98.4899 457.29 88.0499 453.22 85.3399 454.09Z" fill="black"/>
<path d="M65.5899 457.47C65.6299 458.8 65.4099 460.13 64.9299 461.38C63.5699 465.46 62.9999 469.76 63.2399 474.05C63.2799 474.56 63.3199 475.1 63.3599 475.66C63.9399 482.33 80.0899 478.18 81.1599 477.4C82.2299 476.62 77.9799 457.47 77.9799 457.47C77.9799 457.47 65.3199 454.76 65.5899 457.47Z" fill="black"/>
<path d="M83.26 215C83.26 215.01 83.27 215.01 83.27 215.02C83.61 215.86 96.29 246.94 94 236.78C93.93 236.48 93.89 236.17 93.86 235.86C93.66 233.36 94.84 230.62 96.74 227.89C97.95 226.18 99.29 224.58 100.76 223.09C101.49 222.33 102.25 221.59 103.02 220.87C105.13 218.89 107.33 217.08 109.27 215.57C112.77 212.84 115.47 211.11 115.47 211.11C115.47 211.11 90.95 182.52 92.69 194.86C93.17 198.24 95.16 201.61 93.81 204.74C92.92 206.72 91.67 208.52 90.11 210.03C88.88 211.25 87.54 212.35 86.1 213.32C85.49 213.73 84.93 214.08 84.48 214.34C83.73 214.77 83.26 215 83.26 215Z" fill="#F8A8AB"/>
<path d="M167.33 251.87C167.33 251.87 168.29 251.33 169.75 250.69C174.03 248.82 182.58 246.1 183.66 253.61C185.11 263.69 175.5 262.53 175.5 262.53C173.6 261.81 171.65 261.22 169.67 260.76C168.7 260.5 167.68 260.43 166.68 260.57L167.33 251.87Z" fill="#F8A8AB"/>
<path d="M165.87 261.41H168.76C170.44 259.14 169.16 250.49 169.16 250.49L166.64 250.94L165.87 261.41Z" fill="#E2E3E4"/>
<path d="M114.17 276.01L114.65 301.45L117.83 313.45C117.83 313.45 119.39 325.06 121.31 324.09C123.23 323.12 131.42 325.88 131.42 325.88L131.81 321.58L129.05 296.29L126.92 283.67C126.92 283.67 125.71 273.75 124.79 267.95C123.87 262.15 116.18 266.74 116.18 266.74L114.17 276.01Z" fill="#090814"/>
<path d="M123.37 263.39C128.6 261.93 135.34 263.39 135.34 263.39L165.82 264.06C171.26 256.88 167.49 250.13 167.49 250.13C167.49 250.13 152.54 249.54 140.43 247.73C128.32 245.92 120.34 236.92 120.34 236.92L123.37 263.39Z" fill="#090814"/>
<path opacity="0.1" d="M92.69 194.85C90.95 182.52 115.47 211.1 115.47 211.1C115.47 211.1 112.77 212.83 109.27 215.56C108.95 215.58 108.62 215.58 108.29 215.58C100.79 215.58 95.62 210.89 92.64 204.52C93.84 201.69 93.23 198.62 92.69 194.85Z" fill="black"/>
<path d="M90.6199 198.65C90.6399 189.39 98.1499 181.9 107.41 181.92C116.67 181.94 124.16 189.45 124.14 198.71C124.12 207.97 116.61 215.46 107.35 215.44C98.1199 215.42 90.6499 207.96 90.6199 198.73C90.6199 198.71 90.6199 198.68 90.6199 198.65Z" fill="#F8A8AB"/>
<path d="M82.3599 270.69L83.2699 215.01L92.9899 220.1L101.06 222.01L103.1 220.82L103.25 220.73L103.58 220.54C103.58 220.54 103.69 220.78 103.9 221.21C105.67 224.94 114.25 243.21 114.07 244.77C113.88 246.51 120.2 268.42 120.2 268.42L117.15 289.17C117.15 289.17 122.93 303.58 121.4 308.9C119.87 314.22 78.1799 310.54 78.1799 310.54L82.3599 270.69Z" fill="#E2E3E4"/>
<path d="M98.6399 223.73L101.88 227.89L102.4 229.1C104.23 233.38 105.28 237.96 105.5 242.61V248.01L106.18 291.25L109.91 297.9L110.59 289.68L109.09 243.39L107.06 232.93L105.95 226.3C105.35 225.14 104.84 223.95 104.4 222.72C103.29 219.87 100.43 220.64 100.43 220.64L98.6399 223.73Z" fill="#090814"/>
<path d="M84.3799 214.1L84.4799 214.33L85.1599 215.99L85.9199 217.85C86.8199 218.42 87.6499 219.08 88.4099 219.82C90.9899 222.14 94.7399 225.87 96.7299 227.88C97.5699 228.73 98.0999 229.26 98.0999 229.26C99.0899 228.38 100.08 225.45 100.75 223.07C100.86 222.69 100.95 222.33 101.05 221.99C101.39 220.7 101.59 219.77 101.59 219.77C99.0599 218.86 93.1399 213.08 90.0999 210C88.8699 211.22 87.5299 212.32 86.0899 213.29C85.9299 212.83 84.3799 214.1 84.3799 214.1Z" fill="#E2E3E4"/>
<path d="M105.54 221.9C107.44 223.06 110.52 224.57 113.94 224.74C113.94 224.74 121.35 228.66 122.72 242.08C124.09 255.5 129.9 295.84 129.9 295.84C129.9 295.84 135.07 323.04 131.43 325.86L127.37 292.57C127.37 292.57 120.26 273.34 119.75 269.78C119.3 266.54 113.64 248.83 112.65 245.73C112.55 245.44 112.5 245.28 112.5 245.28L106.85 229.29L103.58 220.54C104.2 221.03 104.86 221.49 105.54 221.9Z" fill="#090814"/>
<path d="M64.9299 404.66C64.9299 404.66 70.6299 365.28 69.0899 359.97C67.5399 354.66 70.1499 315.39 70.1499 315.39L71.0099 308.03L71.4899 303.88L71.6899 302.14L72.6899 302.44C82.2999 305.24 92.1799 307.05 102.16 307.84C104.37 307.99 106.6 307.81 108.76 307.31C112.71 306.41 120.34 305.3 121.67 304.36C121.67 304.36 122.12 305.58 122.69 307.59C124 312.22 125.97 321.06 124.46 328.59L122.14 343.82C122.14 343.82 121.23 359.35 118.22 368.63L115.56 381.3L112.08 407.12C110.36 414 109.11 420.99 108.35 428.05C107.08 439.76 99.8299 459.18 99.8299 459.18C99.8299 459.18 84.4299 461.31 83.9699 456.09L89.2899 415.36L94.2199 357.03C94.2199 357.03 88.8699 393.42 85.7999 401.26C85.7999 401.26 81.5399 445.94 80.0899 452.82C78.6399 459.7 77.6699 461.52 77.6699 461.52C77.6699 461.52 68.6699 464.81 64.6099 458.72C64.6099 458.72 63.4499 440.64 62.5799 434.16C61.7399 427.68 64.9299 404.66 64.9299 404.66Z" fill="#090814"/>
<path d="M72.01 316.53L78.38 319.63L70.79 333.95C67.94 331.29 68.27 320.7 68.27 320.7L72.01 316.53Z" fill="#F8A8AB"/>
<path d="M74.7398 316.53L77.6498 318.81L73.7798 324.66L68.5098 326.6L68.0698 322.73L74.7398 316.53Z" fill="#E2E3E4"/>
<g opacity="0.1">
<path d="M121.69 304.42C121.67 304.4 121.67 304.38 121.66 304.35C121.58 304.4 121.49 304.45 121.41 304.5L121.69 304.42Z" fill="black"/>
</g>
<path d="M49.97 324.56C53.45 328.62 68.62 329.35 68.62 329.35L80.44 310.72L83.63 305.7C83.63 305.7 87.18 303.23 93.86 292.13C100.54 281.03 100.31 272.47 99.94 266.09C99.57 259.7 95.39 241.35 95.39 241.35C94.98 239.5 94.47 237.67 93.86 235.87C92.41 231.29 90.21 224.93 88.41 219.84C88.09 218.92 87.78 218.04 87.48 217.22C86.93 215.66 89.71 209.74 89.71 209.74C88.73 211.7 82.57 214.93 80.43 216.28C74.65 219.92 66.59 221.41 66.59 221.41C53.6 223.29 56 236.71 56 236.71C56 236.71 55.85 288.87 56.66 295.11C57.46 301.35 49.97 324.56 49.97 324.56Z" fill="#090814"/>
<path opacity="0.1" d="M56.57 236.7C56.57 236.7 51.06 260.65 49.53 275.44C48.01 290.24 53.74 299.67 53.74 299.67L66 326.88C70.21 325.8 78.77 316.87 78.77 316.87L66.49 282.84C66.49 282.84 71.04 265.66 73.89 249.83C76.74 234 69.19 226.9 69.19 226.9C56.56 222.13 56.57 236.7 56.57 236.7Z" fill="black"/>
<path d="M55.9799 236.7C55.9799 236.7 50.4699 260.65 48.9399 275.44C47.4199 290.24 53.1499 299.67 53.1499 299.67L65.4299 326.88C69.6399 325.8 78.1999 316.87 78.1999 316.87L65.9199 282.84C65.9199 282.84 70.4799 265.66 73.3199 249.83C76.1599 234 68.6099 226.9 68.6099 226.9C55.9799 222.13 55.9799 236.7 55.9799 236.7Z" fill="#090814"/>
<path d="M80.2099 321.18L76.8299 330.86L73.0599 336.03C73.0599 336.03 70.2399 337.92 69.5299 334.39C68.8199 330.86 78.3799 317.6 78.3799 317.6C79.8799 317 80.2099 321.18 80.2099 321.18Z" fill="#090814"/>
<path d="M91.8799 207.73C91.8799 207.73 74.3699 183.73 96.4199 178.54C96.4199 178.54 102.68 169.14 110.38 173.76C114.16 175.98 118.47 177.12 122.85 177.08C126.58 177.08 130.15 178.54 129.5 184.38C128.2 196.06 121.07 194.11 121.07 194.11C121.07 194.11 101.72 185.44 101.07 195.17C100.42 204.9 91.8799 207.73 91.8799 207.73Z" fill="black"/>
<path d="M248.4 71.4C249.626 71.4 250.62 70.406 250.62 69.18C250.62 67.9539 249.626 66.96 248.4 66.96C247.174 66.96 246.18 67.9539 246.18 69.18C246.18 70.406 247.174 71.4 248.4 71.4Z" fill="#D3D3D3"/>
<path d="M259.65 71.4C260.876 71.4 261.87 70.406 261.87 69.18C261.87 67.9539 260.876 66.96 259.65 66.96C258.424 66.96 257.43 67.9539 257.43 69.18C257.43 70.406 258.424 71.4 259.65 71.4Z" fill="#D3D3D3"/>
<path d="M270.89 71.4C272.116 71.4 273.11 70.406 273.11 69.18C273.11 67.9539 272.116 66.96 270.89 66.96C269.664 66.96 268.67 67.9539 268.67 69.18C268.67 70.406 269.664 71.4 270.89 71.4Z" fill="#D3D3D3"/>
<path d="M282.14 71.4C283.366 71.4 284.36 70.406 284.36 69.18C284.36 67.9539 283.366 66.96 282.14 66.96C280.914 66.96 279.92 67.9539 279.92 69.18C279.92 70.406 280.914 71.4 282.14 71.4Z" fill="#D3D3D3"/>
<path d="M293.39 71.4C294.616 71.4 295.61 70.406 295.61 69.18C295.61 67.9539 294.616 66.96 293.39 66.96C292.164 66.96 291.17 67.9539 291.17 69.18C291.17 70.406 292.164 71.4 293.39 71.4Z" fill="#D3D3D3"/>
<path d="M248.4 82.7899C249.626 82.7899 250.62 81.7959 250.62 80.5699C250.62 79.3438 249.626 78.3499 248.4 78.3499C247.174 78.3499 246.18 79.3438 246.18 80.5699C246.18 81.7959 247.174 82.7899 248.4 82.7899Z" fill="#D3D3D3"/>
<path d="M259.65 82.7899C260.876 82.7899 261.87 81.7959 261.87 80.5699C261.87 79.3438 260.876 78.3499 259.65 78.3499C258.424 78.3499 257.43 79.3438 257.43 80.5699C257.43 81.7959 258.424 82.7899 259.65 82.7899Z" fill="#D3D3D3"/>
<path d="M270.89 82.7899C272.116 82.7899 273.11 81.7959 273.11 80.5699C273.11 79.3438 272.116 78.3499 270.89 78.3499C269.664 78.3499 268.67 79.3438 268.67 80.5699C268.67 81.7959 269.664 82.7899 270.89 82.7899Z" fill="#D3D3D3"/>
<path d="M282.14 82.7899C283.366 82.7899 284.36 81.7959 284.36 80.5699C284.36 79.3438 283.366 78.3499 282.14 78.3499C280.914 78.3499 279.92 79.3438 279.92 80.5699C279.92 81.7959 280.914 82.7899 282.14 82.7899Z" fill="url(#paint1_linear_89_1073)"/>
<path d="M293.39 82.7899C294.616 82.7899 295.61 81.7959 295.61 80.5699C295.61 79.3438 294.616 78.3499 293.39 78.3499C292.164 78.3499 291.17 79.3438 291.17 80.5699C291.17 81.7959 292.164 82.7899 293.39 82.7899Z" fill="#D3D3D3"/>
<path d="M315.88 82.7899C317.106 82.7899 318.1 81.7959 318.1 80.5699C318.1 79.3438 317.106 78.3499 315.88 78.3499C314.654 78.3499 313.66 79.3438 313.66 80.5699C313.66 81.7959 314.654 82.7899 315.88 82.7899Z" fill="#E2E3E4"/>
<path d="M248.4 94.18C249.626 94.18 250.62 93.1861 250.62 91.96C250.62 90.7339 249.626 89.74 248.4 89.74C247.174 89.74 246.18 90.7339 246.18 91.96C246.18 93.1861 247.174 94.18 248.4 94.18Z" fill="#D3D3D3"/>
<path d="M259.65 94.18C260.876 94.18 261.87 93.1861 261.87 91.96C261.87 90.7339 260.876 89.74 259.65 89.74C258.424 89.74 257.43 90.7339 257.43 91.96C257.43 93.1861 258.424 94.18 259.65 94.18Z" fill="#D3D3D3"/>
<path d="M270.89 94.18C272.116 94.18 273.11 93.1861 273.11 91.96C273.11 90.7339 272.116 89.74 270.89 89.74C269.664 89.74 268.67 90.7339 268.67 91.96C268.67 93.1861 269.664 94.18 270.89 94.18Z" fill="#D3D3D3"/>
<path d="M282.14 94.18C283.366 94.18 284.36 93.1861 284.36 91.96C284.36 90.7339 283.366 89.74 282.14 89.74C280.914 89.74 279.92 90.7339 279.92 91.96C279.92 93.1861 280.914 94.18 282.14 94.18Z" fill="#D3D3D3"/>
<path d="M293.39 94.18C294.616 94.18 295.61 93.1861 295.61 91.96C295.61 90.7339 294.616 89.74 293.39 89.74C292.164 89.74 291.17 90.7339 291.17 91.96C291.17 93.1861 292.164 94.18 293.39 94.18Z" fill="#D3D3D3"/>
<path d="M248.4 105.56C249.626 105.56 250.62 104.566 250.62 103.34C250.62 102.114 249.626 101.12 248.4 101.12C247.174 101.12 246.18 102.114 246.18 103.34C246.18 104.566 247.174 105.56 248.4 105.56Z" fill="#D3D3D3"/>
<path d="M259.65 105.56C260.876 105.56 261.87 104.566 261.87 103.34C261.87 102.114 260.876 101.12 259.65 101.12C258.424 101.12 257.43 102.114 257.43 103.34C257.43 104.566 258.424 105.56 259.65 105.56Z" fill="#D3D3D3"/>
<path d="M270.89 105.56C272.116 105.56 273.11 104.566 273.11 103.34C273.11 102.114 272.116 101.12 270.89 101.12C269.664 101.12 268.67 102.114 268.67 103.34C268.67 104.566 269.664 105.56 270.89 105.56Z" fill="#D3D3D3"/>
<path d="M282.14 105.56C283.366 105.56 284.36 104.566 284.36 103.34C284.36 102.114 283.366 101.12 282.14 101.12C280.914 101.12 279.92 102.114 279.92 103.34C279.92 104.566 280.914 105.56 282.14 105.56Z" fill="#D3D3D3"/>
<path d="M293.39 105.56C294.616 105.56 295.61 104.566 295.61 103.34C295.61 102.114 294.616 101.12 293.39 101.12C292.164 101.12 291.17 102.114 291.17 103.34C291.17 104.566 292.164 105.56 293.39 105.56Z" fill="#D3D3D3"/>
<path d="M304.63 105.56C305.856 105.56 306.85 104.566 306.85 103.34C306.85 102.114 305.856 101.12 304.63 101.12C303.404 101.12 302.41 102.114 302.41 103.34C302.41 104.566 303.404 105.56 304.63 105.56Z" fill="#D3D3D3"/>
<path d="M315.88 105.56C317.106 105.56 318.1 104.566 318.1 103.34C318.1 102.114 317.106 101.12 315.88 101.12C314.654 101.12 313.66 102.114 313.66 103.34C313.66 104.566 314.654 105.56 315.88 105.56Z" fill="#D3D3D3"/>
<path d="M327.12 105.56C328.346 105.56 329.34 104.566 329.34 103.34C329.34 102.114 328.346 101.12 327.12 101.12C325.894 101.12 324.9 102.114 324.9 103.34C324.9 104.566 325.894 105.56 327.12 105.56Z" fill="#D3D3D3"/>
<path d="M338.37 105.56C339.596 105.56 340.59 104.566 340.59 103.34C340.59 102.114 339.596 101.12 338.37 101.12C337.144 101.12 336.15 102.114 336.15 103.34C336.15 104.566 337.144 105.56 338.37 105.56Z" fill="#D3D3D3"/>
<path d="M349.62 105.56C350.846 105.56 351.84 104.566 351.84 103.34C351.84 102.114 350.846 101.12 349.62 101.12C348.394 101.12 347.4 102.114 347.4 103.34C347.4 104.566 348.394 105.56 349.62 105.56Z" fill="#D3D3D3"/>
<path d="M293.39 116.95C294.616 116.95 295.61 115.956 295.61 114.73C295.61 113.504 294.616 112.51 293.39 112.51C292.164 112.51 291.17 113.504 291.17 114.73C291.17 115.956 292.164 116.95 293.39 116.95Z" fill="#D3D3D3"/>
<path d="M304.63 116.95C305.856 116.95 306.85 115.956 306.85 114.73C306.85 113.504 305.856 112.51 304.63 112.51C303.404 112.51 302.41 113.504 302.41 114.73C302.41 115.956 303.404 116.95 304.63 116.95Z" fill="url(#paint2_linear_89_1073)"/>
<path d="M315.88 116.95C317.106 116.95 318.1 115.956 318.1 114.73C318.1 113.504 317.106 112.51 315.88 112.51C314.654 112.51 313.66 113.504 313.66 114.73C313.66 115.956 314.654 116.95 315.88 116.95Z" fill="#D3D3D3"/>
<path d="M327.12 116.95C328.346 116.95 329.34 115.956 329.34 114.73C329.34 113.504 328.346 112.51 327.12 112.51C325.894 112.51 324.9 113.504 324.9 114.73C324.9 115.956 325.894 116.95 327.12 116.95Z" fill="#D3D3D3"/>
<path d="M338.37 116.95C339.596 116.95 340.59 115.956 340.59 114.73C340.59 113.504 339.596 112.51 338.37 112.51C337.144 112.51 336.15 113.504 336.15 114.73C336.15 115.956 337.144 116.95 338.37 116.95Z" fill="#D3D3D3"/>
<path d="M349.62 116.95C350.846 116.95 351.84 115.956 351.84 114.73C351.84 113.504 350.846 112.51 349.62 112.51C348.394 112.51 347.4 113.504 347.4 114.73C347.4 115.956 348.394 116.95 349.62 116.95Z" fill="#D3D3D3"/>
<path d="M293.39 128.34C294.616 128.34 295.61 127.346 295.61 126.12C295.61 124.894 294.616 123.9 293.39 123.9C292.164 123.9 291.17 124.894 291.17 126.12C291.17 127.346 292.164 128.34 293.39 128.34Z" fill="#D3D3D3"/>
<path d="M304.63 128.34C305.856 128.34 306.85 127.346 306.85 126.12C306.85 124.894 305.856 123.9 304.63 123.9C303.404 123.9 302.41 124.894 302.41 126.12C302.41 127.346 303.404 128.34 304.63 128.34Z" fill="#D3D3D3"/>
<path d="M315.88 128.34C317.106 128.34 318.1 127.346 318.1 126.12C318.1 124.894 317.106 123.9 315.88 123.9C314.654 123.9 313.66 124.894 313.66 126.12C313.66 127.346 314.654 128.34 315.88 128.34Z" fill="#D3D3D3"/>
<path d="M327.12 128.34C328.346 128.34 329.34 127.346 329.34 126.12C329.34 124.894 328.346 123.9 327.12 123.9C325.894 123.9 324.9 124.894 324.9 126.12C324.9 127.346 325.894 128.34 327.12 128.34Z" fill="#D3D3D3"/>
<path d="M338.37 128.34C339.596 128.34 340.59 127.346 340.59 126.12C340.59 124.894 339.596 123.9 338.37 123.9C337.144 123.9 336.15 124.894 336.15 126.12C336.15 127.346 337.144 128.34 338.37 128.34Z" fill="url(#paint3_linear_89_1073)"/>
<path d="M349.62 128.34C350.846 128.34 351.84 127.346 351.84 126.12C351.84 124.894 350.846 123.9 349.62 123.9C348.394 123.9 347.4 124.894 347.4 126.12C347.4 127.346 348.394 128.34 349.62 128.34Z" fill="#D3D3D3"/>
<path d="M293.39 139.73C294.616 139.73 295.61 138.736 295.61 137.51C295.61 136.284 294.616 135.29 293.39 135.29C292.164 135.29 291.17 136.284 291.17 137.51C291.17 138.736 292.164 139.73 293.39 139.73Z" fill="#D3D3D3"/>
<path d="M304.63 139.73C305.856 139.73 306.85 138.736 306.85 137.51C306.85 136.284 305.856 135.29 304.63 135.29C303.404 135.29 302.41 136.284 302.41 137.51C302.41 138.736 303.404 139.73 304.63 139.73Z" fill="#D3D3D3"/>
<path d="M315.88 139.73C317.106 139.73 318.1 138.736 318.1 137.51C318.1 136.284 317.106 135.29 315.88 135.29C314.654 135.29 313.66 136.284 313.66 137.51C313.66 138.736 314.654 139.73 315.88 139.73Z" fill="#D3D3D3"/>
<path d="M327.12 139.73C328.346 139.73 329.34 138.736 329.34 137.51C329.34 136.284 328.346 135.29 327.12 135.29C325.894 135.29 324.9 136.284 324.9 137.51C324.9 138.736 325.894 139.73 327.12 139.73Z" fill="#D3D3D3"/>
<path d="M338.37 139.73C339.596 139.73 340.59 138.736 340.59 137.51C340.59 136.284 339.596 135.29 338.37 135.29C337.144 135.29 336.15 136.284 336.15 137.51C336.15 138.736 337.144 139.73 338.37 139.73Z" fill="#D3D3D3"/>
<path d="M349.62 139.73C350.846 139.73 351.84 138.736 351.84 137.51C351.84 136.284 350.846 135.29 349.62 135.29C348.394 135.29 347.4 136.284 347.4 137.51C347.4 138.736 348.394 139.73 349.62 139.73Z" fill="#D3D3D3"/>
<path d="M248.4 151.11C249.626 151.11 250.62 150.116 250.62 148.89C250.62 147.664 249.626 146.67 248.4 146.67C247.174 146.67 246.18 147.664 246.18 148.89C246.18 150.116 247.174 151.11 248.4 151.11Z" fill="#D3D3D3"/>
<path d="M259.65 151.11C260.876 151.11 261.87 150.116 261.87 148.89C261.87 147.664 260.876 146.67 259.65 146.67C258.424 146.67 257.43 147.664 257.43 148.89C257.43 150.116 258.424 151.11 259.65 151.11Z" fill="#D3D3D3"/>
<path d="M270.89 151.11C272.116 151.11 273.11 150.116 273.11 148.89C273.11 147.664 272.116 146.67 270.89 146.67C269.664 146.67 268.67 147.664 268.67 148.89C268.67 150.116 269.664 151.11 270.89 151.11Z" fill="#D3D3D3"/>
<path d="M282.14 151.11C283.366 151.11 284.36 150.116 284.36 148.89C284.36 147.664 283.366 146.67 282.14 146.67C280.914 146.67 279.92 147.664 279.92 148.89C279.92 150.116 280.914 151.11 282.14 151.11Z" fill="#D3D3D3"/>
<path d="M293.39 151.11C294.616 151.11 295.61 150.116 295.61 148.89C295.61 147.664 294.616 146.67 293.39 146.67C292.164 146.67 291.17 147.664 291.17 148.89C291.17 150.116 292.164 151.11 293.39 151.11Z" fill="#D3D3D3"/>
<path d="M304.63 151.11C305.856 151.11 306.85 150.116 306.85 148.89C306.85 147.664 305.856 146.67 304.63 146.67C303.404 146.67 302.41 147.664 302.41 148.89C302.41 150.116 303.404 151.11 304.63 151.11Z" fill="#D3D3D3"/>
<path d="M315.88 151.11C317.106 151.11 318.1 150.116 318.1 148.89C318.1 147.664 317.106 146.67 315.88 146.67C314.654 146.67 313.66 147.664 313.66 148.89C313.66 150.116 314.654 151.11 315.88 151.11Z" fill="#D3D3D3"/>
<path d="M327.12 151.11C328.346 151.11 329.34 150.116 329.34 148.89C329.34 147.664 328.346 146.67 327.12 146.67C325.894 146.67 324.9 147.664 324.9 148.89C324.9 150.116 325.894 151.11 327.12 151.11Z" fill="#D3D3D3"/>
<path d="M338.37 151.11C339.596 151.11 340.59 150.116 340.59 148.89C340.59 147.664 339.596 146.67 338.37 146.67C337.144 146.67 336.15 147.664 336.15 148.89C336.15 150.116 337.144 151.11 338.37 151.11Z" fill="#D3D3D3"/>
<path d="M349.62 151.11C350.846 151.11 351.84 150.116 351.84 148.89C351.84 147.664 350.846 146.67 349.62 146.67C348.394 146.67 347.4 147.664 347.4 148.89C347.4 150.116 348.394 151.11 349.62 151.11Z" fill="#D3D3D3"/>
<path d="M248.4 162.5C249.626 162.5 250.62 161.506 250.62 160.28C250.62 159.054 249.626 158.06 248.4 158.06C247.174 158.06 246.18 159.054 246.18 160.28C246.18 161.506 247.174 162.5 248.4 162.5Z" fill="#D3D3D3"/>
<path d="M259.65 162.5C260.876 162.5 261.87 161.506 261.87 160.28C261.87 159.054 260.876 158.06 259.65 158.06C258.424 158.06 257.43 159.054 257.43 160.28C257.43 161.506 258.424 162.5 259.65 162.5Z" fill="#D3D3D3"/>
<path d="M248.4 173.89C249.626 173.89 250.62 172.896 250.62 171.67C250.62 170.444 249.626 169.45 248.4 169.45C247.174 169.45 246.18 170.444 246.18 171.67C246.18 172.896 247.174 173.89 248.4 173.89Z" fill="#D3D3D3"/>
<path d="M259.65 173.89C260.876 173.89 261.87 172.896 261.87 171.67C261.87 170.444 260.876 169.45 259.65 169.45C258.424 169.45 257.43 170.444 257.43 171.67C257.43 172.896 258.424 173.89 259.65 173.89Z" fill="#D3D3D3"/>
<path d="M282.14 173.89C283.366 173.89 284.36 172.896 284.36 171.67C284.36 170.444 283.366 169.45 282.14 169.45C280.914 169.45 279.92 170.444 279.92 171.67C279.92 172.896 280.914 173.89 282.14 173.89Z" fill="#E2E3E4"/>
<path d="M306.2 93.8199C304.94 93.8199 303.92 92.7899 303.92 91.5399V69.6999C303.92 68.4399 304.94 67.4199 306.2 67.4199H394.24C395.5 67.4199 396.52 68.4399 396.52 69.6999V91.5399C396.52 92.7999 395.49 93.8199 394.24 93.8199H306.2ZM306.2 69.3799C306.02 69.3799 305.87 69.5299 305.87 69.7099V91.5499C305.87 91.7299 306.02 91.8799 306.2 91.8799H394.24C394.42 91.8799 394.57 91.7299 394.57 91.5499V69.6999C394.57 69.5199 394.42 69.3699 394.24 69.3699H306.2V69.3799Z" fill="#D3D3D3"/>
<path d="M317.61 87.47C321.393 87.47 324.46 84.4032 324.46 80.62C324.46 76.8369 321.393 73.77 317.61 73.77C313.827 73.77 310.76 76.8369 310.76 80.62C310.76 84.4032 313.827 87.47 317.61 87.47Z" fill="url(#paint4_linear_89_1073)"/>
<path d="M333.42 76.0601C332.79 76.0601 332.28 76.5701 332.28 77.2001C332.28 77.8301 332.79 78.3401 333.42 78.3401H363.74C364.37 78.3401 364.88 77.8301 364.88 77.2001C364.88 76.5701 364.37 76.0601 363.74 76.0601H333.42Z" fill="#D3D3D3"/>
<path d="M333.42 82.9099C332.79 82.9099 332.28 83.4199 332.28 84.0499C332.28 84.6799 332.79 85.1899 333.42 85.1899H387.22C387.85 85.1899 388.36 84.6799 388.36 84.0499C388.36 83.4199 387.85 82.9099 387.22 82.9099H333.42Z" fill="#D3D3D3"/>
<path d="M193.05 138.17C191.79 138.17 190.77 137.14 190.77 135.89V114.05C190.77 112.79 191.79 111.77 193.05 111.77H281.09C282.35 111.77 283.37 112.79 283.37 114.05V135.89C283.37 137.15 282.34 138.17 281.09 138.17H193.05ZM193.05 113.72C192.87 113.72 192.72 113.87 192.72 114.05V135.89C192.72 136.07 192.87 136.22 193.05 136.22H281.09C281.27 136.22 281.42 136.07 281.42 135.89V114.05C281.42 113.87 281.27 113.72 281.09 113.72H193.05Z" fill="#00F9FF"/>
<path d="M204.46 131.82C208.243 131.82 211.31 128.753 211.31 124.97C211.31 121.187 208.243 118.12 204.46 118.12C200.677 118.12 197.61 121.187 197.61 124.97C197.61 128.753 200.677 131.82 204.46 131.82Z" fill="url(#paint5_linear_89_1073)"/>
<path d="M220.28 120.4C219.65 120.4 219.14 120.91 219.14 121.54C219.14 122.17 219.65 122.68 220.28 122.68H251.91C252.54 122.68 253.05 122.17 253.05 121.54C253.05 120.91 252.54 120.4 251.91 120.4H220.28Z" fill="#E2E3E4"/>
<path d="M220.28 127.25C219.65 127.25 219.14 127.76 219.14 128.39C219.14 129.02 219.65 129.53 220.28 129.53H274.08C274.71 129.53 275.22 129.02 275.22 128.39C275.22 127.76 274.71 127.25 274.08 127.25H220.28Z" fill="#E2E3E4"/>
<path d="M272.61 186.1C271.35 186.1 270.33 185.07 270.33 183.82V161.98C270.33 160.72 271.35 159.7 272.61 159.7H360.65C361.91 159.7 362.93 160.72 362.93 161.98V183.82C362.93 185.08 361.9 186.1 360.65 186.1H272.61ZM272.61 161.66C272.43 161.66 272.28 161.81 272.28 161.99V183.83C272.28 184.01 272.43 184.16 272.61 184.16H360.65C360.83 184.16 360.98 184.01 360.98 183.83V161.99C360.98 161.81 360.83 161.66 360.65 161.66H272.61Z" fill="#D3D3D3"/>
<path d="M284.02 179.75C287.803 179.75 290.87 176.683 290.87 172.9C290.87 169.117 287.803 166.05 284.02 166.05C280.237 166.05 277.17 169.117 277.17 172.9C277.17 176.683 280.237 179.75 284.02 179.75Z" fill="url(#paint6_linear_89_1073)"/>
<path d="M299.84 168.34C299.21 168.34 298.7 168.85 298.7 169.48C298.7 170.11 299.21 170.62 299.84 170.62H328.86C329.49 170.62 330 170.11 330 169.48C330 168.85 329.49 168.34 328.86 168.34H299.84Z" fill="#D3D3D3"/>
<path d="M299.84 175.18C299.21 175.18 298.7 175.69 298.7 176.32C298.7 176.95 299.21 177.46 299.84 177.46H353.64C354.27 177.46 354.78 176.95 354.78 176.32C354.78 175.69 354.27 175.18 353.64 175.18H299.84Z" fill="#D3D3D3"/>
<path d="M169.05 116.18L169.56 116.22L171.15 116.35L172.66 116.47C177.77 54.05 230.91 5.13 293.64 5.13C350.28 5.13 399.1 45.01 411.81 98.71L404.06 99.9L414.23 112.59L417.18 116.26L419.22 111.02L424.79 96.71L416.92 97.92C411.25 73.4 398.35 51.04 379.58 33.65C356.14 11.96 325.62 0 293.64 0C261.67 0 231.15 11.96 207.7 33.66C184.39 55.25 170.12 84.51 167.53 116.06L169.05 116.18Z" fill="#00F9FF"/>
<path d="M417.19 137.47L416.08 137.37L414.57 137.24C409.15 199.3 356.03 247.93 293.64 247.93C237 247.93 188.18 208.05 175.47 154.35L183.23 153.16L173.05 140.47L170.1 136.8L168.06 142.04L162.49 156.35L170.36 155.14C176.03 179.66 188.93 202.02 207.7 219.41C231.15 241.11 261.67 253.07 293.64 253.07C325.49 253.07 355.93 241.19 379.34 219.63C402.61 198.2 416.94 169.1 419.68 137.69L418.17 137.56L417.19 137.47Z" fill="#00F9FF"/>
<defs>
<linearGradient id="paint0_linear_89_1073" x1="110.822" y1="265.122" x2="110.822" y2="219.864" gradientUnits="userSpaceOnUse">
<stop stop-color="#808080" stop-opacity="0.25"/>
<stop offset="0.54" stop-color="#808080" stop-opacity="0.12"/>
<stop offset="1" stop-color="#808080" stop-opacity="0.1"/>
</linearGradient>
<linearGradient id="paint1_linear_89_1073" x1="279.919" y1="80.5701" x2="284.362" y2="80.5701" gradientUnits="userSpaceOnUse">
<stop stop-color="#4790FF"/>
<stop offset="1" stop-color="#3ECAD3"/>
</linearGradient>
<linearGradient id="paint2_linear_89_1073" x1="302.411" y1="114.732" x2="306.854" y2="114.732" gradientUnits="userSpaceOnUse">
<stop stop-color="#4790FF"/>
<stop offset="1" stop-color="#3ECAD3"/>
</linearGradient>
<linearGradient id="paint3_linear_89_1073" x1="336.149" y1="126.119" x2="340.592" y2="126.119" gradientUnits="userSpaceOnUse">
<stop stop-color="#4790FF"/>
<stop offset="1" stop-color="#3ECAD3"/>
</linearGradient>
<linearGradient id="paint4_linear_89_1073" x1="310.762" y1="80.6226" x2="324.457" y2="80.6226" gradientUnits="userSpaceOnUse">
<stop stop-color="#4790FF"/>
<stop offset="1" stop-color="#3ECAD3"/>
</linearGradient>
<linearGradient id="paint5_linear_89_1073" x1="197.615" y1="124.968" x2="211.31" y2="124.968" gradientUnits="userSpaceOnUse">
<stop stop-color="#4790FF"/>
<stop offset="1" stop-color="#3ECAD3"/>
</linearGradient>
<linearGradient id="paint6_linear_89_1073" x1="277.177" y1="172.901" x2="290.872" y2="172.901" gradientUnits="userSpaceOnUse">
<stop stop-color="#4790FF"/>
<stop offset="1" stop-color="#3ECAD3"/>
</linearGradient>
</defs>
</svg>
