<svg width="275" height="254" viewBox="0 0 275 254" fill="none" xmlns="http://www.w3.org/2000/svg">
<path d="M226.861 0C219.111 0.16 214.471 2.46 211.501 7.56C204.251 20 196.931 32.41 189.921 44.99C185.531 52.87 187.821 61.02 195.541 66C202.001 70.16 208.551 74.19 215.251 77.93C218.431 79.71 218.961 81.76 217.971 84.98C206.941 121.04 188.611 152.85 162.771 180.33C160.511 182.74 158.701 182.98 155.861 181.3C149.421 177.49 142.811 173.95 136.201 170.44C127.121 165.62 119.171 167.69 114.001 176.43C106.951 188.32 100.031 200.3 93.2609 212.35C88.1109 221.53 90.9409 230.22 100.531 234.9C113.301 241.13 126.101 247.29 139.051 253.13C141.371 254.17 144.711 254.26 147.161 253.48C161.171 249.03 173.091 240.83 183.581 230.86C229.221 187.5 260.001 135.41 272.871 73.59C275.471 61.09 273.901 47.67 273.651 34.69C273.601 32.21 271.271 29.05 269.071 27.46C257.871 19.35 246.431 11.55 234.931 3.87C232.001 1.93 228.521 0.78 226.861 0Z" fill="white"/>
<path d="M183.221 74.58C161.281 89.61 139.271 104.69 117.261 119.77C109.891 124.82 109.211 124.83 101.971 119.87C70.1109 98.04 38.2609 76.21 6.4109 54.38C4.7009 53.21 2.9409 52.1 0.320902 50.38C0.190902 53.14 0.0209017 55.12 0.0209017 57.1C0.000901699 97.09 -0.0090983 137.07 0.0109017 177.06C0.0109017 188.37 3.5909 191.98 14.7609 191.99C37.8309 192.01 60.9009 191.9 83.9609 192.09C87.7309 192.12 89.8709 191.05 91.6309 187.68C95.0009 181.22 98.7209 174.92 102.541 168.7C111.131 154.7 126.981 150.28 141.621 157.69C143.671 158.73 145.671 159.89 147.691 160.99C157.521 166.35 157.631 166.44 164.361 157.82C180.071 137.7 192.551 115.76 201.461 91.79C202.871 87.99 202.331 85.95 198.681 84.01C193.451 81.23 188.521 77.86 183.221 74.58Z" fill="url(#paint0_linear_89_1690)"/>
<path d="M174.741 41.95C121.751 41.95 68.251 41.95 13.731 41.95C15.291 43.36 16.101 44.28 17.081 44.95C46.701 65.28 76.341 85.57 105.941 105.93C108.171 107.47 109.831 108.31 112.521 106.44C133.031 92.19 153.661 78.12 174.241 63.97C174.701 63.65 175.031 63.16 174.751 63.46C174.741 55.92 174.741 49.13 174.741 41.95Z" fill="url(#paint1_linear_89_1690)"/>
<defs>
<linearGradient id="paint0_linear_89_1690" x1="202.183" y1="121.233" x2="0.000891776" y2="121.233" gradientUnits="userSpaceOnUse">
<stop stop-color="#4790FF"/>
<stop offset="1" stop-color="#3ECAD3"/>
</linearGradient>
<linearGradient id="paint1_linear_89_1690" x1="174.849" y1="74.7311" x2="13.7308" y2="74.7311" gradientUnits="userSpaceOnUse">
<stop stop-color="#4790FF"/>
<stop offset="1" stop-color="#3ECAD3"/>
</linearGradient>
</defs>
</svg>
