<svg width="487" height="398" viewBox="0 0 487 398" fill="none" xmlns="http://www.w3.org/2000/svg">
<path d="M302.85 397.12C300.6 397.12 298.76 395.29 298.76 393.03C298.76 390.78 300.59 388.94 302.85 388.94H482C484.25 388.94 486.09 390.77 486.09 393.03C486.09 395.28 484.26 397.12 482 397.12H302.85Z" fill="#16364D"/>
<path d="M316.28 166.71C320.32 165.74 324.38 168.22 325.35 172.26C325.45 172.69 325.52 173.13 325.55 173.57L351.27 180.8L340.77 189.89L317.95 181.63C313.77 181.6 310.41 178.2 310.44 174.02C310.46 170.53 312.87 167.5 316.28 166.71Z" fill="#FFB7B7"/>
<path d="M382.38 385.74H374.88L371.31 356.82H382.38V385.74Z" fill="#FFB7B7"/>
<path d="M384.29 393.01H360.11V392.7C360.11 387.5 364.32 383.29 369.52 383.29H384.29V393.01Z" fill="#1C1B26"/>
<path d="M426.31 385.74H418.82L415.25 356.82H426.31V385.74Z" fill="#FFB7B7"/>
<path d="M428.23 393.01H404.05V392.7C404.05 387.5 408.26 383.29 413.46 383.29H428.23V393.01Z" fill="#1C1B26"/>
<path d="M376.25 219.75L365.21 296.25L367.96 376.86L384.54 378.18L389.73 305.89L402.93 265.58L410.69 323.04L411.01 376.86L428.14 378.18L434.11 265.04L429.72 215.83L376.25 219.75Z" fill="#2F2E41"/>
<path d="M408.2 117.31C417.848 117.31 425.67 109.488 425.67 99.84C425.67 90.1916 417.848 82.37 408.2 82.37C398.552 82.37 390.73 90.1916 390.73 99.84C390.73 109.488 398.552 117.31 408.2 117.31Z" fill="#FFB7B7"/>
<path d="M397.43 126.82L378.14 224C378.14 224 410.62 233.32 424.84 224.72C439.07 216.12 432.69 189.55 432.69 189.55L430.08 144.35L425.26 132.92L421.17 123.48L397.43 126.82Z" fill="#ECECEC"/>
<path d="M391.78 195.8L398.44 124.93L393.11 128.82L374.48 134.87L373.2 184.76L360.17 250.37C360.17 250.37 369.49 268.55 381.03 238.47L391.78 195.8Z" fill="#2F2E41"/>
<path d="M383.45 142.34L374.48 134.88L354.33 178.66L331.84 173.73L330.78 187.01L363.36 199.91L385.57 168.99L383.45 142.34Z" fill="#2F2E41"/>
<path d="M418.33 180.29L420.85 122.61L430.09 129.77L446.59 134.37L444.17 180.29L447.66 251.54L430.35 257.02L425.49 212.06L418.33 180.29Z" fill="#2F2E41"/>
<path d="M419.44 226.72C420.17 222.63 424.08 219.91 428.17 220.64C428.61 220.72 429.03 220.83 429.45 220.99L446.41 200.34L450.52 213.6L433.79 231.18C432.09 234.99 427.62 236.7 423.81 235C420.61 233.58 418.81 230.15 419.44 226.72Z" fill="#FFB7B7"/>
<path d="M435.54 140.77L446.59 134.37L474.4 189.28L447.29 226.93L431.83 214.56L450.6 190.08L433.49 163.78L435.54 140.77Z" fill="#2F2E41"/>
<path d="M424.63 85.88L425.48 84.18L421.22 82.06C421.22 82.06 416.52 74.41 408.01 76.56C399.5 78.71 395.67 80 395.67 80L391.42 82.14L393.55 84.26L389.72 85.55L392.28 86.82L389.3 88.53L390.9 97.3C390.9 97.3 393.56 90.65 398.68 93.19C403.79 95.73 413.15 91.88 413.15 91.88L421.28 107.61C421.28 107.61 422.96 102.1 425.95 103.57C425.95 103.55 433.58 91.39 424.63 85.88Z" fill="black"/>
<path d="M318.49 111.51H318.38L254.3 138.87L166.63 176.31C165.94 176.6 165.16 176.61 164.46 176.32L74.01 138.79L8.35999 111.55L8.25999 111.51H8.14999C5.98999 111.51 4.24999 113.26 4.23999 115.42V285.1C4.23999 287.26 5.98999 289 8.14999 289.01H318.49C320.65 289.01 322.39 287.26 322.4 285.1V115.42C322.4 113.26 320.65 111.51 318.49 111.51Z" fill="white"/>
<path d="M10.6899 122.65V108.1L162.64 8.04999L313 108.1V122.65L164.7 205.14L10.6899 122.65Z" fill="#E6E6E6"/>
<path d="M100.67 258.23H28.42C26.56 258.23 25.04 256.72 25.04 254.86C25.04 253 26.55 251.48 28.41 251.48H100.67C102.53 251.48 104.05 252.99 104.05 254.85C104.05 256.72 102.54 258.23 100.67 258.23Z" fill="url(#paint0_linear_95_1358)"/>
<path d="M54.3401 243.72H28.4201C26.5601 243.73 25.0401 242.22 25.0401 240.35C25.0301 238.49 26.5401 236.97 28.4101 236.97H28.4201H54.3501C56.2101 236.97 57.7301 238.48 57.7301 240.34C57.7301 242.2 56.2201 243.71 54.3601 243.72H54.3401Z" fill="url(#paint1_linear_95_1358)"/>
<path d="M7.30991 116.03C6.01991 116.03 4.80991 115.4 4.05991 114.34C2.79991 112.55 3.23991 110.07 5.02991 108.82L158.29 1.32C159.53 0.45 160.98 0 162.49 0C163.99 0 165.43 0.45 166.66 1.31L321.03 108.82C322.82 110.07 323.27 112.55 322.02 114.34C321.28 115.4 320.06 116.04 318.77 116.04C317.96 116.04 317.17 115.79 316.5 115.33L162.49 8.06L9.58991 115.31C8.91991 115.78 8.12991 116.03 7.30991 116.03Z" fill="#00F9FF"/>
<path d="M164.7 176.81C164.15 176.81 163.61 176.7 163.1 176.5L72.8999 139.08V21.92C72.8999 19.76 74.6499 18.02 76.8099 18.01H249.84C252 18.01 253.74 19.76 253.75 21.92V139.15L253.58 139.22L166.35 176.47C165.82 176.7 165.26 176.81 164.7 176.81Z" fill="url(#paint2_linear_95_1358)"/>
<path d="M150.65 61.81H89.2498C86.7798 61.8 84.7898 59.8 84.7898 57.34C84.7998 54.88 86.7898 52.89 89.2498 52.88H150.65C153.12 52.89 155.11 54.89 155.11 57.35C155.1 59.81 153.11 61.8 150.65 61.81Z" fill="white"/>
<path d="M118.84 42.83H89.2498C86.7798 42.83 84.7898 40.83 84.7898 38.36C84.7898 35.9 86.7898 33.9 89.2498 33.9H118.83C121.3 33.9 123.29 35.9 123.29 38.37C123.3 40.83 121.3 42.82 118.84 42.83Z" fill="white"/>
<path d="M209.24 106.46H115.47C113 106.46 111.01 104.46 111.01 101.99C111.01 99.53 113.01 97.53 115.47 97.53H209.24C211.71 97.53 213.7 99.53 213.7 102C213.7 104.46 211.71 106.46 209.24 106.46Z" fill="white"/>
<path d="M209.24 127.11H115.47C113 127.12 111 125.12 111 122.65C110.99 120.18 112.99 118.18 115.46 118.18C115.47 118.18 115.47 118.18 115.48 118.18H209.25C211.72 118.17 213.72 120.17 213.72 122.64C213.73 125.11 211.73 127.11 209.26 127.11C209.26 127.11 209.25 127.11 209.24 127.11Z" fill="white"/>
<path d="M7.31 292.41C3.28 292.41 0 289.13 0 285.1V115.42C0 111.39 3.28 108.11 7.31 108.11H8.15L8.87 108.43L164.7 173.08L316.85 108.11H317.66C321.69 108.11 324.97 111.39 324.97 115.42V285.1C324.97 289.13 321.69 292.41 317.66 292.41H7.31ZM317.04 284.49V116.64L167.57 180.47C166.64 180.86 165.68 181.05 164.69 181.05C163.73 181.05 162.8 180.87 161.91 180.51L7.93 116.61V284.48H317.04V284.49Z" fill="#00F9FF"/>
<defs>
<linearGradient id="paint0_linear_95_1358" x1="25.0401" y1="254.859" x2="104.051" y2="254.859" gradientUnits="userSpaceOnUse">
<stop stop-color="#4790FF"/>
<stop offset="1" stop-color="#3ECAD3"/>
</linearGradient>
<linearGradient id="paint1_linear_95_1358" x1="25.0357" y1="240.347" x2="57.7184" y2="240.347" gradientUnits="userSpaceOnUse">
<stop stop-color="#4790FF"/>
<stop offset="1" stop-color="#3ECAD3"/>
</linearGradient>
<linearGradient id="paint2_linear_95_1358" x1="72.8985" y1="97.4118" x2="253.747" y2="97.4118" gradientUnits="userSpaceOnUse">
<stop stop-color="#4790FF"/>
<stop offset="1" stop-color="#3ECAD3"/>
</linearGradient>
</defs>
</svg>
