<svg width="597" height="603" viewBox="0 0 597 603" fill="none" xmlns="http://www.w3.org/2000/svg">
<path d="M73.0622 287.686C73.0622 275.366 64.6179 265.011 53.2153 262.016C33.9676 188.676 31.2902 127.263 31.0093 105.9C127.641 46.3779 239.738 41.36 278.065 41.5847V106.78L294.935 106.199C296.021 106.181 401.059 102.923 491.25 147.616L473.182 226.685C461.967 229.793 453.691 240.072 453.691 252.261C453.691 266.903 465.599 278.811 480.241 278.811C494.882 278.811 506.791 266.903 506.791 252.261C506.791 246.887 505.18 241.907 502.428 237.731L526.712 131.42L516.414 125.803C436.896 82.4205 346.125 75.9422 309.333 75.1933V12.1515L295.44 11.103C289.056 10.6349 136.123 0.636555 7.0995 84.3865L0.284166 88.8052L0.0594849 96.9312C-0.0341323 100.152 -1.8503 176.319 24.1753 273.4C21.5165 277.537 19.9625 282.424 19.9625 287.686C19.9625 302.327 31.8706 314.235 46.5123 314.235C61.1541 314.235 73.0622 302.346 73.0622 287.686ZM480.259 265.573C472.92 265.573 466.985 259.619 466.985 252.298C466.985 244.959 472.939 239.023 480.259 239.023C487.599 239.023 493.534 244.977 493.534 252.298C493.553 259.619 487.599 265.573 480.259 265.573ZM46.5123 300.979C39.1727 300.979 33.2374 295.025 33.2374 287.704C33.2374 280.383 39.1915 274.429 46.5123 274.429C53.8332 274.429 59.7872 280.383 59.7872 287.704C59.7872 295.025 53.8519 300.979 46.5123 300.979Z" fill="url(#paint0_linear_217_1311)"/>
<path d="M462.603 384.879C461.555 390.889 462.603 396.562 465.056 401.412C411.039 479.039 321.747 545.694 293.943 565.429C160.688 472.991 104.555 375.948 88.1907 342.789L149.323 307.514L141.74 294.126C141.44 293.583 111.988 240.746 100.436 143.983C121.481 134.921 173.008 115.055 220.977 115.055V114.85C226.051 120.616 233.541 124.174 241.873 123.874C255.503 123.387 266.794 112.21 267.43 98.5976C268.142 83.3941 255.971 70.7933 240.899 70.7933C231.069 70.7933 222.494 76.1669 217.907 84.1244C149.66 85.1354 79.9337 119.137 76.9566 120.616L67.3141 125.372L68.4 136.063C76.6758 217.716 97.1592 271.771 107.963 295.606L49.1336 329.514L53.8145 341.852C55.874 347.282 106.296 476.193 285.367 597.053L293.98 602.857L302.63 597.09C307.611 593.776 425.419 514.614 492.729 415.885L492.486 415.716C505.368 413.9 515.328 402.835 515.328 389.447C515.328 373.888 501.866 361.4 485.989 363.029C474.287 364.283 464.607 373.308 462.603 384.879ZM241.255 84.0869C248.594 84.0869 254.53 90.041 254.53 97.3618C254.53 104.683 248.576 110.637 241.255 110.637C233.915 110.637 227.98 104.683 227.98 97.3618C227.98 90.041 233.934 84.0869 241.255 84.0869ZM489.116 402.779C481.776 402.779 475.841 396.824 475.841 389.504C475.841 382.183 481.795 376.229 489.116 376.229C496.436 376.229 502.391 382.183 502.391 389.504C502.391 396.824 496.455 402.779 489.116 402.779Z" fill="url(#paint1_linear_217_1311)"/>
<path d="M587.713 81.8027C584.586 79.9678 510.535 37.0724 379.958 14.4545C375.539 5.87916 366.627 0 356.329 0C341.687 0 329.779 11.9081 329.779 26.5498C329.779 41.1916 341.687 53.0997 356.329 53.0997C363.762 53.0997 370.484 50.0103 375.315 45.086C474.305 62.3303 540.006 92.1193 562.942 103.709C546.447 213.541 522.237 291.955 511.34 323.784C489.584 312.045 472.658 298.096 472.471 297.927L458.465 286.263L449.216 301.972C448.504 303.189 378.947 420.248 294.635 481.117C272.111 464.173 211.241 416.072 176.172 366.549C178.157 362.823 179.299 358.591 179.299 354.079C179.299 339.437 167.391 327.529 152.749 327.529C138.107 327.529 126.199 339.437 126.199 354.079C126.199 367.054 135.561 377.876 147.881 380.161C193.622 447.415 281.679 510.12 285.442 512.779L294.13 518.92L302.986 513.022C379.471 462.113 443.655 368.664 466.816 332.416C478.162 340.448 495.238 351.401 514.037 359.453L528.678 365.725L534.539 350.896C536.093 346.945 573.09 252.261 595.221 97.3244L596.682 87.0453L587.713 81.8027ZM356.329 39.8435C348.989 39.8435 343.054 33.8894 343.054 26.5686C343.054 19.2477 349.008 13.2936 356.329 13.2936C363.65 13.2936 369.604 19.2477 369.604 26.5686C369.604 33.8894 363.669 39.8435 356.329 39.8435ZM139.455 354.079C139.455 346.739 145.41 340.804 152.73 340.804C160.051 340.804 166.005 346.758 166.005 354.079C166.005 361.4 160.051 367.354 152.73 367.354C145.41 367.354 139.455 361.418 139.455 354.079Z" fill="url(#paint2_linear_217_1311)"/>
<path d="M238.465 215.975C214.761 234.661 199.951 264.113 201.43 296.935C203.696 347.076 244.606 387.65 294.766 389.71C350.506 391.994 396.435 347.563 396.435 292.423C396.435 260.911 381.437 232.901 358.183 215.114L355.412 213.017V206.126C355.412 175.869 330.884 151.36 300.646 151.36H296.002C265.745 151.36 241.236 175.888 241.236 206.126V213.784L238.465 215.975ZM296.901 173.454H299.185C315.755 173.454 329.686 185.755 331.352 201.333C321.035 197.607 309.914 195.585 298.324 195.585C286.509 195.585 275.2 197.701 264.734 201.539C266.269 185.849 280.218 173.454 296.901 173.454ZM355.43 349.435C340.171 364.695 319.893 373.102 298.305 373.102C276.717 373.102 256.44 364.695 241.18 349.435C225.92 334.176 217.513 313.898 217.513 292.31C217.513 267.446 228.729 244.322 248.276 228.875C262.637 217.529 279.937 211.537 298.286 211.537C316.223 211.537 333.206 217.285 347.379 228.164C357.022 235.56 364.998 245.183 370.447 255.987C376.157 267.296 379.059 279.522 379.059 292.31C379.097 313.898 370.69 334.176 355.43 349.435Z" fill="url(#paint3_linear_217_1311)"/>
<path d="M351.292 296.841C349.383 297.178 347.847 295.643 347.847 293.733C347.847 291.842 349.401 290.288 351.292 289.483H363.275C362.882 281.881 360.748 273.905 357.265 266.659C356.872 265.854 356.46 265.03 356.067 264.225L345.881 270.104C344.234 271.04 342.118 270.46 341.144 268.831C340.208 267.183 340.789 265.068 342.418 264.132L352.472 258.327C347.735 251.343 341.575 245.314 334.46 240.671C334.029 240.409 333.58 240.091 333.131 239.829L327.645 249.303C326.709 250.988 324.593 251.512 322.945 250.576C321.26 249.602 320.736 247.524 321.672 245.839L327.064 236.496C319.332 232.695 301.994 229.905 301.994 229.905V240.109C301.994 241.663 301.057 243.105 299.578 243.573C297.013 244.36 294.635 242.618 294.635 240.371V229.98C284.862 230.429 275.612 232.732 267.355 236.477L273.103 245.689C274.096 247.299 273.478 249.396 271.737 250.314C269.977 251.287 267.711 250.707 266.719 249.097L260.914 239.754H260.877C260.353 240.016 259.885 240.334 259.417 240.634C251.815 245.202 245.243 251.156 240.262 257.99L250.935 263.663C252.732 264.581 253.35 266.678 252.32 268.288C251.272 269.936 249.062 270.46 247.265 269.543L236.462 263.738C235.937 264.6 235.469 265.498 235.039 266.36C231.406 273.437 229.141 281.245 228.673 289.446H244.775C244.775 289.446 248.22 291.749 248.22 293.658C248.22 295.549 246.666 297.104 244.775 296.804H232.736C232.829 298.302 232.923 299.5 233.054 300.661C233.934 308.731 236.368 316.314 240.038 323.204L250.167 317.344C251.815 316.407 253.931 316.95 254.904 318.635C255.84 320.283 255.26 322.418 253.612 323.335L243.558 329.158C244.194 330.038 244.85 330.918 245.505 331.817C250.242 338.07 256.177 343.481 262.899 347.694L268.385 338.164C269.321 336.516 271.437 335.936 273.085 336.91C274.77 337.846 275.294 339.98 274.358 341.609L268.965 351.008C269.583 351.364 270.239 351.645 270.913 351.944C278.177 355.184 286.135 357.187 294.635 357.58V347.058C294.542 345.148 296.096 343.594 298.006 343.594C299.915 343.594 300.159 347.058 300.159 347.058V357.618C300.159 357.618 301.844 357.618 302.031 357.618C310.569 357.131 318.676 355.034 326.016 351.57C326.372 351.401 326.671 351.27 327.046 351.083L321.634 341.684C320.717 340.055 321.279 337.921 322.926 336.947C324.555 336.011 326.69 336.591 327.607 338.239L333.093 347.769C340.077 343.425 346.2 337.79 350.974 331.218C351.498 330.544 352.004 329.888 352.435 329.177L342.436 323.41C340.751 322.474 340.171 320.339 341.163 318.71C342.137 317.007 344.215 316.445 345.9 317.418L356.029 323.279C359.793 316.276 362.227 308.469 363.069 300.212C363.163 299.201 363.257 298.208 363.332 296.86H351.292V296.841ZM307.143 319.403C304.634 321.725 301.376 323.017 298.006 323.017C294.261 323.017 290.778 321.5 288.176 318.748C285.667 316.07 284.281 312.513 284.412 308.937C284.525 305.585 285.929 302.496 288.382 300.249C292.07 296.841 292.482 293.321 292.388 290.026C292.22 283.585 292.276 277.051 292.37 270.966C292.445 266.921 294.598 264.412 298.006 264.412C301.488 264.45 303.604 266.94 303.679 271.115C303.735 273.456 303.716 275.815 302.05 278.155L303.885 281.376V283.492C303.735 285.046 303.772 286.581 303.679 288.116C303.417 292.254 303.828 296.692 308.322 301.054C310.55 303.226 311.749 306.184 311.711 309.405C311.636 313.149 309.97 316.782 307.143 319.403Z" fill="url(#paint4_linear_217_1311)"/>
<defs>
<linearGradient id="paint0_linear_217_1311" x1="-27.4097" y1="476.985" x2="480.881" y2="-67.9535" gradientUnits="userSpaceOnUse">
<stop stop-color="#4790FF"/>
<stop offset="1" stop-color="#3ECAD3"/>
</linearGradient>
<linearGradient id="paint1_linear_217_1311" x1="35.9518" y1="536.422" x2="544.242" y2="-8.51563" gradientUnits="userSpaceOnUse">
<stop stop-color="#4790FF"/>
<stop offset="1" stop-color="#3ECAD3"/>
</linearGradient>
<linearGradient id="paint2_linear_217_1311" x1="74.0906" y1="571.659" x2="582.381" y2="26.7206" gradientUnits="userSpaceOnUse">
<stop stop-color="#4790FF"/>
<stop offset="1" stop-color="#3ECAD3"/>
</linearGradient>
<linearGradient id="paint3_linear_217_1311" x1="48.5071" y1="547.467" x2="556.96" y2="2.35458" gradientUnits="userSpaceOnUse">
<stop stop-color="#4790FF"/>
<stop offset="1" stop-color="#3ECAD3"/>
</linearGradient>
<linearGradient id="paint4_linear_217_1311" x1="54.2253" y1="553.429" x2="562.772" y2="8.21624" gradientUnits="userSpaceOnUse">
<stop stop-color="#4790FF"/>
<stop offset="1" stop-color="#3ECAD3"/>
</linearGradient>
</defs>
</svg>
