<svg width="280" height="280" viewBox="0 0 280 280" fill="none" xmlns="http://www.w3.org/2000/svg">
<path d="M279.78 140.021C279.74 218.061 217.77 280.021 139.82 280.001C61.9 279.961 -0.0399806 217.911 1.93626e-05 139.891C0.0400194 62.5705 63.08 -0.209475 140.49 0.000525308C217.22 0.190525 279.83 63.1305 279.78 140.021Z" fill="url(#paint0_linear_85_2065)"/>
<path d="M131.88 130.801C121.93 130.801 112.76 130.801 103.14 130.801C103.12 121.241 106.98 113.951 113.55 107.871C122.46 99.6205 133.8 97.4005 145.13 95.2905C149.07 94.5605 153.13 94.0505 157.12 94.1205C171.6 94.3605 179.98 106.241 175.14 119.841C166.85 143.111 158.3 166.291 149.87 189.511C149.23 191.281 148.67 193.081 147.86 195.481C157.71 195.481 167.03 195.481 176.33 195.481C176.6 211.201 165.52 224.421 149.77 227.481C141.87 229.021 133.93 230.321 125.99 231.651C109.9 234.351 99.09 221.611 104.6 206.211C112.98 182.771 121.6 159.411 130.11 136.011C130.63 134.591 131.09 133.151 131.88 130.801Z" fill="white"/>
<path d="M176.64 66.3605C176.65 76.4105 168.46 84.6905 158.42 84.7805C148.15 84.8705 139.72 76.4005 139.87 66.1205C140.01 56.0805 148.33 47.9305 158.38 47.9905C168.42 48.0505 176.63 56.3005 176.64 66.3605Z" fill="white"/>
<defs>
<linearGradient id="paint0_linear_85_2065" x1="1.93626e-05" y1="140.001" x2="279.784" y2="140.001" gradientUnits="userSpaceOnUse">
<stop stop-color="#4790FF"/>
<stop offset="1" stop-color="#3ECAD3"/>
</linearGradient>
</defs>
</svg>
