<svg width="422" height="350" viewBox="0 0 422 350" fill="none" xmlns="http://www.w3.org/2000/svg">
<path d="M176.918 139.981C173.948 140.521 170.978 141.051 168.008 141.591C167.988 102.081 167.968 51.3009 167.948 11.7909C167.948 10.3109 167.888 8.8109 168.018 7.3409C168.408 2.9009 170.668 -0.0591044 175.298 0.000895555C179.438 0.0608956 181.708 2.8009 182.138 6.8309C182.388 9.1809 182.278 11.5809 182.328 13.9509C182.328 28.3309 182.328 42.7209 182.328 57.1009C182.258 80.9109 182.198 116.011 182.128 139.821C180.388 139.871 178.648 139.921 176.918 139.981Z" fill="#E1A975"/>
<path d="M196.508 14.3309C206.578 14.2409 216.658 13.9709 226.728 14.1009C234.268 14.2009 236.098 17.6109 232.578 24.3409C231.758 25.9109 230.848 27.5209 229.628 28.7609C225.148 33.3309 225.148 37.7009 229.628 42.2609C230.848 43.5109 231.758 45.1209 232.578 46.6809C236.098 53.4109 234.268 56.8209 226.728 56.9209C216.658 57.0609 206.578 56.7909 196.508 56.6909C196.508 42.5909 196.508 28.4609 196.508 14.3309Z" fill="#FE8086"/>
<path d="M196.508 14.3309C196.508 28.4609 196.508 42.5809 196.508 56.7109C191.778 56.8409 187.058 56.9709 182.328 57.1009C182.328 42.7209 182.328 28.3309 182.328 13.9509C187.058 14.0809 191.778 14.2009 196.508 14.3309Z" fill="#E4646E"/>
<path d="M45.8176 308.381C42.3576 296.701 39.2976 285.411 35.6576 274.311C30.7476 259.331 25.4376 244.481 20.1576 229.621C19.2176 226.981 19.3076 224.961 20.8476 222.531C26.5476 213.521 31.9876 204.351 37.5476 195.251C39.1776 192.591 40.9476 189.951 44.6976 191.791C47.7376 193.281 48.2776 196.491 46.0876 200.411C42.9276 206.041 39.4176 211.491 36.4976 217.231C35.5476 219.091 35.2376 221.871 35.8676 223.841C38.0676 230.701 40.8276 237.371 43.3376 244.131C44.2676 246.631 45.5176 247.831 47.8476 245.501C58.0976 235.271 69.7976 234.721 80.8476 244.121C83.1076 246.041 84.9776 248.431 87.2476 250.841C84.8076 252.851 82.6476 254.631 80.2776 256.581C78.5276 255.021 76.7676 253.231 74.7776 251.741C68.9076 247.321 62.4076 247.781 57.2876 252.991C51.3176 259.061 48.1876 266.711 45.7476 274.661C45.3476 275.951 45.8076 277.621 46.1976 279.021C47.7476 284.671 49.4376 290.281 51.0676 295.911C53.2376 303.381 53.2376 303.381 45.8176 308.381Z" fill="#CCDBDF"/>
<path d="M24.3877 201.591C17.9777 206.981 8.79767 206.161 3.47767 199.731C-1.84233 193.301 -0.96233 184.011 5.45767 178.791C11.7077 173.701 20.9077 174.501 26.1877 180.581C31.5377 186.741 30.7177 196.261 24.3877 201.591Z" fill="#CCDBDF"/>
<path d="M106.798 87.2409C110.128 88.0109 111.928 91.9509 110.498 95.1209L106.258 110.721C104.058 118.561 101.808 126.391 99.7377 134.271C99.5177 135.111 100.228 136.271 100.688 137.201C104.268 144.491 107.958 151.731 111.478 159.051C112.668 161.521 113.898 162.251 116.728 161.161C123.748 158.461 127.538 160.171 130.918 166.961C134.528 174.211 138.118 181.461 141.848 188.961C138.718 190.511 135.978 191.881 132.818 193.451C130.128 188.021 127.398 182.861 124.988 177.561C123.608 174.511 121.788 173.771 119.018 175.481C115.448 177.681 111.288 179.391 108.598 182.401C105.988 185.321 103.808 189.491 103.358 193.341C101.798 206.771 101.078 220.291 100.038 233.781C99.4177 241.831 99.4177 241.831 90.8077 244.681C90.8477 242.971 90.8377 241.361 90.9277 239.751C92.0777 218.891 93.2677 198.031 94.3677 177.171C94.7677 169.641 89.5777 164.111 86.8577 157.701C86.7477 157.441 83.5577 157.761 82.6577 158.671C76.8377 164.531 71.2677 170.631 65.5877 176.641C64.4577 177.841 63.2977 179.021 62.0377 180.081C59.8277 181.941 57.4677 182.481 55.2577 180.111C53.1877 177.891 53.2177 175.431 55.1677 173.221C59.5277 168.251 64.0877 163.461 68.4177 158.471C73.8177 152.241 79.3677 146.111 84.2977 139.521C92.2977 128.851 93.5077 115.531 97.7177 103.371C97.7077 103.401 101.478 86.0209 106.798 87.2409Z" fill="url(#paint0_linear_85_2043)"/>
<path d="M79.1676 111.431C82.9076 118.901 79.9577 127.681 72.4777 131.361C65.0877 135.001 55.9977 131.901 52.4977 124.541C49.0777 117.361 52.0977 108.391 59.1576 104.761C66.4476 101.021 75.4676 104.021 79.1676 111.431Z" fill="url(#paint1_linear_85_2043)"/>
<path d="M164.468 349.561C152.018 349.521 139.558 349.471 127.108 349.431C130.588 334.401 134.088 319.371 137.528 304.321C138.218 301.301 139.118 297.921 136.548 295.521C133.518 292.691 130.638 295.461 128.138 296.901C123.548 299.551 120.698 298.861 118.378 293.861C115.658 288.021 112.308 282.471 109.188 276.821C104.918 269.091 101.268 268.811 96.4177 275.971C83.6777 294.761 70.9477 313.561 58.3477 332.451C54.6477 337.991 49.9377 342.961 48.0077 349.581C42.3277 349.631 36.6377 349.921 30.9777 349.671C25.5677 349.431 23.3377 346.731 26.1777 341.471C43.5777 309.251 61.0277 277.051 78.4077 244.811C81.2177 239.601 86.1077 239.961 90.6077 240.411C95.9877 240.951 99.0577 239.251 101.508 234.311C104.338 228.601 107.178 222.751 111.628 217.981C119.688 219.921 127.058 216.641 134.248 214.191C141.858 211.591 143.808 214.391 143.868 221.171C143.908 225.301 144.138 229.441 144.468 233.571C144.728 236.811 144.108 240.771 148.558 241.751C152.508 242.621 153.758 239.261 155.398 236.671C160.658 228.381 165.838 220.031 171.268 211.851C173.918 207.861 175.348 203.751 175.708 198.911C177.488 174.691 179.548 150.491 181.508 126.291C186.768 131.771 188.768 139.071 192.128 145.581C199.908 160.671 207.378 175.931 214.768 191.231C216.618 195.071 218.588 197.681 223.408 196.841C232.018 195.341 238.118 198.861 242.778 206.191C245.938 211.151 250.158 215.431 253.898 220.011C255.348 225.321 250.648 227.741 248.408 231.161C238.408 246.401 226.128 260.051 217.148 276.021C215.908 277.291 214.508 278.451 213.458 279.861C201.278 296.421 188.938 312.881 177.108 329.691C172.608 336.101 165.988 341.251 164.468 349.561Z" fill="#047BA0"/>
<path d="M164.468 349.561C165.988 341.251 172.608 336.101 177.108 329.701C188.938 312.891 201.278 296.431 213.458 279.871C214.498 278.451 215.908 277.301 217.148 276.031C228.608 272.981 240.108 270.051 251.508 266.811C255.258 265.751 256.728 266.611 256.908 270.511C257.168 276.181 257.698 281.841 258.178 287.501C258.408 290.171 259.008 292.761 262.138 293.431C265.198 294.081 266.898 292.091 268.348 289.821C273.618 281.551 278.728 273.171 284.218 265.041C286.928 261.011 288.208 256.721 288.588 252.021C289.698 238.121 290.428 224.181 292.048 210.341C293.028 201.981 291.858 193.351 294.948 185.251C308.938 211.211 322.918 237.181 336.938 263.131C338.148 265.371 339.568 267.501 340.888 269.671C353.958 282.341 367.038 295.001 380.098 307.671C381.888 309.401 383.898 310.531 386.308 309.321C388.908 308.011 389.618 305.701 389.248 302.841C388.718 298.781 388.408 294.691 387.998 290.611C398.678 308.561 409.278 326.541 420.068 344.421C422.998 349.271 420.978 349.821 416.508 349.801C384.458 349.691 352.398 349.771 320.348 349.741C268.368 349.701 216.418 349.621 164.468 349.561Z" fill="#015F7E"/>
<path d="M48.0077 349.591C49.9377 342.971 54.6477 338.011 58.3477 332.461C70.9477 313.571 83.6777 294.781 96.4177 275.981C101.268 268.821 104.918 269.091 109.188 276.831C112.308 282.481 115.658 288.031 118.378 293.871C120.698 298.871 123.548 299.561 128.138 296.911C130.638 295.471 133.518 292.701 136.548 295.531C139.118 297.931 138.218 301.311 137.528 304.331C134.088 319.371 130.588 334.401 127.108 349.441C100.748 350.301 74.3777 350.001 48.0077 349.591Z" fill="#005F7E"/>
<path d="M181.508 126.311C179.548 150.511 177.488 174.711 175.708 198.931C175.348 203.771 173.918 207.881 171.268 211.871C165.838 220.051 160.658 228.401 155.398 236.691C153.758 239.281 152.508 242.641 148.558 241.771C144.108 240.791 144.728 236.821 144.468 233.591C144.138 229.471 143.908 225.331 143.868 221.191C143.808 214.411 141.858 211.611 134.248 214.211C127.068 216.671 119.688 219.951 111.628 218.001C119.188 201.651 129.078 186.591 137.918 170.961C142.348 163.131 147.488 155.661 151.418 147.591C156.198 137.771 163.908 130.641 171.598 123.451C175.958 119.391 179.908 119.471 181.508 126.311Z" fill="#CDDBE0"/>
<path d="M294.928 185.241C291.838 193.351 293.008 201.971 292.028 210.331C290.408 224.171 289.678 238.111 288.568 252.011C288.188 256.711 286.918 261.001 284.198 265.031C278.718 273.161 273.608 281.541 268.328 289.811C266.878 292.081 265.178 294.071 262.118 293.421C258.988 292.751 258.388 290.161 258.158 287.491C257.678 281.831 257.148 276.171 256.888 270.501C256.708 266.601 255.238 265.741 251.488 266.801C240.078 270.041 228.588 272.971 217.128 276.021C226.098 260.061 238.388 246.411 248.388 231.161C250.638 227.731 255.328 225.321 253.878 220.011C256.798 219.811 258.218 217.811 259.778 215.601C267.198 205.071 274.828 194.691 282.328 184.211C287.428 177.131 290.688 177.371 294.928 185.241Z" fill="#CCDBDF"/>
<path d="M387.978 290.611C388.388 294.691 388.698 298.781 389.228 302.841C389.598 305.701 388.888 308.011 386.288 309.321C383.878 310.531 381.868 309.411 380.078 307.671C367.018 294.991 353.938 282.331 340.868 269.671C349.808 269.561 358.758 269.751 367.668 269.231C373.488 268.891 377.448 270.661 380.048 275.951C382.498 280.941 385.318 285.731 387.978 290.611Z" fill="#CCDBDF"/>
<defs>
<linearGradient id="paint0_linear_85_2043" x1="51.9479" y1="175.487" x2="127.371" y2="159.979" gradientUnits="userSpaceOnUse">
<stop stop-color="#4790FF"/>
<stop offset="1" stop-color="#3ECAD3"/>
</linearGradient>
<linearGradient id="paint1_linear_85_2043" x1="41.1752" y1="123.095" x2="116.598" y2="107.587" gradientUnits="userSpaceOnUse">
<stop stop-color="#4790FF"/>
<stop offset="1" stop-color="#3ECAD3"/>
</linearGradient>
</defs>
</svg>
