<svg width="387" height="377" viewBox="0 0 387 377" fill="none" xmlns="http://www.w3.org/2000/svg">
<path d="M229.745 141.969C265.465 141.909 300.424 137.339 333.854 123.989C348.495 118.139 362.225 110.739 373.255 99.1691C390.185 81.4191 390.124 60.8591 373.104 43.1591C362.025 31.6391 348.424 23.7591 333.615 18.4791C264.785 -6.06093 195.715 -6.15093 126.795 18.1591C112.195 23.3091 98.7645 30.9491 87.6345 42.0291C68.9945 60.5791 68.9345 82.2491 87.8445 100.629C105.785 118.069 128.495 126.379 152.065 132.649C177.485 139.409 203.454 142.109 229.745 141.969Z" fill="url(#paint0_linear_89_1204)"/>
<path d="M73.7146 140.339C76.6846 139.959 79.6746 139.769 82.7046 139.769C87.3746 139.769 92.0446 140.239 96.6046 141.169C113.875 144.669 128.695 153.429 139.495 166.549C149.895 179.179 155.625 194.709 156.125 211.569C159.895 212.479 163.705 213.289 167.535 214.039C221.135 224.439 274.095 222.499 326.035 204.619C341.605 199.259 356.235 191.959 368.825 181.049C380.345 171.059 386.965 159.089 385.965 143.199C385.255 131.799 385.835 120.329 385.835 107.319C356.155 135.199 320.995 146.419 283.845 152.299C232.625 160.389 181.925 158.149 132.345 141.669C111.045 134.589 91.3746 124.529 74.5046 107.729C74.1946 110.369 73.8246 112.139 73.8146 113.909C73.7546 122.729 74.4146 131.589 73.7146 140.339Z" fill="url(#paint1_linear_89_1204)"/>
<path d="M156.195 227.409V229.979C172.695 237.539 180.475 250.969 180.475 271.489C180.475 274.279 180.485 277.069 180.505 279.879C180.515 284.649 180.535 289.529 180.505 294.439C231.125 302.779 281.355 299.269 330.545 280.739C344.455 275.499 357.425 266.869 369.575 258.089C381.195 249.689 386.765 237.279 385.955 222.259C385.335 210.569 385.835 198.819 385.835 187.109C385.835 187.109 365.805 218.349 285.485 230.179C218.515 240.029 191.705 237.899 156.195 227.409Z" fill="url(#paint2_linear_89_1204)"/>
<path d="M151.685 366.449C212.035 381.919 272.055 380.799 330.915 358.689C344.825 353.459 357.765 344.779 369.895 335.949C381.245 327.679 386.685 315.439 385.945 300.709C385.355 288.839 385.825 276.929 385.825 263.429C361.585 286.899 332.965 298.329 302.335 304.939C261.065 313.829 220.165 315.939 179.835 309.479C178.105 325.049 172.655 339.719 163.855 352.359C160.275 357.489 156.195 362.219 151.685 366.449Z" fill="url(#paint3_linear_89_1204)"/>
<path d="M78.1345 298.269V298.419C78.1345 300.239 78.6745 300.649 79.0345 300.929C80.3745 301.929 81.7845 303.219 83.0545 304.839C84.2745 303.079 85.8145 301.329 87.7445 299.669C88.0545 299.099 88.0845 296.879 86.7745 294.899C85.9245 293.609 84.6045 292.899 83.0545 292.899C82.5545 292.899 82.0445 292.969 81.5245 293.119C78.4245 294.039 78.1245 297.019 78.1345 298.269Z" fill="#047BA0"/>
<path d="M165.785 271.499C165.785 280.939 165.895 290.379 165.755 299.809C165.265 332.739 145.785 360.579 115.555 371.959C102.405 376.909 88.7645 377.209 75.0545 376.659C37.3545 375.129 7.40455 349.969 1.64455 312.699C-0.885453 296.349 0.044547 279.299 0.884547 262.649C1.42455 252.079 8.81455 245.259 18.8945 241.839C20.5845 241.269 22.3445 240.929 24.4045 240.399C24.4045 230.399 24.1945 220.519 24.4445 210.649C25.3045 175.569 59.3045 148.579 93.6945 155.549C122.055 161.289 141.305 184.659 141.485 213.609C141.535 222.559 141.495 231.519 141.495 240.339C159.205 244.999 165.775 253.549 165.785 271.499ZM114.645 204.829C111.925 189.089 96.9045 179.019 80.9645 180.259C63.9045 181.589 51.3045 193.169 50.1645 209.549C49.4745 219.529 50.0345 229.589 50.0345 240.169C71.8446 240.169 93.6945 240.169 116.575 240.169C116.025 228.339 116.635 216.359 114.645 204.829ZM71.9645 310.299C74.7445 312.389 75.6745 314.799 75.5045 318.099C75.3245 321.579 75.3745 325.089 75.5145 328.579C75.7045 333.249 78.5745 336.009 82.9645 335.989C87.3445 335.969 90.1145 333.199 90.3445 328.499C90.4445 326.529 90.4945 324.539 90.3545 322.579C89.9845 317.129 90.6845 312.619 95.4445 308.539C100.935 303.829 100.805 294.809 96.5645 288.399C92.5645 282.359 85.2445 279.749 78.1745 281.849C70.9545 283.999 66.3145 290.489 66.3845 298.359C66.3745 303.229 68.1345 307.409 71.9645 310.299Z" fill="#047BA0"/>
<defs>
<linearGradient id="paint0_linear_89_1204" x1="73.651" y1="70.9846" x2="385.915" y2="70.9846" gradientUnits="userSpaceOnUse">
<stop stop-color="#4790FF"/>
<stop offset="1" stop-color="#3ECAD3"/>
</linearGradient>
<linearGradient id="paint1_linear_89_1204" x1="73.7145" y1="163.831" x2="386.059" y2="163.831" gradientUnits="userSpaceOnUse">
<stop stop-color="#4790FF"/>
<stop offset="1" stop-color="#3ECAD3"/>
</linearGradient>
<linearGradient id="paint2_linear_89_1204" x1="156.19" y1="242.908" x2="386.022" y2="242.908" gradientUnits="userSpaceOnUse">
<stop stop-color="#4790FF"/>
<stop offset="1" stop-color="#3ECAD3"/>
</linearGradient>
<linearGradient id="paint3_linear_89_1204" x1="151.68" y1="320.152" x2="386.011" y2="320.152" gradientUnits="userSpaceOnUse">
<stop stop-color="#4790FF"/>
<stop offset="1" stop-color="#3ECAD3"/>
</linearGradient>
</defs>
</svg>
