<svg width="276" height="268" viewBox="0 0 276 268" fill="none" xmlns="http://www.w3.org/2000/svg">
<path d="M113.786 206.713C114.876 206.803 115.896 207.272 116.666 208.042L128.946 220.312L144.136 235.493L144.906 236.253L147.786 239.743C149.006 241.213 149.886 242.933 150.396 244.773C152.146 251.143 151.516 257.173 148.666 262.323C151.426 263.682 154.266 265.043 157.186 266.393C159.996 267.713 163.266 267.713 166.076 266.393C278.136 214.403 275.376 157.512 275.376 157.512V38.5725C275.476 32.6225 265.166 30.1625 265.166 30.1625L164.616 0.4425C162.676 -0.1475 160.606 -0.1475 158.666 0.4425L58.0958 30.1725C58.0958 30.1725 47.8059 32.6325 47.8959 38.5825V153.732C51.0459 156.872 54.1659 160.013 57.2359 163.103C60.2159 166.103 63.2958 169.212 66.3358 172.232C66.4658 172.333 66.7659 172.533 66.9958 172.693C67.0758 172.753 67.1658 172.803 67.2458 172.863C73.2558 166.872 79.4459 160.713 85.8659 154.353C85.8859 154.333 85.9058 154.312 85.9258 154.292C85.9258 154.283 85.9258 154.283 85.9258 154.283C84.1659 145.173 86.6959 135.673 92.8659 128.213C99.1959 120.553 108.346 116.153 117.986 116.153C118.746 116.153 119.536 116.183 120.296 116.233L136.346 117.413L124.956 128.783C123.686 130.053 122.466 131.283 121.256 132.503C118.656 135.113 116.176 137.602 113.646 140.062C114.156 141.542 114.616 143.003 115.076 144.432C115.746 146.512 116.376 148.482 117.086 150.342C119.246 151.173 121.506 151.902 123.896 152.673C125.026 153.042 126.196 153.413 127.376 153.803C129.706 151.413 132.076 149.062 134.386 146.783L136.416 144.762C136.986 144.202 137.546 143.702 138.076 143.232C138.286 143.042 138.506 142.842 138.736 142.643L148.916 133.432L150.936 147.012C152.836 159.723 144.626 173.553 131.816 179.202C127.536 181.083 123.146 182.033 118.736 182.033C116.896 182.033 115.026 181.863 113.166 181.523C109.456 185.243 105.766 188.962 102.076 192.652L102.926 193.482C103.806 194.342 104.276 195.543 104.266 196.773C104.246 199.883 104.526 205.953 113.786 206.713Z" fill="url(#paint0_linear_85_3025)"/>
<path d="M89.1561 233.093C91.1861 229.133 91.0061 225.943 88.3661 223.113C85.6261 220.173 82.4661 219.893 77.3661 222.123C76.0761 220.913 74.7861 219.713 73.7261 218.723C81.1261 211.323 88.3761 204.063 95.7261 196.713C96.6961 197.663 97.9561 198.903 99.2661 200.193C97.0061 204.203 96.7261 208.003 100.146 211.333C102.866 213.983 106.306 214.083 110.226 212.003C120.136 221.903 129.976 231.733 139.706 241.453C132.706 248.383 125.476 255.543 118.526 262.433C109.036 252.953 99.2061 243.143 89.1561 233.093ZM127.226 247.523C118.786 239.053 110.026 230.183 101.946 222.073C100.916 222.853 99.9961 224.203 99.0961 224.873C107.716 233.503 116.106 241.903 124.486 250.293C125.346 249.433 126.386 248.383 127.226 247.523Z" fill="white"/>
<path d="M63.736 179.393C61.116 181.963 59.006 184.033 56.746 186.253C56.056 185.603 55.296 184.933 54.586 184.223C44.586 174.233 34.466 164.353 24.656 154.173C21.256 150.643 17.606 148.173 12.756 147.583C10.646 147.323 9.30598 146.263 8.29598 144.333C6.03598 140.033 3.52598 135.873 1.12598 131.683C3.66598 129.163 6.10598 126.743 8.73598 124.133C13.406 126.813 18.206 129.493 22.916 132.323C23.586 132.723 24.126 133.783 24.226 134.593C24.966 140.583 28.226 144.903 32.516 148.983C42.266 158.293 51.646 167.983 61.196 177.493C61.916 178.203 62.836 178.723 63.736 179.393Z" fill="white"/>
<path d="M143.306 246.713C145.036 253.043 143.716 258.593 138.816 263.043C134.386 267.063 129.176 267.803 123.696 266.283C130.256 259.733 136.706 253.293 143.306 246.713Z" fill="white"/>
<path d="M45.4059 224.723C44.6659 223.903 43.6059 222.733 42.6759 221.703C61.2959 203.083 79.9659 184.403 98.9359 165.423C99.9359 166.433 100.986 167.483 101.806 168.313C82.9459 187.183 64.2159 205.913 45.4059 224.723ZM143.686 148.093C142.926 148.783 142.236 149.363 141.606 149.983C138.216 153.353 134.796 156.703 131.476 160.143C130.066 161.603 128.656 162.043 126.706 161.343C122.386 159.823 117.946 158.593 113.706 156.903C112.366 156.373 110.996 154.893 110.456 153.523C108.836 149.443 107.726 145.173 106.196 141.043C105.396 138.873 105.826 137.373 107.466 135.803C111.506 131.923 115.416 127.913 119.766 123.573C103.636 122.393 90.1959 137.503 93.1559 152.883C93.6959 155.693 93.0859 157.563 91.0459 159.573C73.0159 177.453 55.0359 195.403 37.1759 213.463C34.8259 215.843 32.6959 216.633 29.3259 216.083C14.9159 213.733 1.59594 224.493 0.115937 239.373C-1.29406 253.643 10.3459 266.883 24.7359 267.353C41.4659 267.903 54.0559 253.523 51.2159 236.943C50.8059 234.543 51.3259 232.953 53.0459 231.243C71.5959 212.813 90.0859 194.313 108.516 175.773C110.086 174.183 111.636 173.683 113.766 174.133C118.966 175.233 124.016 174.583 128.866 172.453C138.516 168.223 145.096 157.533 143.686 148.093ZM25.8059 252.983C19.4959 252.983 14.3859 247.873 14.3859 241.563C14.3859 235.253 19.4959 230.143 25.8059 230.143C32.1159 230.143 37.2259 235.253 37.2259 241.563C37.2259 247.873 32.1159 252.983 25.8059 252.983Z" fill="white"/>
<defs>
<linearGradient id="paint0_linear_85_3025" x1="47.8934" y1="133.694" x2="275.392" y2="133.694" gradientUnits="userSpaceOnUse">
<stop stop-color="#4790FF"/>
<stop offset="1" stop-color="#3ECAD3"/>
</linearGradient>
</defs>
</svg>
