<svg width="462" height="356" viewBox="0 0 462 356" fill="none" xmlns="http://www.w3.org/2000/svg">
<path d="M278.39 355.02C276.83 355.02 275.56 353.38 275.56 351.36C275.56 349.34 276.83 347.7 278.39 347.7H458.36C459.92 347.7 461.19 349.34 461.19 351.36C461.19 353.38 459.92 355.02 458.36 355.02H278.39Z" fill="#16364D"/>
<path d="M421.72 247.99H0V0H421.72V247.99Z" fill="white"/>
<path d="M312.11 119.4C308.73 119.39 305.99 122.13 305.98 125.51C305.97 128.89 308.71 131.63 312.08 131.64H370.51C373.89 131.64 376.63 128.91 376.63 125.53C376.63 122.15 373.9 119.41 370.52 119.41H370.51H312.11V119.4Z" fill="#E4E4E4"/>
<path d="M312.11 45.3604C308.73 45.3504 305.99 48.0904 305.98 51.4704C305.97 54.8504 308.71 57.5904 312.08 57.6004H370.51C373.89 57.6004 376.63 54.8704 376.63 51.4904C376.63 48.1104 373.9 45.3704 370.52 45.3704H370.51H312.11V45.3604Z" fill="#E4E4E4"/>
<path d="M324.42 62.3902C330.479 62.3902 335.39 57.4788 335.39 51.4202C335.39 45.3616 330.479 40.4502 324.42 40.4502C318.361 40.4502 313.45 45.3616 313.45 51.4202C313.45 57.4788 318.361 62.3902 324.42 62.3902Z" fill="#CACACA"/>
<path d="M312.11 193.5C308.73 193.49 305.99 196.23 305.98 199.61C305.97 202.99 308.71 205.73 312.08 205.74H370.51C373.89 205.74 376.63 203.01 376.63 199.63C376.63 196.25 373.9 193.51 370.52 193.51H370.51H312.11V193.5Z" fill="#E4E4E4"/>
<path d="M324.42 210.53C330.479 210.53 335.39 205.618 335.39 199.56C335.39 193.501 330.479 188.59 324.42 188.59C318.361 188.59 313.45 193.501 313.45 199.56C313.45 205.618 318.361 210.53 324.42 210.53Z" fill="#CACACA"/>
<path d="M101.29 175.92C99.4101 175.92 97.8901 177.44 97.8901 179.32C97.8901 181.2 99.4101 182.72 101.29 182.72H219.19C221.07 182.72 222.59 181.19 222.59 179.31C222.59 177.44 221.07 175.92 219.19 175.91H101.29V175.92Z" fill="#D3D3D3"/>
<path d="M101.29 196.33C99.4102 196.33 97.8902 197.85 97.8802 199.72C97.8702 201.59 99.4002 203.12 101.27 203.13H219.27C221.15 203.13 222.67 201.61 222.67 199.73C222.67 197.85 221.15 196.33 219.27 196.33H101.29Z" fill="#D3D3D3"/>
<path d="M101.29 216.45C99.4102 216.44 97.8802 217.96 97.8802 219.84C97.8702 221.72 99.3902 223.25 101.27 223.25H101.28H127.83C129.71 223.25 131.23 221.73 131.24 219.85C131.24 217.97 129.72 216.45 127.84 216.44H127.83H101.29V216.45Z" fill="#D3D3D3"/>
<path d="M59.02 209.26C59.02 205.79 61.83 202.98 65.3 202.98C68.77 202.98 71.59 205.79 71.59 209.26C71.59 212.73 68.78 215.55 65.3 215.55C61.83 215.55 59.02 212.73 59.02 209.26Z" fill="#6C63FF"/>
<path d="M83.83 204.03V212.94C83.83 217.44 80.18 221.08 75.69 221.08H55.08C51.7 221.08 48.67 218.99 47.47 215.82C48.88 216.9 50.61 217.48 52.38 217.48H72.99C77.49 217.48 81.13 213.83 81.13 209.34V200.43C81.13 199.44 80.95 198.46 80.59 197.54C82.63 199.07 83.83 201.47 83.83 204.03Z" fill="#6C63FF"/>
<path d="M71.59 209.26C71.59 212.73 68.78 215.55 65.3 215.55C61.83 215.55 59.02 212.74 59.02 209.26C59.02 205.79 61.83 202.98 65.3 202.98C68.77 202.98 71.59 205.79 71.59 209.26Z" fill="#3F3D56"/>
<path d="M65.3001 212.16C66.9018 212.16 68.2001 210.862 68.2001 209.26C68.2001 207.659 66.9018 206.36 65.3001 206.36C63.6985 206.36 62.4001 207.659 62.4001 209.26C62.4001 210.862 63.6985 212.16 65.3001 212.16Z" fill="#D3D3D3"/>
<path d="M78.33 196.3H52.39C48.75 196.94 45.99 200.12 45.98 203.94V214.59C45.98 218.88 49.46 222.35 53.75 222.35H76.97C81.26 222.35 84.73 218.87 84.73 214.59V203.94C84.73 200.12 81.97 196.94 78.33 196.3ZM65.3 202.98C68.77 202.98 71.59 205.79 71.59 209.26C71.59 212.73 68.78 215.55 65.3 215.55C61.83 215.55 59.02 212.74 59.02 209.26C59.02 205.79 61.83 202.98 65.3 202.98ZM83.83 212.93C83.83 217.43 80.18 221.07 75.69 221.07H55.08C51.7 221.07 48.67 218.98 47.47 215.81C48.88 216.89 50.61 217.47 52.38 217.47H72.99C77.49 217.47 81.13 213.82 81.13 209.33V200.42C81.13 199.43 80.95 198.45 80.59 197.53C82.63 199.06 83.83 201.47 83.83 204.02V212.93Z" fill="#D3D3D3"/>
<path d="M83.83 204.03V212.94C83.83 217.44 80.18 221.08 75.69 221.08H55.08C51.7 221.08 48.67 218.99 47.47 215.82C48.88 216.9 50.61 217.48 52.38 217.48H72.99C77.49 217.48 81.13 213.83 81.13 209.34V200.43C81.13 199.44 80.95 198.46 80.59 197.54C82.63 199.07 83.83 201.47 83.83 204.03Z" fill="#3F3D56"/>
<path d="M77.81 186.74V193.85H75.47V189.08C75.47 187.89 75.24 186.75 74.81 185.69C73.62 182.71 70.89 180.34 67.44 179.28C66.17 178.89 64.81 178.68 63.38 178.68C60.55 178.66 57.79 179.55 55.49 181.21C56.14 180.32 56.94 179.53 57.86 178.84C59.97 177.28 62.72 176.33 65.71 176.33C70.5 176.33 74.65 178.75 76.61 182.23C76.61 182.23 76.61 182.24 76.62 182.25C77.39 183.61 77.81 185.14 77.81 186.74Z" fill="#3F3D56"/>
<path d="M78.51 188.03V195.39H78.42C77.95 195.31 77.47 195.27 76.97 195.27H53.76C53.27 195.27 52.78 195.31 52.31 195.39H52.22V188.03C52.22 184.23 54.45 180.87 57.86 178.85C56.94 179.53 56.14 180.33 55.49 181.22C57.78 179.55 60.55 178.66 63.38 178.69C64.81 178.69 66.17 178.9 67.44 179.29C66.77 179.16 66.08 179.09 65.37 179.09C60.05 179.09 55.73 182.82 55.73 187.41V190.7C55.73 192.05 56.82 193.14 58.17 193.14H72.57C73.92 193.14 75.01 192.05 75.02 190.7V187.41C75.02 186.82 74.95 186.25 74.82 185.7C75.25 186.76 75.48 187.9 75.48 189.09V193.86H77.82V186.75C77.82 185.14 77.4 183.62 76.64 182.26C77.82 183.94 78.51 185.92 78.51 188.03Z" fill="#D3D3D3"/>
<path d="M79.4201 195.62V188.03C79.4201 181.36 73.1101 175.93 65.3701 175.93C57.6301 175.93 51.3201 181.36 51.3201 188.03V195.62C47.7201 196.68 45.1001 200 45.0901 203.94V214.59C45.1001 219.37 48.9801 223.26 53.7701 223.26H76.9901C81.7701 223.26 85.6601 219.37 85.6601 214.59V203.94C85.6401 200 83.0101 196.68 79.4201 195.62ZM52.2201 195.39V188.03C52.2201 184.23 54.4501 180.87 57.8601 178.85C59.9901 177.59 62.5701 176.84 65.3601 176.84C70.1201 176.84 74.3001 179.01 76.6101 182.24C76.6101 182.24 76.6101 182.25 76.6201 182.26C77.8101 183.94 78.5001 185.92 78.5001 188.03V195.39H78.4101C77.9401 195.31 77.4601 195.27 76.9601 195.27H53.7601C53.2701 195.27 52.7801 195.31 52.3101 195.39H52.2201ZM84.7301 214.58C84.7301 218.87 81.2501 222.34 76.9701 222.34H53.7601C49.4701 222.34 46.0001 218.86 45.9901 214.58V203.93C45.9901 200.11 48.7501 196.93 52.4001 196.29H78.3401C81.9801 196.93 84.7401 200.11 84.7501 203.93V214.58H84.7301Z" fill="#A6A6A6"/>
<path d="M74.8 185.69C74.02 182.5 71.12 179.97 67.43 179.28C66.76 179.15 66.07 179.08 65.36 179.08C60.04 179.08 55.72 182.81 55.72 187.4V190.69C55.72 192.04 56.81 193.13 58.16 193.13H72.56C73.91 193.13 75 192.04 75.01 190.69V187.4C75.01 186.82 74.93 186.24 74.8 185.69ZM74.1 190.7C74.1 191.55 73.41 192.23 72.56 192.23H58.16C57.31 192.23 56.63 191.54 56.63 190.7V187.41C56.63 183.32 60.55 180 65.36 180C70.17 180 74.09 183.32 74.09 187.41V190.7H74.1Z" fill="#A6A6A6"/>
<path d="M101.29 101.85C99.4101 101.85 97.8901 103.37 97.8901 105.25C97.8901 107.13 99.4101 108.65 101.29 108.65H219.19C221.07 108.65 222.59 107.12 222.59 105.24C222.59 103.37 221.07 101.85 219.19 101.84H101.29V101.85Z" fill="url(#paint0_linear_89_1488)"/>
<path d="M101.29 122.26C99.4102 122.26 97.8902 123.78 97.8802 125.65C97.8702 127.52 99.4002 129.05 101.27 129.06H219.27C221.15 129.06 222.67 127.54 222.67 125.66C222.67 123.78 221.15 122.26 219.27 122.26H101.29Z" fill="url(#paint1_linear_89_1488)"/>
<path d="M101.29 142.38C99.4102 142.37 97.8802 143.89 97.8802 145.77C97.8702 147.65 99.3902 149.18 101.27 149.18H101.28H127.83C129.71 149.18 131.23 147.66 131.24 145.78C131.24 143.9 129.72 142.38 127.84 142.37H127.83H101.29V142.38Z" fill="url(#paint2_linear_89_1488)"/>
<path d="M71.59 135.19C71.59 138.66 68.78 141.48 65.3 141.48C61.83 141.48 59.02 138.67 59.02 135.19C59.02 131.72 61.83 128.91 65.3 128.91C68.77 128.91 71.59 131.72 71.59 135.19Z" fill="#3F3D56"/>
<path d="M65.2999 138.09C66.9015 138.09 68.1999 136.792 68.1999 135.19C68.1999 133.588 66.9015 132.29 65.2999 132.29C63.6983 132.29 62.3999 133.588 62.3999 135.19C62.3999 136.792 63.6983 138.09 65.2999 138.09Z" fill="url(#paint3_linear_89_1488)"/>
<path d="M78.33 122.23H52.39C48.75 122.87 45.99 126.05 45.98 129.87V140.52C45.98 144.81 49.46 148.28 53.75 148.28H76.97C81.26 148.28 84.73 144.8 84.73 140.52V129.87C84.73 126.05 81.97 122.87 78.33 122.23ZM65.3 128.91C68.77 128.91 71.59 131.72 71.59 135.19C71.59 138.66 68.78 141.48 65.3 141.48C61.83 141.48 59.02 138.67 59.02 135.19C59.02 131.72 61.83 128.91 65.3 128.91ZM83.83 138.86C83.83 143.36 80.18 147 75.69 147H55.08C51.7 147 48.67 144.91 47.47 141.74C48.88 142.82 50.61 143.4 52.38 143.4H72.99C77.49 143.4 81.13 139.75 81.13 135.26V126.35C81.13 125.36 80.95 124.38 80.59 123.46C82.63 124.99 83.83 127.4 83.83 129.95V138.86Z" fill="url(#paint4_linear_89_1488)"/>
<path d="M78.51 113.96V121.32H78.42C77.95 121.24 77.47 121.2 76.97 121.2H53.76C53.27 121.2 52.78 121.24 52.31 121.32H52.22V113.96C52.22 110.16 54.45 106.8 57.86 104.78C56.94 105.46 56.14 106.26 55.49 107.15C57.78 105.48 60.55 104.59 63.38 104.62C64.81 104.62 66.17 104.83 67.44 105.22C66.77 105.09 66.08 105.02 65.37 105.02C60.05 105.02 55.73 108.75 55.73 113.34V116.63C55.73 117.98 56.82 119.07 58.17 119.07H72.57C73.92 119.07 75.01 117.98 75.02 116.63V113.34C75.02 112.75 74.95 112.18 74.82 111.63C75.25 112.69 75.48 113.83 75.48 115.02V119.79H77.82V112.68C77.82 111.07 77.4 109.55 76.64 108.19C77.82 109.87 78.51 111.85 78.51 113.96Z" fill="url(#paint5_linear_89_1488)"/>
<path d="M83.83 129.96V138.87C83.83 143.37 80.18 147.01 75.69 147.01H55.08C51.7 147.01 48.67 144.92 47.47 141.75C48.88 142.83 50.61 143.41 52.38 143.41H72.99C77.49 143.41 81.13 139.76 81.13 135.27V126.36C81.13 125.37 80.95 124.39 80.59 123.47C82.63 125 83.83 127.4 83.83 129.96Z" fill="#6C63FF"/>
<path d="M83.83 129.96V138.87C83.83 143.37 80.18 147.01 75.69 147.01H55.08C51.7 147.01 48.67 144.92 47.47 141.75C48.88 142.83 50.61 143.41 52.38 143.41H72.99C77.49 143.41 81.13 139.76 81.13 135.27V126.36C81.13 125.37 80.95 124.39 80.59 123.47C82.63 125 83.83 127.4 83.83 129.96Z" fill="#3F3D56"/>
<path d="M77.81 112.67V119.78H75.47V115.01C75.47 113.82 75.24 112.68 74.81 111.62C73.62 108.64 70.89 106.27 67.44 105.21C66.17 104.82 64.81 104.61 63.38 104.61C60.55 104.59 57.79 105.48 55.49 107.14C56.14 106.25 56.94 105.46 57.86 104.77C59.97 103.21 62.72 102.26 65.71 102.26C70.5 102.26 74.65 104.68 76.61 108.16C76.61 108.16 76.61 108.17 76.62 108.18C77.39 109.54 77.81 111.07 77.81 112.67Z" fill="#3F3D56"/>
<path d="M79.4201 121.55V113.96C79.4201 107.29 73.1101 101.86 65.3701 101.86C57.6301 101.86 51.3201 107.29 51.3201 113.96V121.55C47.7201 122.61 45.1001 125.93 45.0901 129.87V140.52C45.1001 145.3 48.9801 149.19 53.7701 149.19H76.9901C81.7701 149.19 85.6601 145.3 85.6601 140.52V129.87C85.6401 125.93 83.0101 122.61 79.4201 121.55ZM52.2201 121.32V113.96C52.2201 110.16 54.4501 106.8 57.8601 104.78C59.9901 103.52 62.5701 102.77 65.3601 102.77C70.1201 102.77 74.3001 104.94 76.6101 108.17C76.6101 108.17 76.6101 108.18 76.6201 108.19C77.8101 109.87 78.5001 111.85 78.5001 113.96V121.32H78.4101C77.9401 121.24 77.4601 121.2 76.9601 121.2H53.7601C53.2701 121.2 52.7801 121.24 52.3101 121.32H52.2201ZM84.7301 140.51C84.7301 144.8 81.2501 148.27 76.9701 148.27H53.7601C49.4701 148.27 46.0001 144.79 45.9901 140.51V129.86C45.9901 126.04 48.7501 122.86 52.4001 122.22H78.3401C81.9801 122.86 84.7401 126.04 84.7501 129.86V140.51H84.7301Z" fill="#4079FF"/>
<path d="M74.8 111.62C74.02 108.43 71.12 105.9 67.43 105.21C66.76 105.08 66.07 105.01 65.36 105.01C60.04 105.01 55.72 108.74 55.72 113.33V116.62C55.72 117.97 56.81 119.06 58.16 119.06H72.56C73.91 119.06 75 117.97 75.01 116.62V113.33C75.01 112.75 74.93 112.17 74.8 111.62ZM74.1 116.63C74.1 117.48 73.41 118.16 72.56 118.16H58.16C57.31 118.16 56.63 117.47 56.63 116.63V113.34C56.63 109.25 60.55 105.93 65.36 105.93C70.17 105.93 74.09 109.25 74.09 113.34V116.63H74.1Z" fill="#4079FF"/>
<path d="M101.29 27.78C99.4101 27.78 97.8901 29.3 97.8901 31.18C97.8901 33.06 99.4101 34.58 101.29 34.58H219.19C221.07 34.58 222.59 33.05 222.59 31.17C222.59 29.3 221.07 27.78 219.19 27.77H101.29V27.78Z" fill="#D3D3D3"/>
<path d="M101.29 48.1899C99.4101 48.1899 97.8901 49.7099 97.8801 51.5799C97.8801 53.4599 99.4001 54.9799 101.27 54.9899H219.27C221.15 54.9899 222.67 53.4699 222.67 51.5899C222.67 49.7099 221.15 48.1899 219.27 48.1899H101.29Z" fill="#D3D3D3"/>
<path d="M101.29 68.3098C99.4102 68.2998 97.8802 69.8198 97.8802 71.6998C97.8702 73.5798 99.3902 75.1098 101.27 75.1098H101.28H127.83C129.71 75.1098 131.23 73.5898 131.24 71.7098C131.24 69.8298 129.72 68.3098 127.84 68.2998H127.83H101.29V68.3098Z" fill="#D3D3D3"/>
<path d="M59.02 61.1198C59.02 57.6498 61.83 54.8398 65.3 54.8398C68.77 54.8398 71.59 57.6498 71.59 61.1198C71.59 64.5898 68.78 67.4098 65.3 67.4098C61.83 67.4098 59.02 64.5898 59.02 61.1198Z" fill="#6C63FF"/>
<path d="M83.83 55.8899V64.7999C83.83 69.2999 80.18 72.9399 75.69 72.9399H55.08C51.7 72.9399 48.67 70.8499 47.47 67.6799C48.88 68.7599 50.61 69.3399 52.38 69.3399H72.99C77.49 69.3399 81.13 65.6899 81.13 61.1999V52.2899C81.13 51.2999 80.95 50.3199 80.59 49.3999C82.63 50.9299 83.83 53.3299 83.83 55.8899Z" fill="#6C63FF"/>
<path d="M71.59 61.1198C71.59 64.5898 68.78 67.4098 65.3 67.4098C61.83 67.4098 59.02 64.5998 59.02 61.1198C59.02 57.6498 61.83 54.8398 65.3 54.8398C68.77 54.8398 71.59 57.6498 71.59 61.1198Z" fill="#3F3D56"/>
<path d="M65.3001 64.0202C66.9018 64.0202 68.2001 62.7218 68.2001 61.1202C68.2001 59.5186 66.9018 58.2202 65.3001 58.2202C63.6985 58.2202 62.4001 59.5186 62.4001 61.1202C62.4001 62.7218 63.6985 64.0202 65.3001 64.0202Z" fill="#D3D3D3"/>
<path d="M78.33 48.1602H52.39C48.75 48.8002 45.99 51.9802 45.98 55.8002V66.4502C45.98 70.7402 49.46 74.2102 53.75 74.2102H76.97C81.26 74.2102 84.73 70.7302 84.73 66.4502V55.8002C84.73 51.9802 81.97 48.8002 78.33 48.1602ZM65.3 54.8402C68.77 54.8402 71.59 57.6502 71.59 61.1202C71.59 64.5902 68.78 67.4102 65.3 67.4102C61.83 67.4102 59.02 64.6002 59.02 61.1202C59.02 57.6502 61.83 54.8402 65.3 54.8402ZM83.83 64.7902C83.83 69.2902 80.18 72.9302 75.69 72.9302H55.08C51.7 72.9302 48.67 70.8402 47.47 67.6702C48.88 68.7502 50.61 69.3302 52.38 69.3302H72.99C77.49 69.3302 81.13 65.6802 81.13 61.1902V52.2802C81.13 51.2902 80.95 50.3102 80.59 49.3902C82.63 50.9202 83.83 53.3302 83.83 55.8802V64.7902Z" fill="#D3D3D3"/>
<path d="M83.83 55.8899V64.7999C83.83 69.2999 80.18 72.9399 75.69 72.9399H55.08C51.7 72.9399 48.67 70.8499 47.47 67.6799C48.88 68.7599 50.61 69.3399 52.38 69.3399H72.99C77.49 69.3399 81.13 65.6899 81.13 61.1999V52.2899C81.13 51.2999 80.95 50.3199 80.59 49.3999C82.63 50.9299 83.83 53.3299 83.83 55.8899Z" fill="#3F3D56"/>
<path d="M77.81 38.5999V45.7099H75.47V40.9399C75.47 39.7499 75.24 38.6099 74.81 37.5499C73.62 34.5699 70.89 32.1999 67.44 31.1399C66.17 30.7499 64.81 30.5399 63.38 30.5399C60.55 30.5199 57.79 31.4099 55.49 33.0699C56.14 32.1799 56.94 31.3899 57.86 30.6999C59.97 29.1399 62.72 28.1899 65.71 28.1899C70.5 28.1899 74.65 30.6099 76.61 34.0899C76.61 34.0899 76.61 34.0999 76.62 34.1099C77.39 35.4699 77.81 36.9999 77.81 38.5999Z" fill="#3F3D56"/>
<path d="M79.4201 47.48V39.89C79.4201 33.22 73.1101 27.79 65.3701 27.79C57.6301 27.79 51.3201 33.22 51.3201 39.89V47.48C47.7201 48.54 45.1001 51.86 45.0901 55.8V66.45C45.1001 71.23 48.9801 75.12 53.7701 75.12H76.9901C81.7701 75.12 85.6601 71.23 85.6601 66.45V55.8C85.6401 51.86 83.0101 48.54 79.4201 47.48ZM52.2201 47.25V39.89C52.2201 36.09 54.4501 32.73 57.8601 30.71C59.9901 29.45 62.5701 28.7 65.3601 28.7C70.1201 28.7 74.3001 30.87 76.6101 34.1C76.6101 34.1 76.6101 34.11 76.6201 34.12C77.8101 35.8 78.5001 37.78 78.5001 39.89V47.25H78.4101C77.9401 47.17 77.4601 47.13 76.9601 47.13H53.7601C53.2701 47.13 52.7801 47.17 52.3101 47.25H52.2201ZM84.7301 66.44C84.7301 70.73 81.2501 74.2 76.9701 74.2H53.7601C49.4701 74.2 46.0001 70.72 45.9901 66.44V55.8C45.9901 51.98 48.7501 48.8 52.4001 48.16H78.3401C81.9801 48.8 84.7401 51.98 84.7501 55.8V66.44H84.7301Z" fill="#A6A6A6"/>
<path d="M78.51 39.8901V47.2501H78.42C77.95 47.1701 77.47 47.1301 76.97 47.1301H53.76C53.27 47.1301 52.78 47.1701 52.31 47.2501H52.22V39.8901C52.22 36.0901 54.45 32.7301 57.86 30.7101C56.94 31.3901 56.14 32.1901 55.49 33.0801C57.78 31.4101 60.55 30.5201 63.38 30.5501C64.81 30.5501 66.17 30.7601 67.44 31.1501C66.77 31.0201 66.08 30.9501 65.37 30.9501C60.05 30.9501 55.73 34.6801 55.73 39.2701V42.5601C55.73 43.9101 56.82 45.0001 58.17 45.0001H72.57C73.92 45.0001 75.01 43.9101 75.02 42.5601V39.2701C75.02 38.6801 74.95 38.1101 74.82 37.5601C75.25 38.6201 75.48 39.7601 75.48 40.9501V45.7201H77.82V38.6C77.82 36.99 77.4 35.4701 76.64 34.1101C77.82 35.8001 78.51 37.7801 78.51 39.8901Z" fill="#D3D3D3"/>
<path d="M74.8 37.5499C74.02 34.3599 71.12 31.8299 67.43 31.1399C66.76 31.0099 66.07 30.9399 65.36 30.9399C60.04 30.9399 55.72 34.6699 55.72 39.2599V42.5499C55.72 43.8999 56.81 44.9899 58.16 44.9899H72.56C73.91 44.9899 75 43.8999 75.01 42.5499V39.2599C75.01 38.6799 74.93 38.0999 74.8 37.5499ZM74.1 42.5599C74.1 43.4099 73.41 44.0899 72.56 44.0899H58.16C57.31 44.0899 56.63 43.3999 56.63 42.5599V39.2699C56.63 35.1799 60.55 31.8599 65.36 31.8599C70.17 31.8599 74.09 35.1799 74.09 39.2699V42.5599H74.1Z" fill="#A6A6A6"/>
<path d="M421.72 247.99H0V0H421.72V247.99ZM5.65 242.25H416.07V5.74H5.65V242.25Z" fill="#D3D3D3"/>
<path d="M348.71 344.26H341.24L337.68 322.71H348.71V344.26Z" fill="#FFB6B6"/>
<path d="M350.62 351.5H326.52V351.2C326.52 346.02 330.72 341.82 335.9 341.82H350.62V351.5Z" fill="#292838"/>
<path d="M423.31 330.55L418.1 335.9L400.18 323.41L407.88 315.51L423.31 330.55Z" fill="#FFB6B6"/>
<path d="M429.83 334.24L413.02 351.5L412.8 351.29C409.09 347.68 409.01 341.74 412.62 338.03L422.89 327.49L429.83 334.24Z" fill="#292838"/>
<path d="M357.95 216.01H352.78C339.34 230.69 329.08 248 322.65 266.84L316.47 284.92L338.48 331L352.21 331.24L336.51 282.32L352.32 261.35L353.12 303.51L404.02 330.19L414.21 315.14L372.79 292.49L379.84 256.63C379.84 256.63 389.52 242.26 385.77 226.29L357.95 216.01Z" fill="#3F3D56"/>
<path d="M425.98 169.08L404.5 159.67L380.86 170.15C380.86 170.15 374.16 173.96 378.43 183.71L352.78 216.01C352.78 216.01 352.83 216.02 385.07 226.29L414.16 200.68C423.12 192.78 427.56 180.93 425.98 169.08Z" fill="#2F2E41"/>
<path d="M422.38 159.39C430.648 159.39 437.35 152.688 437.35 144.42C437.35 136.152 430.648 129.45 422.38 129.45C414.112 129.45 407.41 136.152 407.41 144.42C407.41 152.688 414.112 159.39 422.38 159.39Z" fill="#FFB6B6"/>
<path d="M343.35 128.17C342.89 131.5 345.22 134.57 348.54 135.03C348.89 135.08 349.25 135.1 349.61 135.08L355.44 147.7L363.97 146.03L355.49 128.32C355.13 124.96 352.12 122.53 348.76 122.88C345.96 123.19 343.72 125.37 343.35 128.17Z" fill="#FFB6B6"/>
<path d="M402.39 175.93L378.61 164.17L361.83 135.7L350.11 141.37L365.33 174.26L403.77 196.46L402.39 175.93Z" fill="#2F2E41"/>
<path d="M420.37 159.1C421.48 162.71 423.44 163.48 426.53 161.05C427.75 160.08 429.07 158.85 430.49 158.58C439.39 156.94 440.09 149.39 441.92 142.81C442.86 139.44 436.14 129.98 432.6 129.73C430.42 129.58 430.88 127.87 429.94 127.08C427.39 124.9 424.89 122.5 421.14 123.69C417.66 124.79 417.24 127.8 417.13 130.88C422.74 134.56 419.48 139.85 419.54 144.5C419.56 146.53 418.51 148.73 421.66 149.41C425.4 150.22 424.17 152.31 422.86 154.42C421.91 155.93 419.47 156.63 420.37 159.1Z" fill="black"/>
<path d="M358.56 136.49C364.619 136.49 369.53 131.578 369.53 125.52C369.53 119.461 364.619 114.55 358.56 114.55C352.502 114.55 347.59 119.461 347.59 125.52C347.59 131.578 352.502 136.49 358.56 136.49Z" fill="url(#paint6_linear_89_1488)"/>
<path d="M358.6 122.08C358.14 125.41 360.47 128.48 363.79 128.94C364.14 128.99 364.5 129.01 364.86 128.99L370.69 141.61L379.22 139.94L370.74 122.23C370.38 118.87 367.37 116.44 364.01 116.79C361.2 117.09 358.96 119.28 358.6 122.08Z" fill="#FFB6B6"/>
<path d="M417.63 169.83L393.85 158.07L377.07 129.6L365.35 135.27L380.57 168.17L419.01 190.36L417.63 169.83Z" fill="#2F2E41"/>
<defs>
<linearGradient id="paint0_linear_89_1488" x1="97.8854" y1="105.256" x2="222.578" y2="105.256" gradientUnits="userSpaceOnUse">
<stop stop-color="#4790FF"/>
<stop offset="1" stop-color="#3ECAD3"/>
</linearGradient>
<linearGradient id="paint1_linear_89_1488" x1="97.8783" y1="125.666" x2="222.672" y2="125.666" gradientUnits="userSpaceOnUse">
<stop stop-color="#4790FF"/>
<stop offset="1" stop-color="#3ECAD3"/>
</linearGradient>
<linearGradient id="paint2_linear_89_1488" x1="97.8741" y1="145.783" x2="131.233" y2="145.783" gradientUnits="userSpaceOnUse">
<stop stop-color="#4790FF"/>
<stop offset="1" stop-color="#3ECAD3"/>
</linearGradient>
<linearGradient id="paint3_linear_89_1488" x1="62.4008" y1="135.192" x2="68.2036" y2="135.192" gradientUnits="userSpaceOnUse">
<stop stop-color="#4790FF"/>
<stop offset="1" stop-color="#3ECAD3"/>
</linearGradient>
<linearGradient id="paint4_linear_89_1488" x1="45.9889" y1="135.253" x2="84.7349" y2="135.253" gradientUnits="userSpaceOnUse">
<stop stop-color="#4790FF"/>
<stop offset="1" stop-color="#3ECAD3"/>
</linearGradient>
<linearGradient id="paint5_linear_89_1488" x1="52.2173" y1="112.963" x2="78.511" y2="112.963" gradientUnits="userSpaceOnUse">
<stop stop-color="#4790FF"/>
<stop offset="1" stop-color="#3ECAD3"/>
</linearGradient>
<linearGradient id="paint6_linear_89_1488" x1="347.586" y1="125.52" x2="369.533" y2="125.52" gradientUnits="userSpaceOnUse">
<stop stop-color="#4790FF"/>
<stop offset="1" stop-color="#3ECAD3"/>
</linearGradient>
</defs>
</svg>
