<svg width="386" height="337" viewBox="0 0 386 337" fill="none" xmlns="http://www.w3.org/2000/svg">
<path d="M236.567 204.106C231.147 203.836 226.497 203.606 221.487 203.366C222.707 191.836 222.817 180.866 229.037 170.686C235.397 160.266 240.257 148.916 245.637 137.916C255.247 118.276 249.517 98.5164 231.777 89.7664C214.087 81.0364 195.077 88.4864 185.087 108.096C181.017 116.086 176.997 124.096 173.057 131.926C172.217 131.806 171.947 131.826 171.747 131.726C163.097 127.286 151.667 124.806 146.667 117.766C142.357 111.716 145.247 100.446 145.197 91.4864C145.097 74.2064 145.077 56.9264 145.187 39.6564C145.357 14.3264 159.637 0.0463826 184.807 0.0263826C238.397 -0.0136174 291.987 -0.00361741 345.567 0.0263826C370.777 0.0463826 385.137 14.4164 385.157 39.6164C385.197 81.1864 385.197 122.756 385.157 164.316C385.127 189.146 370.997 203.406 346.107 203.696C329.337 203.886 312.557 203.836 295.787 203.926C295.327 203.926 294.867 204.246 293.707 204.686C294.417 206.906 295.057 209.186 295.867 211.406C308.667 246.386 321.487 281.356 334.297 316.326C334.987 318.206 335.767 320.056 336.277 321.986C337.927 328.266 335.597 332.926 329.817 335.446C323.807 338.076 318.687 335.956 315.897 330.356C312.907 324.346 310.857 317.856 308.527 311.536C296.077 277.766 283.737 243.946 271.117 210.236C270.177 207.716 267.677 204.786 265.277 204.016C260.547 202.496 259.917 207.006 258.737 210.226C244.877 248.276 231.007 286.316 217.137 324.366C216.537 326.006 216.047 327.706 215.277 329.276C212.267 335.376 206.707 337.946 201.117 335.706C194.677 333.126 192.897 328.086 194.297 321.686C194.777 319.506 195.677 317.406 196.447 315.296C209.007 280.766 221.577 246.236 234.127 211.696C234.927 209.406 235.607 207.086 236.567 204.106ZM265.217 70.7564C284.487 70.7564 303.747 70.7964 323.017 70.7364C331.697 70.7064 336.947 66.3064 336.827 59.4164C336.717 52.7864 331.587 48.3264 323.437 48.3064C284.657 48.2264 245.867 48.2364 207.087 48.3064C198.807 48.3264 193.927 52.5864 193.817 59.3764C193.697 66.4864 198.617 70.7064 207.417 70.7364C226.687 70.8064 245.957 70.7564 265.217 70.7564ZM299.777 112.946C308.037 112.946 316.307 113.076 324.557 112.906C331.737 112.756 336.487 108.496 336.797 102.346C337.117 96.0164 332.177 90.7064 324.837 90.5964C308.317 90.3364 291.787 90.3264 275.267 90.6364C268.327 90.7664 263.627 95.9864 263.767 102.066C263.907 108.266 268.627 112.716 275.737 112.886C283.747 113.086 291.767 112.936 299.777 112.946ZM299.997 155.226C308.007 155.226 316.017 155.346 324.027 155.196C331.767 155.046 336.627 150.796 336.807 144.406C336.987 138.066 332.067 133.006 324.617 132.886C308.357 132.636 292.077 132.626 275.817 132.906C268.407 133.026 263.497 138.236 263.777 144.566C264.057 150.706 268.757 154.996 275.967 155.176C283.977 155.366 291.987 155.206 299.997 155.226Z" fill="#015F7E"/>
<path d="M224.297 130.496C218.367 142.356 212.377 154.176 206.497 166.056C202.687 173.776 199.497 181.076 199.817 190.606C200.487 210.756 178.557 225.166 159.467 217.846C148.297 213.566 137.797 207.546 126.987 202.336C124.817 201.296 122.587 200.376 119.437 198.986V208.906C119.437 246.226 119.457 283.546 119.427 320.866C119.417 333.076 115.957 336.576 103.907 336.586C93.8567 336.606 83.8067 336.616 73.7567 336.616V257.166H69.6567V336.616C59.5367 336.616 49.4067 336.606 39.2767 336.576C28.3267 336.556 24.5167 332.646 24.4867 321.526C24.4367 304.246 24.3367 286.966 24.5567 269.686C24.5967 267.036 24.3467 264.966 23.3067 263.216C37.1767 220.676 35.6267 179.586 35.6267 179.586H31.8267C33.3167 212.906 26.1467 242.996 20.7167 260.506C20.1267 260.096 19.4567 259.696 18.6867 259.306C8.20671 254.046 1.5267 244.756 0.906705 233.116C0.0167049 216.646 -0.713295 199.906 1.2267 183.606C5.2267 149.976 28.6267 127.296 64.9867 120.846C49.3567 116.756 37.6667 109.726 30.1067 97.0763C22.6367 84.5663 20.9167 71.2563 25.0867 57.3463C31.6167 35.5263 52.6167 21.1963 75.5467 22.6563C97.4267 24.0463 116.417 40.9963 120.367 62.6563C124.887 87.4363 111.987 108.046 84.7367 120.206C104.417 121.296 120.387 131.716 137.187 139.856C152.247 147.156 167.187 154.716 182.917 162.526C190.097 148.256 197.127 134.276 204.157 120.286C209.377 109.876 214.817 106.616 221.617 109.796C228.787 113.156 229.657 119.776 224.297 130.496Z" fill="url(#paint0_linear_89_1410)"/>
<defs>
<linearGradient id="paint0_linear_89_1410" x1="-0.00329517" y1="179.586" x2="182.775" y2="179.586" gradientUnits="userSpaceOnUse">
<stop stop-color="#4790FF"/>
<stop offset="1" stop-color="#3ECAD3"/>
</linearGradient>
</defs>
</svg>
