<svg width="40" height="47" viewBox="0 0 40 47" fill="none" xmlns="http://www.w3.org/2000/svg">
<path d="M37.3893 25.994C36.9277 24.2984 36.4216 22.6205 36.0399 20.916C35.818 19.9217 35.4451 19.9749 34.7083 20.4011C32.9327 21.4397 31.1217 22.4074 29.3372 23.4106C29.1597 23.5082 28.8756 23.5349 28.8845 23.8278C29.0532 24.0498 29.3106 24.0232 29.5237 24.0764C31.7697 24.6535 31.8052 24.6801 30.3227 26.4645C28.8223 28.2756 27.2687 30.0422 25.289 31.365C24.9162 30.0955 24.4989 28.8349 24.1793 27.5565C23.9485 26.6154 23.4957 25.9674 22.5636 25.6034C21.8267 25.3104 21.1698 24.8488 20.4507 24.5025C20.0334 24.2984 19.776 24.0675 19.7316 23.5526C19.6428 22.5317 19.5718 21.493 19.3143 20.5165C19.1013 19.6908 19.3587 19.2381 19.9802 18.7676C22.0842 17.1607 24.1793 15.5361 26.2478 13.8848C27.2954 13.0503 27.4463 12.1981 26.7894 11.4257C26.0525 10.5468 25.2624 10.5468 24.1971 11.4168C22.3949 12.8728 20.5927 14.3287 18.7817 15.7758C18.0715 16.344 17.379 16.4949 16.3669 16.3351C18.1958 14.7193 18.4532 12.6952 17.0061 11.257C15.6834 9.94315 13.4462 10.0231 12.3098 11.408C10.916 13.1125 11.3954 15.0301 13.6948 16.6636C12.3365 16.7079 11.067 16.8677 10.2147 18.0218C8.54571 20.2856 6.86782 22.5495 5.23433 24.831C4.68391 25.5945 4.85259 26.429 5.53617 26.935C6.22863 27.4499 7.15191 27.3079 7.73784 26.5799C8.21723 25.9851 8.64336 25.3548 9.105 24.7511C10.0372 23.5349 10.9693 22.3275 12.079 20.8805C12.2122 22.363 12.3454 23.5349 12.4253 24.7156C12.6472 28.0891 11.6707 31.3295 11.3511 34.6497C11.2268 35.9015 10.6142 37.171 11.3422 38.4316C9.45123 39.1152 7.48926 39.2395 5.50066 39.1951C5.50066 39.1951 5.44739 42.4887 2.5 46.1108C3.68961 46.1019 4.90585 46.2351 6.07771 46.0664C13.8723 44.9567 20.6815 41.7252 26.4698 36.372C29.5592 33.5223 32.1604 30.273 34.362 26.7042C34.8503 25.9141 35.2942 25.7454 36.0665 26.2248C36.4749 26.4823 36.9543 26.6243 37.3982 26.8196C37.5935 26.4911 37.4603 26.2514 37.3893 25.994ZM14.8222 37.3929C15.3726 34.1082 15.9319 30.8146 16.4824 27.5298C16.5623 27.0416 16.7576 26.8019 17.2547 27.1481C17.308 27.1836 17.3701 27.2191 17.4323 27.2369C19.9802 28.0181 21.587 29.6338 22.022 32.3327C22.0842 32.741 22.2795 33.1583 22.5725 33.4868C20.1844 35.1824 17.6009 36.4874 14.8222 37.3929Z" fill="#16364D"/>
<path d="M32.5334 0C32.9684 0.887768 33.3324 1.55359 33.6253 2.24605C33.8739 2.84973 34.2113 3.17821 34.9215 3.24923C35.6317 3.32025 36.3774 3.31137 37.1054 3.68424C36.7237 4.40333 36.0845 4.88272 35.534 5.42426C35.0902 5.85927 34.8327 6.26764 35.0813 6.89795C35.1701 7.10214 35.1345 7.35959 35.1701 7.58154C35.2588 8.14971 35.6672 8.90431 35.25 9.22391C34.9037 9.49024 34.229 8.90431 33.794 8.58471C32.9329 7.94552 32.1694 7.90113 31.2994 8.56696C30.8466 8.91319 30.3317 9.25054 29.6304 9.32156C29.7547 8.44267 29.7991 7.61705 30.0121 6.83581C30.1808 6.21437 29.9855 5.85039 29.5594 5.45089C28.9912 4.91823 28.4674 4.33231 27.8904 3.7375C28.6627 3.31137 29.4173 3.33801 30.1187 3.25811C30.8644 3.17821 31.2195 2.8231 31.4769 2.18391C31.761 1.51808 32.1073 0.87889 32.5334 0Z" fill="#16364D"/>
</svg>
