<svg width="45" height="37" viewBox="0 0 45 37" fill="none" xmlns="http://www.w3.org/2000/svg">
<path d="M26.5377 33.7551C26.0935 33.7551 25.7806 33.7551 25.4677 33.7551C17.998 33.7551 10.5283 33.7551 3.05855 33.7551C0.868102 33.7551 0 32.897 0 30.747C0 21.4906 0 12.2342 0 2.97779C0 0.847914 0.847914 0 2.97779 0C16.0094 0 29.0511 0 42.0828 0C44.142 0 45 0.868103 45 2.93742C45 12.2241 45 21.5108 45 30.7974C45 32.8466 44.1117 33.7551 42.0727 33.7551C39.6198 33.7551 37.1568 33.7551 34.5222 33.7551C34.8452 32.2308 33.9065 30.6158 35.4307 29.1622C36.1272 29.9193 36.7429 30.6258 37.4092 31.282C37.8028 31.6656 38.1157 32.3318 38.8425 32.039C39.6198 31.7261 39.3573 30.9993 39.3674 30.424C39.3876 27.2847 39.3573 24.1555 39.3977 21.0162C39.4078 20.3903 39.5996 19.7645 39.8015 19.1588C39.852 18.9872 40.1952 18.8661 40.4273 18.8055C41.6487 18.4724 42.2342 17.6548 42.0424 16.393C41.9717 15.9287 42.0626 15.6662 42.4764 15.3735C43.5061 14.6669 43.6373 13.6474 43.0417 12.5168C42.9004 12.2544 42.9004 11.8001 43.0417 11.5478C43.6474 10.4172 43.5161 9.40781 42.4865 8.69112C42.0828 8.40848 41.9818 8.14603 42.0525 7.6817C42.2342 6.40983 41.6588 5.62248 40.4475 5.25909C40.1649 5.17833 39.8419 4.84522 39.7611 4.56258C39.3775 3.321 38.5599 2.786 37.2476 2.92732C36.9751 2.9576 36.5814 2.7961 36.3997 2.58412C35.5114 1.50404 34.6534 1.34253 33.3917 1.99865C33.1595 2.11979 32.7254 2.0996 32.4832 1.96837C31.3223 1.34253 30.3937 1.53432 29.5458 2.55384C29.354 2.77591 28.93 2.94751 28.6272 2.91723C27.3957 2.786 26.5377 3.35128 26.1844 4.5424C26.0935 4.83513 25.7907 5.17833 25.5081 5.25909C24.2362 5.64267 23.7012 6.44011 23.8425 7.74226C23.8728 8.01481 23.7315 8.42867 23.5195 8.60027C22.4293 9.50875 22.2476 10.3769 22.9038 11.5983C23.035 11.8405 23.0249 12.2645 22.8937 12.5067C22.2577 13.6878 22.3991 14.677 23.469 15.424C23.893 15.7167 23.9233 15.9993 23.8425 16.4536C23.6507 17.463 24.1454 18.4926 25.1043 18.6642C26.356 18.8762 26.4771 19.8553 26.4872 20.6427C26.5781 24.963 26.5377 29.2934 26.5377 33.7551ZM3.20996 16.8573C3.20996 19.3506 3.20996 21.8338 3.20996 24.3271C3.20996 27.3049 4.78466 28.8997 7.74226 28.9098C12.4563 28.9199 17.1703 28.9098 21.8943 28.9098C22.1568 28.9098 22.4596 28.9603 22.6716 28.8493C22.924 28.718 23.247 28.4253 23.247 28.2032C23.247 27.9307 23.0047 27.5572 22.7524 27.4058C22.5101 27.2544 22.1265 27.3048 21.8136 27.3048C17.1299 27.3048 12.4361 27.3048 7.75236 27.3048C5.68304 27.3048 4.82503 26.4367 4.82503 24.3573C4.82503 19.3809 4.82503 14.3944 4.82503 9.4179C4.82503 7.25774 5.68304 6.40983 7.88358 6.40983C12.2443 6.40983 16.6151 6.40983 20.9758 6.40983C21.2685 6.40983 21.6117 6.48049 21.8439 6.34926C22.1164 6.20794 22.4495 5.89502 22.4596 5.64267C22.4697 5.39031 22.1568 5.0572 21.9044 4.87551C21.7227 4.74428 21.3997 4.80485 21.1373 4.80485C16.6252 4.80485 12.1131 4.79475 7.60094 4.80485C4.8755 4.81494 3.22005 6.48049 3.20996 9.20592C3.19987 11.7598 3.20996 14.3035 3.20996 16.8573ZM11.1238 23.893C12.0222 24.6804 13.0619 25.3869 14.4549 24.4987C14.5861 24.4179 14.8789 24.5996 15.1009 24.64C16.7059 24.9327 18.3008 25.2254 19.9058 25.4879C20.4408 25.5686 20.8546 25.2759 20.8647 24.7207C20.8748 24.1555 20.4812 23.9637 19.9361 23.9031C18.7248 23.7618 17.5034 23.6003 16.3122 23.3277C15.8277 23.2167 15.3533 22.8331 14.9798 22.4697C14.4145 21.9145 13.7483 21.9953 13.5363 22.7826C13.3647 23.4388 12.9913 23.3883 12.6682 23.0552C12.1837 22.5707 11.8405 21.9549 11.3863 21.4401C11.1743 21.2079 10.821 20.9354 10.5686 20.9657C10.3163 20.996 9.89233 21.3695 9.89233 21.5915C9.86205 22.9643 8.99394 23.6104 7.89367 24.0949C7.41925 24.3069 7.06595 24.6198 7.29812 25.175C7.53028 25.7604 8.03499 25.8412 8.52961 25.5485C9.38762 25.0437 10.1952 24.4886 11.1238 23.893ZM13.6272 14.4448C15.3836 14.4448 17.1299 14.4448 18.8863 14.4448C19.4818 14.4448 20.0673 14.3944 20.0471 13.6171C20.0269 12.9004 19.4717 12.8499 18.9065 12.8499C15.4038 12.8499 11.891 12.86 8.38829 12.8499C7.80283 12.8499 7.26783 12.9711 7.25774 13.6474C7.24764 14.3338 7.77254 14.4549 8.3681 14.4549C10.1245 14.4347 11.8809 14.4448 13.6272 14.4448ZM13.718 16.0599C11.9415 16.0599 10.1548 16.0599 8.3782 16.0599C7.79273 16.0599 7.26783 16.2012 7.26783 16.8775C7.26783 17.574 7.82301 17.6649 8.38829 17.6649C11.891 17.6649 15.3937 17.6649 18.9065 17.6649C19.4515 17.6649 20.037 17.6346 20.0572 16.9078C20.0774 16.1306 19.4919 16.0599 18.8964 16.0599C17.1703 16.0599 15.4441 16.0599 13.718 16.0599ZM13.7281 9.65007C11.9415 9.65007 10.1649 9.66016 8.3782 9.65007C7.80283 9.65007 7.24764 9.74092 7.25774 10.4374C7.25774 11.1137 7.78264 11.255 8.3681 11.255C11.9011 11.245 15.434 11.255 18.9771 11.255C19.5626 11.255 20.0673 11.1137 20.0471 10.4071C20.0269 9.74092 19.5323 9.65007 18.9872 9.65007C17.2409 9.65007 15.4845 9.65007 13.7281 9.65007Z" fill="#16364D"/>
<path d="M28.6979 4.59306C29.5761 4.6839 30.2625 4.44164 30.6864 3.77542C31.0296 3.24043 31.2921 3.10921 31.8574 3.51297C32.5942 4.03787 33.4119 3.9874 34.1386 3.45241C34.5727 3.13949 34.8452 3.16977 35.1279 3.63411C35.6225 4.46183 36.3897 4.74447 37.3082 4.57287C37.8634 4.47193 38.0956 4.59306 38.1864 5.18861C38.3378 6.07691 38.9233 6.65228 39.8116 6.81378C40.3163 6.90463 40.5384 7.08633 40.4273 7.62132C40.2355 8.61055 40.5384 9.408 41.4368 9.9329C41.8405 10.1651 41.8203 10.4376 41.568 10.801C40.9724 11.6388 40.9724 12.4867 41.5882 13.3145C41.8607 13.6778 41.8102 13.9403 41.4166 14.1725C40.5182 14.7075 40.2456 15.5049 40.4273 16.5042C40.5182 16.9686 40.3769 17.1906 39.8722 17.2714C38.9435 17.4228 38.3277 17.9982 38.1763 18.9268C38.0754 19.5527 37.7726 19.6032 37.2678 19.5224C36.3392 19.3609 35.5922 19.6637 35.0976 20.4813C34.8452 20.9053 34.5828 20.9558 34.179 20.663C33.3412 20.0574 32.5135 20.128 31.6454 20.663C31.4637 20.7741 30.9489 20.663 30.8277 20.4914C30.2625 19.6637 29.5155 19.3508 28.5565 19.5325C28.072 19.6233 27.7995 19.5325 27.7086 18.9672C27.5572 18.0386 26.9718 17.443 26.0431 17.2815C25.5182 17.1906 25.3466 16.9988 25.4576 16.4639C25.6494 15.515 25.3668 14.7176 24.5088 14.2027C24.0949 13.9504 24.0142 13.6879 24.317 13.2842C24.9327 12.4564 24.8621 11.6186 24.3271 10.7505C24.216 10.5688 24.317 10.054 24.4987 9.9329C25.3567 9.33734 25.6595 8.57018 25.4576 7.58094C25.3567 7.08633 25.5283 6.90463 26.0128 6.82388C26.8607 6.68256 27.4967 6.18794 27.6683 5.32993C27.7995 4.63343 28.0619 4.33061 28.6979 4.59306ZM26.5377 12.0224C26.5377 15.5756 29.3944 18.4625 32.9374 18.4625C36.4805 18.4726 39.3674 15.5957 39.3775 12.0527C39.3876 8.49952 36.5209 5.63276 32.9677 5.62267C29.3944 5.62267 26.5377 8.46923 26.5377 12.0224Z" fill="#16364D"/>
<path d="M28.1224 21.3089C28.8189 21.0061 29.2429 21.0263 29.6971 21.6521C30.0201 22.1064 30.6561 22.3385 31.3324 22.7726C31.3324 24.1454 31.3324 25.7504 31.3324 27.3452C31.3324 28.4859 31.3324 29.6265 31.3324 30.7672C31.3425 32.0189 31.6857 32.2914 32.9273 31.8977C32.9273 33.109 32.9677 34.3002 32.9071 35.4913C32.8667 36.2383 32.1096 36.5714 31.5948 36.0263C30.8479 35.2389 30.2321 35.1481 29.4952 36.0061C29.3337 36.1878 28.8694 36.2685 28.6372 36.1777C28.4051 36.0868 28.1931 35.7134 28.1527 35.4408C28.072 34.8957 28.1224 34.3304 28.1224 33.7753C28.1224 29.6366 28.1224 25.4879 28.1224 21.3089Z" fill="#16364D"/>
<path d="M37.7422 21.3089C37.7422 23.9233 37.7422 26.5377 37.7422 29.465C37.0861 28.7685 36.5915 28.2537 36.0969 27.7288C35.5922 27.1837 35.0875 27.1938 34.6029 27.7389C34.1386 28.2537 33.6844 28.7887 33.2301 29.3035C33.1494 29.253 33.0787 29.1924 32.998 29.142C32.998 26.7597 32.998 24.3775 32.998 21.8842C33.2503 22.0256 33.4623 22.1366 33.6743 22.2476C34.5828 22.7019 35.6326 22.5404 36.1776 21.7025C36.6319 21.0161 37.0861 20.9859 37.7422 21.3089Z" fill="#16364D"/>
<path d="M28.1326 12.0019C28.1528 9.35726 30.323 7.21729 32.9778 7.21729C35.6124 7.22738 37.7826 9.39764 37.7927 12.0322C37.7927 14.6971 35.5619 16.9077 32.8971 16.8674C30.2524 16.8371 28.1124 14.6466 28.1326 12.0019Z" fill="#16364D"/>
</svg>
