<svg width="233" height="247" viewBox="0 0 233 247" fill="none" xmlns="http://www.w3.org/2000/svg">
<path opacity="0.809" fill-rule="evenodd" clip-rule="evenodd" d="M113.5 0.5C150.242 2.5763 170.242 21.9097 173.5 58.5C170.268 92.899 151.435 111.899 117 115.5C82.033 112.367 62.8668 93.367 59.5 58.5C62.05 24.6211 80.05 5.2878 113.5 0.5ZM109.5 10.5C141.015 9.8558 159.348 25.0224 164.5 56C163.284 82.217 149.95 98.55 124.5 105C96.536 107.436 78.369 95.269 70 68.5C66.7833 37.9006 79.95 18.5673 109.5 10.5ZM114.5 23.5C115.833 23.5 117.167 23.5 118.5 23.5C118.778 25.3464 118.111 26.6798 116.5 27.5C114.889 26.6798 114.222 25.3464 114.5 23.5ZM98.5 27.5C100.346 27.2222 101.68 27.8888 102.5 29.5C101.68 31.1112 100.346 31.7778 98.5 31.5C98.5 30.1667 98.5 28.8333 98.5 27.5ZM131.5 27.5C132.5 27.5 133.5 27.5 134.5 27.5C134.5 28.8333 134.5 30.1667 134.5 31.5C131.046 31.7332 130.046 30.3999 131.5 27.5ZM114.5 34.5C115.833 34.5 117.167 34.5 118.5 34.5C118.334 41.5079 118.5 48.5079 119 55.5C123.005 55.262 127.172 55.5953 131.5 56.5C131.67 57.8221 131.337 58.9887 130.5 60C125.249 60.8037 120.082 60.637 115 59.5C114.5 51.1733 114.334 42.84 114.5 34.5ZM86.5 39.5C88.346 39.2222 89.68 39.8888 90.5 41.5C89.68 43.1112 88.346 43.7778 86.5 43.5C86.5 42.1667 86.5 40.8333 86.5 39.5ZM143.5 39.5C144.5 39.5 145.5 39.5 146.5 39.5C146.5 40.8333 146.5 42.1667 146.5 43.5C143.046 43.7332 142.046 42.3999 143.5 39.5ZM81.5 56.5C82.833 56.5 84.167 56.5 85.5 56.5C85.778 58.3464 85.111 59.6798 83.5 60.5C81.889 59.6798 81.222 58.3464 81.5 56.5ZM147.5 56.5C148.833 56.5 150.167 56.5 151.5 56.5C151.778 58.3464 151.111 59.6798 149.5 60.5C147.889 59.6798 147.222 58.3464 147.5 56.5ZM86.5 72.5C88.346 72.222 89.68 72.889 90.5 74.5C89.68 76.111 88.346 76.778 86.5 76.5C86.5 75.167 86.5 73.833 86.5 72.5ZM143.5 72.5C144.5 72.5 145.5 72.5 146.5 72.5C146.5 73.833 146.5 75.167 146.5 76.5C143.046 76.733 142.046 75.4 143.5 72.5ZM98.5 84.5C100.346 84.222 101.68 84.889 102.5 86.5C101.68 88.111 100.346 88.778 98.5 88.5C98.5 87.167 98.5 85.833 98.5 84.5ZM131.5 84.5C132.5 84.5 133.5 84.5 134.5 84.5C134.5 85.833 134.5 87.167 134.5 88.5C131.046 88.733 130.046 87.4 131.5 84.5ZM115.5 88.5C117.912 88.694 118.912 90.027 118.5 92.5C117.167 92.5 115.833 92.5 114.5 92.5C114.433 91.041 114.766 89.708 115.5 88.5Z" fill="#16364D"/>
<path opacity="0.915" fill-rule="evenodd" clip-rule="evenodd" d="M159.5 60.5C158.683 58.0314 158.183 55.3647 158 52.5C157.833 54 157.667 55.5 157.5 57C157.569 58.9855 158.235 60.4855 159.5 61.5C155.465 85.868 141.131 99.201 116.5 101.5C96.0411 100.022 82.2071 89.689 75.0001 70.5C70.0062 45.32 79.1731 27.4867 102.5 17C129.162 10.7469 147.662 20.2469 158 45.5C159.25 50.4195 159.75 55.4195 159.5 60.5ZM114.5 23.5C114.222 25.3464 114.889 26.6798 116.5 27.5C118.111 26.6798 118.778 25.3464 118.5 23.5C117.167 23.5 115.833 23.5 114.5 23.5ZM98.5001 27.5C98.5001 28.8333 98.5001 30.1667 98.5001 31.5C100.346 31.7778 101.68 31.1112 102.5 29.5C101.68 27.8888 100.346 27.2222 98.5001 27.5ZM131.5 27.5C130.046 30.3999 131.046 31.7332 134.5 31.5C134.5 30.1667 134.5 28.8333 134.5 27.5C133.5 27.5 132.5 27.5 131.5 27.5ZM114.5 34.5C114.334 42.84 114.5 51.1733 115 59.5C120.082 60.637 125.249 60.8037 130.5 60C131.337 58.9887 131.67 57.8221 131.5 56.5C127.172 55.5953 123.005 55.262 119 55.5C118.5 48.5079 118.334 41.5079 118.5 34.5C117.167 34.5 115.833 34.5 114.5 34.5ZM86.5001 39.5C86.5001 40.8333 86.5001 42.1667 86.5001 43.5C88.3461 43.7778 89.6801 43.1112 90.5001 41.5C89.6801 39.8888 88.3461 39.2222 86.5001 39.5ZM143.5 39.5C142.046 42.3999 143.046 43.7332 146.5 43.5C146.5 42.1667 146.5 40.8333 146.5 39.5C145.5 39.5 144.5 39.5 143.5 39.5ZM81.5001 56.5C81.2221 58.3464 81.8891 59.6798 83.5001 60.5C85.1111 59.6798 85.7781 58.3464 85.5001 56.5C84.1671 56.5 82.8331 56.5 81.5001 56.5ZM147.5 56.5C147.222 58.3464 147.889 59.6798 149.5 60.5C151.111 59.6798 151.778 58.3464 151.5 56.5C150.167 56.5 148.833 56.5 147.5 56.5ZM86.5001 72.5C86.5001 73.833 86.5001 75.167 86.5001 76.5C88.3461 76.778 89.6801 76.111 90.5001 74.5C89.6801 72.889 88.3461 72.222 86.5001 72.5ZM143.5 72.5C142.046 75.4 143.046 76.733 146.5 76.5C146.5 75.167 146.5 73.833 146.5 72.5C145.5 72.5 144.5 72.5 143.5 72.5ZM98.5001 84.5C98.5001 85.833 98.5001 87.167 98.5001 88.5C100.346 88.778 101.68 88.111 102.5 86.5C101.68 84.889 100.346 84.222 98.5001 84.5ZM131.5 84.5C130.046 87.4 131.046 88.733 134.5 88.5C134.5 87.167 134.5 85.833 134.5 84.5C133.5 84.5 132.5 84.5 131.5 84.5ZM115.5 88.5C114.766 89.708 114.433 91.041 114.5 92.5C115.833 92.5 117.167 92.5 118.5 92.5C118.912 90.027 117.912 88.694 115.5 88.5Z" fill="#16364D"/>
<path opacity="0.834" fill-rule="evenodd" clip-rule="evenodd" d="M159.5 60.5C159.5 60.8333 159.5 61.1667 159.5 61.5C158.235 60.4855 157.569 58.9855 157.5 57C157.667 55.5 157.833 54 158 52.5C158.183 55.3647 158.683 58.0314 159.5 60.5Z" fill="#16364D"/>
<path opacity="0.91" fill-rule="evenodd" clip-rule="evenodd" d="M1.49997 191.5C0.336767 167.67 0.170167 143.67 0.999967 119.5C8.42007 118.353 15.9201 118.187 23.5 119C24.6606 143.094 24.8272 167.261 24 191.5C16.4015 192.827 8.90147 192.827 1.49997 191.5Z" fill="#16364D"/>
<path opacity="0.917" fill-rule="evenodd" clip-rule="evenodd" d="M214.5 119.5C219.167 120.833 223.833 120.833 228.5 119.5C229.542 118.209 230.708 118.209 232 119.5C232.667 143.5 232.667 167.5 232 191.5C224.333 192.833 216.667 192.833 209 191.5C208.333 167.5 208.333 143.5 209 119.5C210.943 118.193 212.777 118.193 214.5 119.5Z" fill="#16364D"/>
<path opacity="0.683" fill-rule="evenodd" clip-rule="evenodd" d="M228.5 119.5C223.833 120.833 219.167 120.833 214.5 119.5C219.242 118.981 223.909 118.981 228.5 119.5Z" fill="#16364D"/>
<path opacity="0.985" fill-rule="evenodd" clip-rule="evenodd" d="M1.49997 191.5C1.33337 168.498 1.49997 145.498 1.99997 122.5C2.17217 145.406 2.67217 168.239 3.49997 191C2.90557 191.464 2.23887 191.631 1.49997 191.5Z" fill="#16364D"/>
<path opacity="0.995" fill-rule="evenodd" clip-rule="evenodd" d="M209.5 121.5C210.239 121.369 210.906 121.536 211.5 122C210.514 144.701 210.181 167.201 210.5 189.5C209.5 166.843 209.167 144.176 209.5 121.5Z" fill="#16364D"/>
<path opacity="0.929" fill-rule="evenodd" clip-rule="evenodd" d="M29.4999 131.5C29.3504 132.552 29.5171 133.552 29.9999 134.5C38.9076 132.708 48.0742 131.874 57.4999 132C58.0559 131.617 58.3892 131.117 58.4999 130.5C59.5675 129.566 60.9009 129.232 62.4999 129.5C64.0829 131.863 65.9163 131.863 67.9999 129.5C69.0494 130.517 70.216 130.684 71.4999 130C72.7382 129.31 72.7382 128.81 71.4999 128.5C78.8439 127.042 86.3439 125.708 93.9999 124.5C100.582 125.744 106.249 128.744 111 133.5C111.749 134.635 111.583 135.635 110.5 136.5C105.833 140.167 101.167 143.833 96.4999 147.5C92.9149 152.787 93.0819 158.121 96.9999 163.5C100.92 169.711 106.42 171.877 113.5 170C119.167 165.667 124.833 161.333 130.5 157C133.366 155.543 136.366 155.21 139.5 156C153.911 166.955 168.411 177.788 183 188.5C184.11 194.895 181.61 199.229 175.5 201.5C164.698 194.259 154.031 186.759 143.5 179C138.576 179.232 138.242 180.899 142.5 184C152.599 190.8 162.433 197.966 172 205.5C173.169 212.157 170.503 216.491 164 218.5C151.84 210.084 139.84 201.417 128 192.5C124.849 194.052 124.682 195.885 127.5 198C136.833 204.667 146.167 211.333 155.5 218C157.699 223.096 156.365 227.429 151.5 231C149.833 231.667 148.167 231.667 146.5 231C137.553 225.053 128.886 218.72 120.5 212C118.945 210.711 117.279 210.044 115.5 210C114.14 211.938 114.473 213.604 116.5 215C124.677 220.589 132.677 226.422 140.5 232.5C142.322 237.064 141.322 240.897 137.5 244C136.271 244.781 134.938 245.281 133.5 245.5C127.616 242.457 122.116 238.79 117 234.5C115.603 227.435 111.603 222.435 105 219.5C105.031 210.195 100.531 204.362 91.4999 202C88.8639 192.002 82.5299 187.669 72.4999 189C70.9999 190.5 69.4999 192 67.9999 193.5C65.8332 188.667 62.3332 185.167 57.4999 183C53.5876 182.069 50.0876 182.903 46.9999 185.5C41.6641 181.5 35.6641 179.5 28.9999 179.5C28.1718 163.328 28.3385 147.328 29.4999 131.5Z" fill="#16364D"/>
<path opacity="0.928" fill-rule="evenodd" clip-rule="evenodd" d="M136.5 124.5C149.177 126.192 161.844 128.025 174.5 130C184.167 130.333 193.833 130.667 203.5 131C204.658 147.093 204.824 163.259 204 179.5C197.213 180.217 190.713 181.717 184.5 184C171.549 174.717 158.882 165.05 146.5 155C140.869 150.418 134.869 149.751 128.5 153C122.833 157.333 117.167 161.667 111.5 166C102.423 165.581 98.2571 160.748 99.0001 151.5C108.833 143.667 118.667 135.833 128.5 128C131.158 126.522 133.825 125.355 136.5 124.5Z" fill="#16364D"/>
<path opacity="0.784" fill-rule="evenodd" clip-rule="evenodd" d="M71.5 128.5C72.7383 128.81 72.7383 129.31 71.5 130C70.2161 130.684 69.0495 130.517 68 129.5C65.9164 131.863 64.083 131.863 62.5 129.5C65.4552 128.841 68.4552 128.508 71.5 128.5Z" fill="#16364D"/>
<path opacity="0.935" fill-rule="evenodd" clip-rule="evenodd" d="M58.5 130.5C58.3893 131.117 58.056 131.617 57.5 132C48.0743 131.874 38.9077 132.708 30 134.5C29.5172 133.552 29.3505 132.552 29.5 131.5C38.9856 130.506 48.6522 130.173 58.5 130.5Z" fill="#16364D"/>
<path opacity="0.803" fill-rule="evenodd" clip-rule="evenodd" d="M52.5 186.5C58.1386 187.328 61.8052 190.494 63.5 196C60.3707 201.63 56.0374 206.13 50.5 209.5C45.6866 207.852 42.3533 204.686 40.5 200C43.6387 194.697 47.6387 190.197 52.5 186.5Z" fill="#16364D"/>
<path opacity="0.874" fill-rule="evenodd" clip-rule="evenodd" d="M74.5 192.5C80.985 192.482 84.985 195.648 86.5 202C79.679 210.154 72.179 217.654 64 224.5C57.564 222.926 54.564 218.926 55 212.5C61.7027 205.965 68.2027 199.298 74.5 192.5Z" fill="#16364D"/>
<path opacity="0.866" fill-rule="evenodd" clip-rule="evenodd" d="M89.5 206.5C96.789 207.284 100.289 211.284 100 218.5C94.833 223.667 89.667 228.833 84.5 234C76.526 234.941 72.6926 231.441 73 223.5C78.703 217.965 84.203 212.298 89.5 206.5Z" fill="#16364D"/>
<path opacity="0.847" fill-rule="evenodd" clip-rule="evenodd" d="M101.5 223.5C108.266 224.756 111.432 228.756 111 235.5C107.318 239.349 103.485 243.016 99.5 246.5C94.496 244.829 91.162 241.496 89.5 236.5C92.813 231.521 96.813 227.188 101.5 223.5Z" fill="#16364D"/>
</svg>
