<svg width="40" height="40" viewBox="0 0 40 40" fill="none" xmlns="http://www.w3.org/2000/svg">
<path d="M20 40C8.94929 40 -0.0104456 31.0298 9.14015e-06 19.9791C0.0104639 8.93884 8.98066 -0.0104456 20.0418 9.15082e-06C31.082 0.0104639 40.0209 8.99111 40 20.0523C39.9791 31.0611 31.0193 40 20 40ZM29.2211 7.47517C21.5891 2.90644 14.6367 3.69054 8.19655 9.89022C8.86565 10.4652 9.44067 10.9566 10.0366 11.4793C12.2948 8.98066 15.0444 7.45426 18.3481 7.02562C21.6414 6.60743 24.6419 7.37062 27.517 9.2943C26.9733 9.3884 26.6074 9.46158 26.1788 9.53476C26.2624 10.3189 26.3356 11.0298 26.4088 11.793C28.1756 11.6362 29.8484 11.4793 31.4793 11.333C31.4793 9.54522 31.4793 7.862 31.4793 6.18923C30.6848 6.18923 29.9634 6.18923 29.2002 6.18923C29.2211 6.63879 29.2211 7.02562 29.2211 7.47517ZM29.9634 28.5206C27.6842 31.0089 24.9556 32.5457 21.6414 32.9639C18.3481 33.3821 15.3476 32.6189 12.4516 30.6848C13.0057 30.6011 13.3612 30.5489 13.8003 30.4861C13.7271 29.702 13.6539 28.9702 13.5703 28.1965C11.793 28.3638 10.1202 28.5102 8.51019 28.6565C8.51019 30.4443 8.51019 32.1275 8.51019 33.7898C9.31521 33.7898 10.0261 33.7898 10.7684 33.7898C10.7893 33.3298 10.8207 32.9325 10.8416 32.4307C14.1976 34.7412 17.8045 35.7658 21.7668 35.3058C25.7397 34.8458 29.012 33.058 31.7198 30.0261C31.1239 29.5243 30.5593 29.0329 29.9634 28.5206ZM7.71563 18.5781C8.21746 18.3272 8.59383 18.0031 8.99111 17.9718C9.39885 17.9404 10.0366 18.0763 10.1934 18.3586C10.3607 18.6513 10.1098 19.2054 9.97386 19.6236C9.90068 19.8223 9.67067 19.9686 9.5034 20.1359C8.76111 20.8364 8.06064 21.5682 7.26608 22.1955C6.56561 22.7496 6.48197 23.3978 6.67015 24.1819C8.7402 24.1819 10.7684 24.1819 12.7966 24.1819C12.7966 23.586 12.7966 23.0528 12.7966 22.4464C11.8244 22.4464 10.9043 22.4464 9.85886 22.4464C10.1098 22.185 10.2457 22.0387 10.3816 21.8923C10.9671 21.2964 11.6257 20.7632 12.1171 20.1045C13.2567 18.5886 12.598 16.7486 10.7684 16.2363C9.62885 15.9122 8.48928 15.9644 7.44381 16.5708C6.9838 16.8426 6.60742 17.2608 6.11605 17.679C6.78516 18.0554 7.27653 18.3377 7.71563 18.5781ZM16.3304 20.8991C17.4386 19.31 18.4631 17.8254 19.5713 16.2363C18.9859 16.2363 18.5677 16.2781 18.1599 16.2258C17.4908 16.1526 17.0727 16.3722 16.6858 16.9577C15.8913 18.1809 15.0444 19.3622 14.1349 20.5018C13.6121 21.1605 13.5285 21.84 13.6853 22.6973C15.0549 22.6973 16.414 22.6973 17.8254 22.6973C17.8568 23.2514 17.8881 23.7114 17.9195 24.1924C18.6618 24.1924 19.3518 24.1924 20.0732 24.1924C20.0941 23.6905 20.1254 23.2305 20.1464 22.76C20.5541 22.7287 20.8782 22.6973 21.2127 22.666C21.2127 22.07 21.2127 21.5159 21.2127 20.9618C20.8155 20.9305 20.4914 20.9096 20.1464 20.8782C20.115 20.4182 20.0836 20.0104 20.0627 19.5923C19.3413 19.5923 18.6722 19.5923 17.9927 19.5923C17.9718 20.0523 17.9404 20.4495 17.9195 20.8886C17.4072 20.8991 16.9472 20.8991 16.3304 20.8991ZM31.1866 18.0449C30.277 20.1464 29.4197 22.1432 28.5102 24.2551C29.1688 24.2551 29.7125 24.2133 30.2457 24.2655C30.7998 24.3178 31.0611 24.1087 31.2807 23.586C32.0021 21.8087 32.8175 20.0627 33.5285 18.275C33.7689 17.679 33.7689 16.989 33.8944 16.299C31.5421 16.299 29.3779 16.299 27.2242 16.299C27.2242 17.3131 27.2242 18.254 27.2242 19.195C27.8724 19.195 28.4579 19.195 29.0434 19.195C29.0747 18.7872 29.1061 18.4318 29.127 18.0449C29.7961 18.0449 30.4129 18.0449 31.1866 18.0449ZM27.1511 14.5844C26.6074 14.5844 26.2206 14.6158 25.8442 14.574C25.3842 14.5321 25.1542 14.7099 25.0078 15.1594C23.8996 18.369 22.7705 21.5787 21.6518 24.7883C21.5891 24.966 21.5787 25.1646 21.5264 25.426C21.9028 25.426 22.185 25.3947 22.4673 25.4365C23.1573 25.541 23.471 25.2692 23.6696 24.6001C24.0251 23.3769 24.4955 22.1955 24.9137 20.9932C25.6351 18.9022 26.3669 16.8322 27.1511 14.5844Z" fill="#16364D"/>
</svg>
