<svg width="39" height="43" viewBox="0 0 39 43" fill="none" xmlns="http://www.w3.org/2000/svg">
<path d="M22.3388 27.5736C22.1839 25.6124 20.9109 25.6468 19.5519 25.7501C18.8723 25.8017 18.0724 25.5522 17.5219 25.8275C17.0058 26.0855 16.7563 26.8597 16.3521 27.4704C16.0854 27.3758 15.7672 27.2295 15.4403 27.1521C14.95 27.0317 14.735 26.7822 14.7694 26.2489C14.8038 25.7759 14.5887 25.3114 14.0554 25.4318C13.7974 25.492 13.591 25.9479 13.4275 26.2575C13.3415 26.4124 13.3845 26.6532 13.4189 26.8511C13.5479 27.7198 13.2641 28.3735 12.5846 28.9498C11.9825 29.4573 11.1395 29.9648 12.0083 31.0228C11.3287 31.0228 10.8212 31.0228 10.1847 31.0228C10.1847 30.2487 10.1847 29.4917 10.1847 28.7262C10.1847 27.608 10.1847 26.4898 10.1847 25.3802C10.1933 22.6621 12.1545 20.5117 14.8554 20.4343C17.9176 20.3569 20.9797 20.3569 24.0419 20.4343C26.7514 20.5031 28.7211 22.6449 28.7298 25.363C28.7384 27.2209 28.7298 29.0789 28.7298 30.997C28.1362 30.997 27.6115 30.997 26.9406 30.997C27.689 29.9132 26.8288 29.3885 26.1837 28.8294C25.6332 28.3477 25.4095 27.8144 25.4869 27.1005C25.53 26.7306 25.5558 26.335 25.4525 25.9909C25.3751 25.7501 25.0741 25.4404 24.859 25.4232C24.6354 25.4146 24.1881 25.7501 24.1967 25.8963C24.3515 27.2381 23.2591 27.1349 22.3388 27.5736Z" fill="#16364D"/>
<path d="M23.8785 41.0176C23.4828 40.88 23.242 40.794 23.0011 40.6994C22.0119 40.3381 21.6249 40.5101 21.1604 41.4391C21.0055 41.7574 20.7819 42.2477 20.5497 42.2735C19.7669 42.3595 18.9498 42.3251 18.1756 42.2047C17.9778 42.1703 17.8402 41.6456 17.6939 41.3359C17.3069 40.5446 16.8854 40.3811 16.0338 40.6392C15.6468 40.7596 15.0963 40.9746 14.864 40.8112C14.2533 40.3639 13.7286 39.7618 13.2727 39.1511C13.1609 38.9963 13.3845 38.5662 13.4878 38.2737C13.8318 37.276 13.6942 36.8201 12.7308 36.4588C12.0169 36.1922 11.7416 35.7793 11.8621 35.0481C11.9051 34.7643 11.8965 34.4718 11.8621 34.188C11.7932 33.6289 11.9911 33.3192 12.5416 33.087C13.763 32.5709 13.9092 32.2268 13.4103 30.9882C13.1953 30.4463 13.2297 30.0764 13.6942 29.7324C13.9006 29.5775 14.0899 29.3883 14.2447 29.1905C14.7178 28.5454 15.2425 28.4163 15.9908 28.7862C16.7908 29.1733 17.4015 28.9668 17.6337 28.1841C17.9434 27.1261 18.6401 27.1261 19.5261 27.1003C20.412 27.0745 21.0141 27.2465 21.2378 28.1755C21.255 28.2529 21.298 28.3733 21.3582 28.3991C21.7883 28.5798 22.3646 28.9926 22.6484 28.855C23.6892 28.3303 24.2828 28.7346 24.9881 29.4657C25.5644 30.0592 25.7794 30.5323 25.4096 31.3151C25.2547 31.6333 25.3235 32.1494 25.4784 32.5021C25.5902 32.7601 25.9773 32.958 26.2783 33.0612C26.889 33.2676 27.1643 33.6117 27.0611 34.2654C27.0181 34.5493 27.0181 34.8417 27.0611 35.1256C27.1643 35.8223 26.8976 36.2008 26.2181 36.4674C25.1945 36.8631 25.0139 37.3104 25.4526 38.3253C25.745 38.9877 25.6418 39.435 25.0913 39.8736C24.6354 40.2263 24.2397 40.665 23.8785 41.0176ZM15.3113 34.7385C15.3113 37.0437 17.1434 38.8759 19.4487 38.8759C21.7453 38.8759 23.5946 37.0351 23.5946 34.7385C23.5946 32.4591 21.7195 30.5839 19.4487 30.5839C17.1692 30.5753 15.3113 32.4419 15.3113 34.7385Z" fill="#16364D"/>
<path d="M8.95467 22.9802C8.95467 25.6811 8.95467 28.296 8.95467 30.9883C5.8753 30.9883 2.96797 30.9883 0.0520278 30.9883C0.0520278 29.0529 -0.0941992 27.1004 0.103637 25.1822C0.232661 23.9178 1.30786 23.092 2.56369 23.0146C4.72269 22.8942 6.89889 22.9802 8.95467 22.9802Z" fill="#16364D"/>
<path d="M38.9914 31.0054C36.0066 31.0054 33.1251 31.0054 30.0285 31.0054C30.0285 28.3561 30.0285 25.7241 30.0285 22.9715C30.0113 22.9715 30.2177 22.9199 30.4328 22.9113C32.1531 22.9027 33.8648 22.8855 35.5851 22.9113C37.8129 22.9543 38.9914 24.1758 39 26.4208C38.9914 27.9433 38.9914 29.4571 38.9914 31.0054Z" fill="#16364D"/>
<path d="M23.6032 13.9571C23.5688 14.9635 23.2419 16.2537 22.485 17.4064C20.9195 19.789 17.9175 19.7632 16.4123 17.3461C15.5091 15.8925 15.1048 14.284 15.4231 12.5895C15.8102 10.5251 17.7971 9.08002 19.8099 9.28646C22.0549 9.5101 23.6204 11.2906 23.6032 13.9571Z" fill="#16364D"/>
<path d="M34.7509 16.0303C35.4906 16.7958 35.6971 17.9398 35.3358 18.9462C35.1294 19.5311 34.9143 20.116 34.5789 20.6235C33.7101 21.9224 32.05 21.8966 31.1038 20.6579C30.3469 19.6516 30.0974 18.4903 30.3125 17.2603C30.5447 15.9701 31.8264 15.1099 33.1854 15.2562C33.7961 15.325 34.3294 15.6088 34.7509 16.0303Z" fill="#16364D"/>
<path d="M3.58726 18.8514C3.2346 17.802 3.50125 16.615 4.3442 15.8925C4.82589 15.4796 5.43661 15.2388 6.12473 15.2388C7.587 15.2474 8.79983 16.3914 8.6708 17.8795C8.59339 18.8084 8.31814 19.8148 7.81925 20.5976C6.95909 21.9652 5.19576 21.9308 4.327 20.5631C3.99154 20.0471 3.7851 19.4535 3.58726 18.8514Z" fill="#16364D"/>
<path d="M22.2183 34.7386C22.2183 36.2783 20.9797 37.5169 19.44 37.5083C17.8831 37.5083 16.6789 36.2869 16.6789 34.73C16.6789 33.1903 17.9261 31.9431 19.4486 31.9431C20.9711 31.9517 22.2183 33.2075 22.2183 34.7386ZM17.7799 34.4462C17.6509 34.5666 17.6767 35.0913 17.8315 35.2547C18.9927 36.545 19.1906 36.5708 20.1367 35.444C20.4292 35.0913 20.8163 34.7988 21.0227 34.4118C21.0485 34.3688 21.0657 34.3172 21.0743 34.2655C21.1775 33.7667 20.6958 33.3194 20.2141 33.457C20.1625 33.4742 20.1195 33.4914 20.0765 33.5172C19.7067 33.7494 19.44 34.1537 19.0873 34.5322C18.1928 33.6634 17.7799 34.4462 17.7799 34.4462Z" fill="#16364D"/>
<path d="M8.14619 11.6777L6.17643 10.6197C6.09041 10.5767 5.98719 10.5767 5.90118 10.6197L3.90561 11.6433C3.69057 11.7551 3.44112 11.5658 3.48413 11.3336L3.8798 9.13159C3.89701 9.03697 3.8626 8.94235 3.79379 8.87354L2.21109 7.28225C2.03906 7.11022 2.13368 6.81776 2.37452 6.78336L4.59373 6.4823C4.69695 6.4737 4.77437 6.41349 4.81738 6.32747L5.82376 4.32331C5.93558 4.10827 6.25384 4.10827 6.35706 4.33191L7.32904 6.34468C7.37205 6.43069 7.44946 6.4909 7.55268 6.50811L9.76329 6.85217C10.0041 6.88658 10.0988 7.18763 9.91812 7.35966L8.30102 8.90795C8.23221 8.97676 8.1978 9.07138 8.215 9.166L8.57627 11.3766C8.61928 11.6174 8.36123 11.7981 8.14619 11.6777Z" fill="#16364D"/>
<path d="M21.5389 7.49737L19.5691 6.43937C19.4831 6.39637 19.3799 6.39637 19.2938 6.43937L17.2983 7.46296C17.0832 7.57478 16.8338 7.38555 16.8768 7.15331L17.2725 4.9513C17.2897 4.85668 17.2553 4.76207 17.1865 4.69325L15.5952 3.11916C15.4231 2.94713 15.5177 2.65468 15.7586 2.62027L17.9778 2.31922C18.0724 2.30201 18.1584 2.2504 18.2014 2.16439L19.2078 0.16022C19.3196 -0.0548193 19.6293 -0.0548193 19.7325 0.168822L20.7045 2.19019C20.7475 2.27621 20.8249 2.33642 20.9281 2.35362L23.1388 2.69769C23.3796 2.73209 23.4742 3.03315 23.2936 3.20518L21.6765 4.75346C21.6077 4.82228 21.5733 4.91689 21.5905 5.01151L21.9517 7.22212C22.0033 7.43716 21.7539 7.61779 21.5389 7.49737Z" fill="#16364D"/>
<path d="M34.9229 11.2734L32.9531 10.2154C32.8671 10.1724 32.7639 10.1724 32.6778 10.2154L30.6823 11.239C30.4672 11.3508 30.2178 11.1615 30.2608 10.9293L30.6565 8.72729C30.6737 8.63267 30.6393 8.53806 30.5705 8.46924L28.9878 6.87795C28.8157 6.70592 28.9104 6.41347 29.1512 6.37906L31.3704 6.07801C31.465 6.0608 31.551 6.00919 31.594 5.92318L32.6004 3.91901C32.7123 3.70397 33.0219 3.70397 33.1251 3.92761L34.0971 5.94898C34.1401 6.035 34.2175 6.09521 34.3208 6.11241L36.5314 6.45648C36.7722 6.49088 36.8668 6.79194 36.6862 6.96397L35.0691 8.51225C35.0003 8.58107 34.9659 8.67568 34.9831 8.7703L35.3443 10.9809C35.396 11.2131 35.1379 11.3938 34.9229 11.2734Z" fill="#16364D"/>
</svg>
