<svg width="50" height="53" viewBox="0 0 50 53" fill="none" xmlns="http://www.w3.org/2000/svg">
<path d="M11.7947 48.0106C10.149 44.5125 8.38822 40.7671 6.58481 36.9343C10.3622 34.3016 14.1097 31.767 18.8932 31.539C20.5581 31.458 22.1121 31.8097 23.6448 32.4684C25.3949 33.223 27.1663 33.9989 29.0039 34.4679C31.0077 34.9795 33.0157 34.4167 34.9705 33.8455C35.5482 33.6771 36.1301 33.5129 36.7142 33.3722C37.9485 33.0759 39.0207 33.6685 39.2957 34.7834C39.5813 35.9409 38.9951 36.9513 37.746 37.2945C34.0901 38.3007 30.4236 39.2728 26.7613 40.2576C26.5567 40.313 26.2838 40.3002 26.158 40.4303C25.8895 40.7053 25.6976 41.0527 25.4759 41.3725C25.8255 41.592 26.1815 42.0056 26.5226 41.9928C27.1813 41.9715 27.8336 41.7221 28.4837 41.5473C31.564 40.718 34.6422 39.8824 37.7225 39.0511C40.1953 38.3838 41.0352 37.254 41.0224 34.7088C41.0202 34.4231 41.2164 34.0309 41.4466 33.8689C43.3353 32.5473 45.2431 31.2512 47.1723 29.985C48.1124 29.3668 49.1399 29.5863 49.6984 30.4347C50.2441 31.2661 50.048 32.3128 49.1207 32.9437C43.6891 36.6294 38.3322 40.4388 32.7514 43.8857C30.7305 45.1328 28.1746 45.5272 25.8447 46.2519C24.5593 46.6527 23.2525 47.0257 21.9288 47.2389C20.5858 47.4563 19.2066 47.4585 17.8444 47.5587C15.9152 47.6972 13.9882 47.8443 11.7947 48.0106Z" fill="white"/>
<path d="M0 37.7273C1.07011 37.2178 2.0379 36.7851 2.97798 36.299C3.84771 35.8493 4.35079 36.1349 4.73663 36.9705C6.0732 39.8632 7.43962 42.741 8.79325 45.6231C9.42636 46.9682 10.0382 48.324 10.7011 49.6541C11.1381 50.5281 10.9974 51.1207 10.0616 51.5194C9.11727 51.9201 8.19851 52.3784 7.13053 52.8773C4.76647 47.8507 2.41095 42.8476 0 37.7273Z" fill="white"/>
<path d="M40.6046 28.0238C37.7545 29.5011 35.7208 32.0996 32.4956 32.7135C31.9797 32.8116 31.4532 32.8521 30.9139 32.9224C30.9139 32.7668 30.8883 32.6666 30.9181 32.6453C33.3952 30.925 35.8658 29.1984 38.362 27.5058C39.1038 27.0027 39.8286 27.1072 40.6046 28.0238Z" fill="white"/>
<path d="M38.3045 31.5816C39.9395 30.4646 41.5169 29.3284 43.1583 28.2903C43.994 27.7616 44.7955 28.124 45.3348 29.16C43.7296 30.245 42.1245 31.3492 40.4895 32.4066C40.2976 32.5302 39.9118 32.4833 39.673 32.3789C39.2275 32.187 38.8267 31.895 38.3045 31.5816Z" fill="white"/>
<path d="M34.2031 28.2348C33.5891 28.674 32.9795 29.1195 32.3591 29.5501C31.1974 30.3559 29.993 31.1062 28.876 31.9696C28.0808 32.5856 27.4264 32.4791 26.6249 31.8459C28.6223 30.4795 30.5472 29.1046 32.5425 27.8447C32.5446 27.8447 33.6019 27.2607 34.2031 28.2348Z" fill="white"/>
<path d="M40.4404 4.40886C40.4063 1.69734 38.6029 0.0175652 35.8786 0.00903839C32.6491 -0.00162009 29.4174 0.0069067 26.1879 0.0069067C22.8497 0.0069067 19.5136 -0.0122786 16.1753 0.0133018C13.7367 0.0324871 11.8693 1.76982 11.8331 4.20635C11.767 8.67865 11.7691 13.1531 11.8331 17.6254C11.865 19.8509 13.5981 21.5754 15.668 21.6863C18.0491 21.8142 20.2597 22.4046 21.4641 24.8817C21.9096 25.7983 22.5832 25.7386 23.1886 24.9094C23.7748 24.1079 24.2651 23.2296 24.9046 22.4771C25.1967 22.1339 25.7381 21.8163 26.173 21.8099C29.4025 21.7545 32.6342 21.7886 35.8658 21.7779C38.6221 21.7694 40.4042 20.1259 40.4404 17.4058C40.498 13.0721 40.4959 8.74047 40.4404 4.40886ZM15.4655 7.59148C15.0413 7.18433 15.0285 6.50858 15.4356 6.08437C15.8428 5.66017 16.5185 5.64738 16.9427 6.05453L18.4285 7.4849L21.6943 3.96547C22.0951 3.53487 22.7687 3.50928 23.2014 3.91004C23.6341 4.3108 23.6576 4.98442 23.2568 5.41715L19.2535 9.73171C19.0595 9.94061 18.7888 10.0643 18.5031 10.0728C18.4925 10.0728 18.484 10.0728 18.4733 10.0728C18.1983 10.0728 17.934 9.96619 17.7336 9.77434L15.4655 7.59148ZM35.3542 17.3717H16.8319C16.3651 17.3717 15.9856 16.9923 15.9856 16.5254C15.9856 16.0586 16.3651 15.6791 16.8319 15.6791H35.3521C35.8189 15.6791 36.1984 16.0586 36.1984 16.5254C36.1984 16.9944 35.8211 17.3717 35.3542 17.3717ZM35.3542 13.654H16.8319C16.3651 13.654 15.9856 13.2746 15.9856 12.8077C15.9856 12.3409 16.3651 11.9615 16.8319 11.9615H35.3521C35.8189 11.9615 36.1984 12.3409 36.1984 12.8077C36.1984 13.2746 35.8211 13.654 35.3542 13.654ZM36.1984 9.0048C36.1984 9.47164 35.8189 9.85108 35.3521 9.85108H26.3819C25.9151 9.85108 25.5356 9.47164 25.5356 9.0048C25.5356 8.53796 25.9151 8.15852 26.3819 8.15852H35.3521C35.8211 8.16065 36.1984 8.53796 36.1984 9.0048ZM35.3542 6.12275H26.384C25.9172 6.12275 25.5377 5.7433 25.5377 5.27646C25.5377 4.80962 25.9172 4.43018 26.384 4.43018H35.3542C35.8211 4.43018 36.2005 4.80962 36.2005 5.27646C36.1984 5.74543 35.8211 6.12275 35.3542 6.12275Z" fill="white"/>
</svg>
