<svg width="50" height="49" viewBox="0 0 50 49" fill="none" xmlns="http://www.w3.org/2000/svg">
<path d="M31.5347 34.5175C32.2097 34.9328 33.1194 34.8953 34.1402 34.5375C39.728 32.582 44.959 26.3502 44.6857 19.673C44.526 15.787 44.657 11.8873 44.657 7.88494C41.9991 7.31568 39.3474 6.88404 36.7781 6.1609C33.9343 5.36018 31.2015 5.55286 28.3988 6.28476C26.0217 6.90531 23.5921 7.32068 21.0116 7.86367C21.0116 8.87958 20.9891 9.90674 21.0315 10.9314C21.0403 11.1353 21.2574 11.4281 21.4508 11.5094C22.9183 12.1325 23.7394 13.3523 24.246 14.7423C24.9023 16.5452 26.099 17.5999 27.8435 18.3505C31.2402 19.8118 32.0787 21.8612 30.6924 25.3218C29.9986 27.0521 29.9599 28.5909 30.6587 30.3225C31.1466 31.5323 31.2177 32.9098 31.5347 34.5175Z" fill="white"/>
<path d="M15.6932 12.3777C16.9635 11.9436 18.0429 11.5757 19.1685 11.1916C19.1685 9.95553 19.1922 8.76071 19.1598 7.5684C19.1373 6.74516 19.4318 6.30727 20.2878 6.13211C24.241 5.32765 28.1705 4.39306 32.1411 3.68368C33.2143 3.49226 34.4109 3.86009 35.5278 4.08404C38.8059 4.74087 42.069 5.47528 45.3471 6.13211C46.1831 6.29976 46.5113 6.68636 46.5063 7.53587C46.4801 12.0499 46.5562 16.5652 46.4714 21.078C46.3416 27.8615 40.0362 35.3457 33.3578 36.6494C32.5928 36.7982 31.7243 36.3929 30.9007 36.2678C30.5476 36.214 30.1159 36.0826 29.8401 36.2227C28.7832 36.7595 27.7749 37.3913 26.7566 37.9843C28.1929 39.3956 32.231 40.5203 34.1576 40.0612C42.8202 37.9968 50.2474 29.1051 49.9941 19.8506C49.8568 14.8386 49.9479 9.81916 49.9891 4.80468C49.9966 3.89261 49.8194 3.486 48.8186 3.28707C43.655 2.26116 38.5126 1.12765 33.359 0.0504339C32.9984 -0.0246332 32.5941 -0.012122 32.2322 0.062945C27.0412 1.14766 21.8576 2.27117 16.6616 3.32836C15.8891 3.486 15.667 3.78627 15.6783 4.53819C15.7169 7.07921 15.6932 9.62148 15.6932 12.3777Z" fill="white"/>
<path d="M28.9916 30.9893C29.9125 33.5879 29.5918 34.6351 27.0898 35.6472C24.8687 36.5468 23.4374 37.9956 22.5389 40.2163C21.5382 42.6898 20.4388 43.1565 18.0118 42.118C15.7706 41.1597 13.7004 41.1772 11.4656 42.1318C9.09963 43.1439 7.96409 42.6748 7.0045 40.2876C6.09731 38.0294 4.65231 36.543 2.38871 35.6285C-0.075789 34.6326 -0.51004 33.5541 0.525673 31.0807C1.44908 28.8774 1.4678 26.8381 0.535656 24.6287C-0.525014 22.1127 -0.0770367 21.0555 2.46857 20.0145C4.64357 19.125 6.06237 17.71 6.94834 15.528C7.98281 12.9808 9.04722 12.5354 11.5492 13.5838C13.7054 14.4884 15.7032 14.5346 17.8745 13.6138C20.46 12.5178 21.5319 12.957 22.5776 15.5443C23.4624 17.735 24.8949 19.1338 27.0611 20.0245C29.5781 21.0592 29.9125 22.0889 29.004 24.6687C28.6347 25.7171 28.329 26.7868 27.9933 27.8478C28.3389 28.9425 28.6322 29.9772 28.9916 30.9893ZM14.6463 17.7675C9.17201 17.8088 4.68849 22.3604 4.69848 27.8653C4.70846 33.4203 9.23814 37.9205 14.8073 37.9093C20.3527 37.898 24.8138 33.3627 24.7876 27.7615C24.7614 22.2015 20.2205 17.725 14.6463 17.7675Z" fill="white"/>
<path d="M25.1332 39.1829C23.9802 41.3086 23.4349 43.7545 20.6859 44.4138C21.5681 45.9527 22.383 47.3715 23.3051 48.9779C23.7593 48.1159 24.1948 47.4178 24.5056 46.6671C24.8774 45.7663 25.4814 45.4798 26.4098 45.6149C27.1635 45.7238 27.9297 45.7338 28.9454 45.8063C27.6302 43.5193 26.4173 41.4137 25.1332 39.1829Z" fill="white"/>
<path d="M8.82635 44.4238C6.11478 43.7883 5.53578 41.3561 4.38277 39.1766C3.09499 41.4111 1.9033 43.4817 0.5681 45.7988C1.6138 45.7275 2.43238 45.7087 3.24099 45.6061C4.09077 45.4985 4.61986 45.8 4.96052 46.5958C5.2912 47.3677 5.72046 48.0984 6.18466 49.0017C7.09684 47.4227 7.9329 45.9727 8.82635 44.4238Z" fill="white"/>
<path d="M6.5378 27.9003C6.51159 23.4088 10.1553 19.6692 14.6114 19.6129C19.1785 19.5554 22.9096 23.1861 22.947 27.7264C22.9857 32.323 19.3819 36.0313 14.8422 36.0639C10.2888 36.0964 6.564 32.4369 6.5378 27.9003ZM13.1851 29.6406C12.4102 28.8161 11.7513 28.1143 11.0899 27.4149C10.6382 26.9382 10.0393 26.6805 9.62373 27.2635C9.41783 27.5525 9.52015 28.3282 9.77846 28.636C10.5908 29.6081 11.5429 30.4614 12.4389 31.3634C12.9205 31.8476 13.4509 31.9564 13.9575 31.4547C15.9541 29.4755 17.9506 27.495 19.8898 25.4594C19.9522 25.3943 19.9834 25.3005 19.9971 25.1904C20.067 24.6474 19.614 24.1807 19.0674 24.1795C18.9202 24.1795 18.7742 24.1895 18.6332 24.2208C18.3786 24.2771 18.184 24.6199 17.9668 24.8376C16.422 26.3877 14.8772 27.9404 13.1851 29.6406Z" fill="white"/>
</svg>
