<svg width="50" height="50" viewBox="0 0 50 50" fill="none" xmlns="http://www.w3.org/2000/svg">
<path d="M19.4556 34.8309C21.3033 34.8309 23.1509 34.8329 24.9966 34.8329C26.8384 34.8407 28.6802 34.8485 30.522 34.8583C32.4361 34.8622 34.3521 34.8661 36.2662 34.8719C36.524 34.8719 36.7818 34.87 37.0396 34.8719C37.5103 34.8758 37.8111 35.0516 37.8482 35.4969C37.8873 35.9519 37.6412 36.2527 37.1646 36.3777C36.9244 36.4402 36.6549 36.4207 36.397 36.4207C28.8091 36.4226 21.2193 36.4226 13.6314 36.4207C13.4107 36.4207 13.1841 36.4363 12.9693 36.4031C12.4263 36.3191 12.1236 36.032 12.1431 35.5301C12.1627 35.0301 12.5162 34.868 13.0279 34.87C13.2857 34.87 13.5435 34.8583 13.8013 34.8524C15.6881 34.8446 17.5728 34.8387 19.4556 34.8309Z" fill="white"/>
<path d="M30.7369 18.6252C30.7467 17.3245 30.7838 16.0238 30.7584 14.7231C30.7428 13.8814 31.0982 13.5396 31.9303 13.5787C32.7096 13.6158 33.4908 13.5865 34.2721 13.5865C35.6998 13.5884 35.7838 13.6666 35.7838 15.059C35.7857 20.4258 35.7838 25.7945 35.7838 31.1613C35.7838 32.2022 35.7857 33.2432 35.7857 34.2841C34.0982 34.2802 32.4107 34.2763 30.7232 34.2704C30.7291 29.056 30.733 23.8415 30.7369 18.6252Z" fill="white"/>
<path d="M30.151 18.6251C30.1471 23.8396 30.1432 29.056 30.1412 34.2704C28.5182 34.2626 26.8951 34.2548 25.2721 34.245C25.274 30.6808 25.274 27.1186 25.276 23.5544C25.276 22.326 25.274 21.0976 25.2779 19.8692C25.2818 18.6954 25.3502 18.629 26.5631 18.6251C27.7584 18.6232 28.9537 18.6251 30.151 18.6251Z" fill="white"/>
<path d="M24.6881 23.5564C24.6861 27.1206 24.6861 30.6828 24.6842 34.247C23.0553 34.247 21.4283 34.245 19.7994 34.245C19.7935 32.3545 19.7877 30.466 19.7838 28.5755C19.7818 27.2417 19.7955 25.9058 19.7681 24.5739C19.7545 23.9118 20.0338 23.6169 20.6881 23.613C22.0221 23.6033 23.356 23.5759 24.6881 23.5564Z" fill="white"/>
<path d="M19.2154 34.245C17.5553 34.2509 15.8951 34.2587 14.2349 34.2646C14.2291 32.7432 14.2369 31.2199 14.2135 29.6985C14.2017 28.9251 14.5084 28.5873 15.315 28.6068C16.608 28.6381 17.9049 28.5912 19.1998 28.5756C19.2037 30.466 19.2096 32.3565 19.2154 34.245Z" fill="white"/>
<path d="M13.2134 40.7444C9.82282 37.8208 7.66852 34.1531 6.73493 29.7804C6.4986 28.6789 6.20563 27.5618 6.47907 26.4135C7.0572 26.3412 7.63727 26.2768 8.21345 26.1967C9.38532 26.0326 9.77985 25.0952 9.02595 24.1851C7.99274 22.9411 6.91657 21.7322 5.85993 20.5077C5.65876 20.2538 5.47712 19.9804 5.25056 19.7519C4.60993 19.1035 3.84431 19.1289 3.35602 19.8847C2.27985 21.5486 1.22907 23.2321 0.215399 24.937C-0.331476 25.8569 0.205634 26.7103 1.28376 26.7396C1.51032 26.7455 1.74274 26.7396 1.9654 26.7006C2.66071 26.5756 2.95759 26.8255 3.01813 27.5599C3.24079 30.2706 3.92048 32.868 5.0572 35.3444C6.49274 38.4692 8.52985 41.1369 11.1334 43.3711C12.2037 44.289 13.481 44.0488 13.942 42.8731C14.2955 41.9748 13.8873 41.3244 13.2134 40.7444Z" fill="white"/>
<path d="M30.0806 3.33526C29.8443 3.16925 29.5748 3.05207 29.3189 2.91341C27.897 2.00919 26.4947 1.07567 25.0474 0.212453C24.1373 -0.330474 23.2798 0.216359 23.2564 1.2944C23.2466 1.78069 23.2681 2.26698 23.2759 2.75327C22.8384 3.11652 22.2857 3.03254 21.7857 3.09113C15.7388 3.80397 10.733 6.4854 6.71344 11.0358C5.84039 12.026 5.84235 12.9868 6.67047 13.6762C7.46344 14.3363 8.39899 14.186 9.21735 13.2427C12.4615 9.50469 16.5474 7.30174 21.4107 6.50298C23.5162 6.1573 23.5181 6.15925 23.7994 8.22745C23.9517 9.35236 24.8873 9.79178 25.7486 9.08676C27.2584 7.85248 28.7408 6.5811 30.2037 5.29213C30.9322 4.64765 30.8599 3.88599 30.0806 3.33526Z" fill="white"/>
<path d="M42.9615 36.0983C42.0357 35.6725 41.356 36.0788 40.7447 36.7857C38.0572 39.9066 34.7154 42.006 30.7291 43.0353C29.3228 43.3985 27.9029 43.8067 26.4166 43.5157C26.3424 42.9376 26.276 42.3576 26.1959 41.7814C26.0318 40.6097 25.0924 40.2171 24.1842 40.9729C22.94 42.006 21.731 43.0802 20.5064 44.1348C18.8092 45.4491 18.8306 45.994 20.6256 47.1131C21.8951 47.904 23.1646 48.693 24.4361 49.482C24.9576 49.8043 25.4556 50.23 26.1334 49.8472C26.8443 49.4449 26.8052 48.777 26.7037 48.1267C26.5806 47.3396 26.8365 47.0232 27.6588 46.9607C30.3736 46.7537 32.9693 46.0467 35.4361 44.8984C38.5181 43.4649 41.1666 41.4475 43.3736 38.8637C44.2681 37.815 44.0787 36.6119 42.9615 36.0983Z" fill="white"/>
<path d="M48.7916 23.2634C48.2779 23.2419 47.7623 23.2751 47.2486 23.2829C46.8931 22.8786 46.9693 22.3572 46.9224 21.8904C46.5865 18.6094 45.5611 15.555 43.9244 12.7017C42.5689 10.3386 40.8287 8.29188 38.7506 6.5342C38.0787 5.96588 37.3463 5.85066 36.6158 6.4053C35.9791 6.88769 35.776 7.53998 36.0338 8.30945C36.1861 8.76254 36.5533 9.04182 36.8951 9.34257C40.6021 12.6119 42.7799 16.717 43.5181 21.5877C43.817 23.5602 43.7916 23.5778 41.8873 23.7809C41.3639 23.8356 40.9107 23.9586 40.6939 24.4644C40.4635 24.9996 40.6431 25.4605 41.0181 25.8921C42.0416 27.0697 43.0924 28.2278 44.0416 29.464C45.526 31.3936 46.3541 30.9053 47.2642 29.1047C47.2935 29.0481 47.3053 28.9817 47.3248 28.9192C46.9986 28.7004 46.6959 28.4602 46.4205 28.1927C46.6959 28.4583 46.9986 28.7004 47.3248 28.9192C48.1549 27.6204 49.0201 26.3432 49.8053 25.0191C50.3111 24.1637 49.7896 23.3063 48.7916 23.2634Z" fill="white"/>
</svg>
