<svg width="50" height="49" viewBox="0 0 50 49" fill="none" xmlns="http://www.w3.org/2000/svg">
<path d="M29.7548 18.3867C34.3809 18.379 38.9087 17.7871 43.2383 16.0581C45.1343 15.3005 46.9126 14.3421 48.3411 12.8436C50.5337 10.5448 50.5259 7.882 48.3216 5.58963C46.8867 4.09765 45.1253 3.07709 43.2072 2.39327C34.2929 -0.784965 25.3475 -0.796621 16.4215 2.35182C14.5306 3.01881 12.7912 4.00829 11.3498 5.44328C8.93567 7.84573 8.9279 10.6523 11.377 13.0327C13.7004 15.2914 16.6416 16.3676 19.6943 17.1797C22.9865 18.0552 26.3499 18.4049 29.7548 18.3867Z" fill="white"/>
<path d="M9.54697 18.1757C9.93162 18.1265 10.3189 18.1018 10.7113 18.1018C11.3161 18.1018 11.9209 18.1627 12.5115 18.2832C14.7482 18.7365 16.6676 19.871 18.0663 21.5702C19.4132 23.2059 20.1553 25.2172 20.2201 27.4008C20.7083 27.5187 21.2018 27.6236 21.6978 27.7207C28.6397 29.0676 35.4986 28.8164 42.2255 26.5007C44.242 25.8065 46.1368 24.8611 47.7673 23.4481C49.2593 22.1543 50.1167 20.604 49.9872 18.5461C49.8952 17.0696 49.9703 15.5841 49.9703 13.8992C46.1264 17.51 41.5728 18.9631 36.7614 19.7246C30.1278 20.7724 23.5615 20.4823 17.1403 18.3479C14.3817 17.431 11.8342 16.1281 9.64928 13.9523C9.60913 14.2942 9.56121 14.5234 9.55992 14.7527C9.55215 15.895 9.63763 17.0424 9.54697 18.1757Z" fill="white"/>
<path d="M20.2291 29.4523V29.7851C22.3661 30.7642 23.3737 32.5036 23.3737 35.1612C23.3737 35.5225 23.375 35.8838 23.3776 36.2478C23.3789 36.8655 23.3815 37.4976 23.3776 38.1335C29.9335 39.2136 36.4389 38.759 42.8096 36.3591C44.6111 35.6805 46.2909 34.5628 47.8645 33.4257C49.3694 32.3378 50.0908 30.7305 49.9859 28.7853C49.9056 27.2713 49.9703 25.7495 49.9703 24.2329C49.9703 24.2329 47.3762 28.2789 36.9738 29.811C28.3003 31.0867 24.8281 30.8108 20.2291 29.4523Z" fill="white"/>
<path d="M19.6451 47.4597C27.4611 49.4632 35.2344 49.3182 42.8575 46.4547C44.6591 45.7773 46.3349 44.6531 47.9059 43.5095C49.3759 42.4385 50.0804 40.8532 49.9846 38.9455C49.9082 37.4082 49.9691 35.8657 49.9691 34.1173C46.8297 37.157 43.123 38.6373 39.1561 39.4934C33.8111 40.6447 28.5141 40.918 23.2908 40.0814C23.0668 42.0979 22.3609 43.9978 21.2212 45.6348C20.7576 46.2992 20.2292 46.9118 19.6451 47.4597Z" fill="white"/>
<path d="M10.1194 38.6294V38.6489C10.1194 38.8846 10.1893 38.9377 10.2359 38.9739C10.4095 39.1035 10.5921 39.2705 10.7566 39.4803C10.9146 39.2524 11.114 39.0258 11.364 38.8108C11.4041 38.7369 11.408 38.4494 11.2384 38.193C11.1283 38.0259 10.9573 37.934 10.7566 37.934C10.6918 37.934 10.6258 37.943 10.5584 37.9625C10.1569 38.0816 10.1181 38.4675 10.1194 38.6294Z" fill="white"/>
<path d="M21.4711 35.1624C21.4711 36.385 21.4854 37.6076 21.4672 38.8289C21.4038 43.0938 18.8809 46.6994 14.9657 48.1732C13.2626 48.8143 11.4961 48.8532 9.72048 48.7819C4.83787 48.5838 0.95898 45.3253 0.212989 40.4983C-0.114677 38.3808 0.00576939 36.1726 0.11456 34.0163C0.184496 32.6473 1.14159 31.764 2.44708 31.3211C2.66595 31.2473 2.89389 31.2032 3.16069 31.1346C3.16069 29.8395 3.13349 28.5599 3.16587 27.2816C3.27725 22.7383 7.68067 19.2428 12.1346 20.1455C15.8076 20.8889 18.3007 23.9156 18.324 27.665C18.3305 28.8241 18.3253 29.9845 18.3253 31.1268C20.6189 31.7304 21.4698 32.8377 21.4711 35.1624ZM14.8479 26.5279C14.4956 24.4893 12.5503 23.1851 10.4859 23.3457C8.27642 23.518 6.64457 25.0177 6.49692 27.1392C6.40756 28.4317 6.48009 29.7346 6.48009 31.1048C9.30475 31.1048 12.1346 31.1048 15.0978 31.1048C15.0266 29.5727 15.1056 28.0211 14.8479 26.5279ZM9.32029 40.1875C9.68034 40.4582 9.80078 40.7703 9.77877 41.1977C9.75545 41.6484 9.76193 42.103 9.78006 42.555C9.80467 43.1598 10.1764 43.5173 10.7449 43.5147C11.3122 43.5121 11.6709 43.1533 11.7007 42.5446C11.7137 42.2895 11.7202 42.0318 11.702 41.7779C11.6541 41.0721 11.7448 40.488 12.3612 39.9596C13.0723 39.3496 13.0554 38.1814 12.5063 37.3512C11.9882 36.5689 11.0402 36.2309 10.1246 36.5029C9.18948 36.7813 8.58855 37.6219 8.59761 38.6411C8.59632 39.2719 8.82426 39.8132 9.32029 40.1875Z" fill="white"/>
</svg>
