<svg width="207" height="158" viewBox="0 0 207 158" fill="none" xmlns="http://www.w3.org/2000/svg">
<path fill-rule="evenodd" clip-rule="evenodd" d="M96.737 1.7529C92.138 3.8529 88.237 9.8449 88.237 14.8079C88.237 22.4889 95.594 29.8819 103.237 29.8819C110.88 29.8819 118.237 22.4889 118.237 14.8079C118.237 10.1569 114.348 3.9789 110.035 1.7789C105.402 -0.585104 101.87 -0.592103 96.737 1.7529ZM54.625 17.8619C49.414 19.9679 46.984 26.4559 49.212 32.3159C50.344 35.2929 55.704 38.8729 59.037 38.8779C64.523 38.8869 70.237 33.2769 70.237 27.8819C70.237 20.4319 61.748 14.9839 54.625 17.8619ZM141.657 18.7109C134.939 22.9309 134.876 32.8619 141.541 36.9259C145.376 39.2639 148.349 39.3929 152.226 37.3879C156.245 35.3089 158.237 32.0909 158.237 27.6749C158.237 19.5169 148.638 14.3269 141.657 18.7109ZM85.227 36.1319C78.677 40.5899 77.772 42.8229 77.401 55.4519L77.065 66.8819H103.237H129.409L129.073 55.4519C128.702 42.8229 127.797 40.5899 121.247 36.1319C118.189 34.0509 116.84 33.8819 103.237 33.8819C89.634 33.8819 88.285 34.0509 85.227 36.1319ZM48.88 42.9099C42.314 44.8779 39.237 50.4429 39.237 60.3499V66.8819H56.237H73.237L73.404 57.3819C73.495 52.1569 73.608 47.0949 73.654 46.1319C73.708 44.9909 72.519 43.9669 70.237 43.1879C66.213 41.8159 53.101 41.6449 48.88 42.9099ZM136.237 43.1319C133.974 43.9399 132.766 45.0009 132.82 46.1319C132.866 47.0949 132.979 52.1569 133.07 57.3819L133.237 66.8819H150.237H167.237L167.235 60.1319C167.234 52.4729 165.315 47.6809 160.975 44.4989C158.766 42.8789 156.363 42.4139 148.975 42.1769C143.357 41.9969 138.365 42.3709 136.237 43.1319ZM0.876998 51.9849C-0.446002 53.8739 -0.359003 54.7129 1.736 60.2349C14.037 92.6679 16.522 98.5909 18.617 100.459C19.897 101.601 29.406 105.426 39.747 108.959C56.975 114.844 58.711 115.654 60.492 118.632C61.56 120.419 62.848 121.882 63.354 121.882C64.163 121.882 84.173 112.167 85.094 111.326C85.291 111.147 84.082 108.611 82.408 105.691C76.765 95.8449 74.951 94.7359 50.91 86.4299C28.445 78.6689 26.417 78.3629 24.832 82.4949C23.442 86.1169 26.693 88.2909 40.082 92.6939C47.295 95.0659 53.488 97.4789 53.845 98.0559C55.559 100.829 50.951 100.173 38.501 95.8709C23.404 90.6549 21.052 88.8859 21.364 82.9819C21.508 80.2739 19.795 75.8829 14.454 65.2609C6.584 49.6109 4.184 47.2639 0.876998 51.9849ZM200.445 50.5469C199.734 50.8379 195.95 57.4449 192.036 65.2289C186.681 75.8779 184.966 80.2729 185.11 82.9819C185.422 88.8859 183.07 90.6549 167.973 95.8709C155.523 100.173 150.915 100.829 152.629 98.0559C152.986 97.4789 159.179 95.0659 166.392 92.6939C180.413 88.0829 183.414 85.9489 181.336 82.0669C180.762 80.9949 179.605 79.8529 178.764 79.5309C177.923 79.2079 167.449 82.3249 155.489 86.4559C131.53 94.7329 129.707 95.8489 124.066 105.691C122.392 108.611 121.183 111.147 121.38 111.326C121.576 111.506 126.399 113.983 132.098 116.832C142.093 121.829 145.237 122.484 145.237 119.568C145.237 116.912 148.894 115.122 167.155 108.837C177.284 105.35 186.61 101.572 187.878 100.44C189.349 99.1269 193.239 90.4169 198.622 76.3819C205.982 57.1909 206.896 54.1269 205.779 52.3819C204.435 50.2839 202.614 49.6569 200.445 50.5469ZM74.982 120.443L60.228 127.9L65.076 137.641C67.743 142.998 70.984 149.765 72.28 152.677L74.635 157.973L79.568 157.677L84.501 157.382L92.87 142.773L101.239 128.164L96.988 120.544C94.59 116.246 92.083 112.939 91.237 112.956C90.412 112.973 83.097 116.343 74.982 120.443ZM101.487 134.742C94.75 146.738 89.237 156.861 89.237 157.238C89.237 157.614 98.8 157.8 110.487 157.652L131.737 157.382L133.686 153.382C134.757 151.182 138.008 144.542 140.91 138.625L146.186 127.869L131.224 120.375C122.995 116.254 115.694 112.893 114.999 112.906C114.305 112.919 108.224 122.745 101.487 134.742Z" fill="white"/>
</svg>
