<svg width="176" height="132" viewBox="0 0 176 132" fill="none" xmlns="http://www.w3.org/2000/svg">
<path fill-rule="evenodd" clip-rule="evenodd" d="M85.842 0.365895C75.624 2.3119 67.817 11.7029 67.852 22.0059C67.866 26.1559 72.044 34.3819 75.97 37.9889C80.905 42.5239 88.959 48.3909 90.236 48.3809C91.802 48.3679 103.062 39.4779 106.057 35.8899C112.118 28.6269 113.674 20.7099 110.521 13.1639C106.751 4.1419 95.809 -1.5331 85.842 0.365895ZM29.342 3.28989C18.24 8.44089 13.093 20.7399 17.749 30.9919C20.261 36.5229 28.953 44.7749 37.44 49.6849C38.821 50.4839 49.28 42.9379 53.573 38.0449C58.273 32.6899 60.074 28.6419 60.062 23.4669C60.024 7.66389 43.42 -3.24211 29.342 3.28989ZM134.342 2.4509C130.136 3.6859 124.125 8.9099 121.933 13.2369C116.794 23.3789 119.017 31.7229 129.379 41.1799C132.821 44.3209 136.986 47.6749 138.635 48.6349L141.635 50.3809L147.492 46.0689C165.399 32.8859 168.649 19.6869 156.815 8.20689C150.322 1.9079 142.776 -0.025105 134.342 2.4509ZM97.692 11.3099C100.298 12.7049 102.954 17.6209 103.057 21.2419C103.171 25.2549 100.415 29.7869 95.322 33.9599C91.099 37.4199 90.588 37.5919 88.25 36.3409C84.625 34.4009 78.02 26.9479 77.267 23.9489C76.358 20.3249 77.452 16.8579 80.627 13.3039C84.81 8.62289 91.262 7.8689 97.692 11.3099ZM43.803 11.8699C48.412 14.2529 50.842 18.1029 50.842 23.0219C50.842 26.6379 50.217 28.0759 47.188 31.4289C45.179 33.6529 42.309 36.3449 40.811 37.4119L38.088 39.3509L34.028 36.4099C29.083 32.8279 24.842 26.8179 24.842 23.3919C24.842 19.4619 28.147 14.2319 31.904 12.2169C36.029 10.0049 39.973 9.8889 43.803 11.8699ZM149.499 13.5239C152.404 16.2379 154.842 20.5339 154.842 22.9389C154.842 26.3839 151.423 31.5539 146.61 35.3859L141.614 39.3639L138.899 37.4309C134.135 34.0379 129.92 29.1569 128.785 25.7169C127.352 21.3749 129.871 15.9049 134.842 12.5649C139.291 9.57589 145.723 9.9959 149.499 13.5239ZM64.456 48.4809C48.989 54.7559 37.488 67.9189 33.519 83.8899C29.617 99.5959 30.576 110.057 36.457 115.938C41.485 120.967 46.011 122.545 57.092 123.137L66.842 123.657V119.024V114.39H60.524C57.048 114.39 51.923 113.712 49.135 112.884C42.072 110.787 40.505 108.113 40.689 98.4719C41.049 79.4839 49.542 65.9379 66.07 57.9879L73.563 54.3849L72.496 50.3869C71.909 48.1889 70.959 46.4149 70.385 46.4449C69.812 46.4749 67.143 47.3909 64.456 48.4809ZM106.951 49.5069C105.55 53.5249 105.543 55.3899 106.928 55.3899C107.525 55.3899 110.953 56.8529 114.546 58.6399C127.127 64.8989 135.483 76.6059 137.923 91.3899C140.707 108.263 137.101 113.158 121.155 114.153L112.842 114.672V119.031V123.39H120.183C138.439 123.39 147.792 115.601 147.803 100.39C147.818 78.4839 136.473 59.0859 118.656 50.5549C108.843 45.8569 108.242 45.8029 106.951 49.5069ZM18.186 51.7649C15.35 53.4839 11.619 55.6669 9.894 56.6169C6.41 58.5369 4.432 62.5069 3.404 69.6399L2.719 74.3899H7.726H12.732L13.037 69.6669L13.342 64.9429L20.78 60.8539C24.87 58.6049 28.362 56.3309 28.539 55.7999C28.715 55.2699 27.618 53.4419 26.101 51.7379L23.342 48.6389L18.186 51.7649ZM152.462 52.2649L149.708 55.1389L152.228 57.1219C153.614 58.2119 157.206 60.3479 160.21 61.8679C165.74 64.6649 166.801 66.2329 166.828 71.6399C166.841 74.2309 167.103 74.3899 171.342 74.3899H175.842V70.3579C175.842 65.4029 173.874 60.5739 170.721 57.7889C168.423 55.7599 157.146 49.3899 155.852 49.3899C155.502 49.3899 153.977 50.6839 152.462 52.2649ZM57.842 89.3899V110.39H89.842H121.842V89.3899V68.3899H89.842H57.842V89.3899ZM112.624 89.1399L112.342 100.89L89.592 101.159L66.842 101.428V89.4089V77.3899H89.874H112.905L112.624 89.1399ZM0 130.39C0 131.765 0.227 132.328 0.504 131.64C0.782 130.953 0.782 129.828 0.504 129.14C0.227 128.453 0 129.015 0 130.39Z" fill="white"/>
</svg>
